<?xml version="1.0" encoding="UTF-8" standalone="no"?>
<!-- Created with Inkscape (http://www.inkscape.org/) -->

<svg
   xmlns:dc="http://purl.org/dc/elements/1.1/"
   xmlns:cc="http://creativecommons.org/ns#"
   xmlns:rdf="http://www.w3.org/1999/02/22-rdf-syntax-ns#"
   xmlns:svg="http://www.w3.org/2000/svg"
   xmlns="http://www.w3.org/2000/svg"
   xmlns:sodipodi="http://sodipodi.sourceforge.net/DTD/sodipodi-0.dtd"
   xmlns:inkscape="http://www.inkscape.org/namespaces/inkscape"
   width="1024"
   height="724"
   viewBox="0 0 1024 724"
   version="1.1"
   id="svg4774"
   inkscape:version="0.92.3 (2405546, 2018-03-11)"
   sodipodi:docname="M4_Cellular_respiration_r1.1.svg">
  <defs
     id="defs4768">
    <marker
       inkscape:isstock="true"
       style="overflow:visible"
       id="marker8286"
       refX="0"
       refY="0"
       orient="auto"
       inkscape:stockid="Arrow1Lend">
      <path
         transform="matrix(-0.8,0,0,-0.8,-10,0)"
         style="fill:#000000;fill-opacity:1;fill-rule:evenodd;stroke:#000000;stroke-width:1.00000003pt;stroke-opacity:1"
         d="M 0,0 5,-5 -12.5,0 5,5 Z"
         id="path8284"
         inkscape:connector-curvature="0" />
    </marker>
    <marker
       inkscape:stockid="Arrow1Lend"
       orient="auto"
       refY="0"
       refX="0"
       id="marker23865"
       style="overflow:visible"
       inkscape:isstock="true">
      <path
         id="path23863"
         d="M 0,0 5,-5 -12.5,0 5,5 Z"
         style="fill:#ff0000;fill-opacity:1;fill-rule:evenodd;stroke:#ff0000;stroke-width:1.00000003pt;stroke-opacity:1"
         transform="matrix(-0.8,0,0,-0.8,-10,0)"
         inkscape:connector-curvature="0" />
    </marker>
    <marker
       inkscape:isstock="true"
       style="overflow:visible"
       id="marker14291"
       refX="0"
       refY="0"
       orient="auto"
       inkscape:stockid="Arrow1Lend">
      <path
         transform="matrix(-0.8,0,0,-0.8,-10,0)"
         style="fill:#808080;fill-opacity:1;fill-rule:evenodd;stroke:#808080;stroke-width:1.00000003pt;stroke-opacity:1"
         d="M 0,0 5,-5 -12.5,0 5,5 Z"
         id="path14289"
         inkscape:connector-curvature="0" />
    </marker>
    <marker
       inkscape:isstock="true"
       style="overflow:visible"
       id="marker10271"
       refX="0"
       refY="0"
       orient="auto"
       inkscape:stockid="Arrow1Lend"
       inkscape:collect="always">
      <path
         transform="matrix(-0.8,0,0,-0.8,-10,0)"
         style="fill:#000000;fill-opacity:1;fill-rule:evenodd;stroke:#000000;stroke-width:1.00000003pt;stroke-opacity:1"
         d="M 0,0 5,-5 -12.5,0 5,5 Z"
         id="path10269"
         inkscape:connector-curvature="0" />
    </marker>
    <marker
       inkscape:isstock="true"
       style="overflow:visible"
       id="marker9101"
       refX="0"
       refY="0"
       orient="auto"
       inkscape:stockid="Arrow1Lend">
      <path
         transform="matrix(-0.8,0,0,-0.8,-10,0)"
         style="fill:#000000;fill-opacity:1;fill-rule:evenodd;stroke:#000000;stroke-width:1.00000003pt;stroke-opacity:1"
         d="M 0,0 5,-5 -12.5,0 5,5 Z"
         id="path9099"
         inkscape:connector-curvature="0" />
    </marker>
    <marker
       inkscape:stockid="Arrow1Lstart"
       orient="auto"
       refY="0"
       refX="0"
       id="marker6058"
       style="overflow:visible"
       inkscape:isstock="true">
      <path
         id="path6056"
         d="M 0,0 5,-5 -12.5,0 5,5 Z"
         style="fill:#eeffaa;fill-opacity:1;fill-rule:evenodd;stroke:#eeffaa;stroke-width:1.00000003pt;stroke-opacity:1"
         transform="matrix(0.8,0,0,0.8,10,0)"
         inkscape:connector-curvature="0" />
    </marker>
    <marker
       inkscape:stockid="Arrow1Lstart"
       orient="auto"
       refY="0"
       refX="0"
       id="Arrow1Lstart"
       style="overflow:visible"
       inkscape:isstock="true">
      <path
         id="path5774"
         d="M 0,0 5,-5 -12.5,0 5,5 Z"
         style="fill:#eeffaa;fill-opacity:1;fill-rule:evenodd;stroke:#eeffaa;stroke-width:1.00000003pt;stroke-opacity:1"
         transform="matrix(0.8,0,0,0.8,10,0)"
         inkscape:connector-curvature="0" />
    </marker>
    <marker
       inkscape:stockid="Arrow1Lend"
       orient="auto"
       refY="0"
       refX="0"
       id="Arrow1Lend-9"
       style="overflow:visible"
       inkscape:isstock="true">
      <path
         inkscape:connector-curvature="0"
         id="path5777-3"
         d="M 0,0 5,-5 -12.5,0 5,5 Z"
         style="fill:#000000;fill-opacity:1;fill-rule:evenodd;stroke:#000000;stroke-width:1.00000003pt;stroke-opacity:1"
         transform="matrix(-0.8,0,0,-0.8,-10,0)" />
    </marker>
    <marker
       inkscape:stockid="Arrow1Lend"
       orient="auto"
       refY="0"
       refX="0"
       id="marker10349-9"
       style="overflow:visible"
       inkscape:isstock="true">
      <path
         inkscape:connector-curvature="0"
         id="path10347-4"
         d="M 0,0 5,-5 -12.5,0 5,5 Z"
         style="fill:#000000;fill-opacity:1;fill-rule:evenodd;stroke:#000000;stroke-width:1.00000003pt;stroke-opacity:1"
         transform="matrix(-0.8,0,0,-0.8,-10,0)" />
    </marker>
    <marker
       inkscape:stockid="Arrow1Lend"
       orient="auto"
       refY="0"
       refX="0"
       id="marker10349-9-8"
       style="overflow:visible"
       inkscape:isstock="true">
      <path
         inkscape:connector-curvature="0"
         id="path10347-4-4"
         d="M 0,0 5,-5 -12.5,0 5,5 Z"
         style="fill:#000000;fill-opacity:1;fill-rule:evenodd;stroke:#000000;stroke-width:1.00000003pt;stroke-opacity:1"
         transform="matrix(-0.8,0,0,-0.8,-10,0)" />
    </marker>
    <marker
       inkscape:isstock="true"
       style="overflow:visible"
       id="marker14291-0"
       refX="0"
       refY="0"
       orient="auto"
       inkscape:stockid="Arrow1Lend">
      <path
         inkscape:connector-curvature="0"
         transform="matrix(-0.8,0,0,-0.8,-10,0)"
         style="fill:#808080;fill-opacity:1;fill-rule:evenodd;stroke:#808080;stroke-width:1.00000003pt;stroke-opacity:1"
         d="M 0,0 5,-5 -12.5,0 5,5 Z"
         id="path14289-3" />
    </marker>
    <marker
       inkscape:isstock="true"
       style="overflow:visible"
       id="marker14291-0-1"
       refX="0"
       refY="0"
       orient="auto"
       inkscape:stockid="Arrow1Lend">
      <path
         inkscape:connector-curvature="0"
         transform="matrix(-0.8,0,0,-0.8,-10,0)"
         style="fill:#808080;fill-opacity:1;fill-rule:evenodd;stroke:#808080;stroke-width:1.00000003pt;stroke-opacity:1"
         d="M 0,0 5,-5 -12.5,0 5,5 Z"
         id="path14289-3-0" />
    </marker>
    <marker
       inkscape:isstock="true"
       style="overflow:visible"
       id="marker14291-6"
       refX="0"
       refY="0"
       orient="auto"
       inkscape:stockid="Arrow1Lend">
      <path
         inkscape:connector-curvature="0"
         transform="matrix(-0.8,0,0,-0.8,-10,0)"
         style="fill:#808080;fill-opacity:1;fill-rule:evenodd;stroke:#808080;stroke-width:1.00000003pt;stroke-opacity:1"
         d="M 0,0 5,-5 -12.5,0 5,5 Z"
         id="path14289-1" />
    </marker>
    <path
       style="fill:none;stroke:#000000;stroke-width:0.25382066px;stroke-linecap:butt;stroke-linejoin:miter;stroke-opacity:1"
       d="m 114.72717,225.19997 c 14.17625,11.05144 25.38435,7.53448 35.77392,0"
       id="path18963-7"
       inkscape:connector-curvature="0"
       sodipodi:nodetypes="cc" />
    <path
       style="fill:none;stroke:#000000;stroke-width:0.25382066px;stroke-linecap:butt;stroke-linejoin:miter;stroke-opacity:1"
       d="m 114.72717,225.19997 c 14.17625,11.05144 25.38435,7.53448 35.77392,0"
       id="path18963-5"
       inkscape:connector-curvature="0"
       sodipodi:nodetypes="cc" />
    <marker
       inkscape:isstock="true"
       style="overflow:visible"
       id="marker14291-0-1-8"
       refX="0"
       refY="0"
       orient="auto"
       inkscape:stockid="Arrow1Lend">
      <path
         inkscape:connector-curvature="0"
         transform="matrix(-0.8,0,0,-0.8,-10,0)"
         style="fill:#808080;fill-opacity:1;fill-rule:evenodd;stroke:#808080;stroke-width:1.00000003pt;stroke-opacity:1"
         d="M 0,0 5,-5 -12.5,0 5,5 Z"
         id="path14289-3-0-6" />
    </marker>
    <marker
       inkscape:isstock="true"
       style="overflow:visible"
       id="marker14291-0-1-8-8"
       refX="0"
       refY="0"
       orient="auto"
       inkscape:stockid="Arrow1Lend">
      <path
         inkscape:connector-curvature="0"
         transform="matrix(-0.8,0,0,-0.8,-10,0)"
         style="fill:#808080;fill-opacity:1;fill-rule:evenodd;stroke:#808080;stroke-width:1.00000003pt;stroke-opacity:1"
         d="M 0,0 5,-5 -12.5,0 5,5 Z"
         id="path14289-3-0-6-4" />
    </marker>
    <marker
       inkscape:isstock="true"
       style="overflow:visible"
       id="marker14291-0-14"
       refX="0"
       refY="0"
       orient="auto"
       inkscape:stockid="Arrow1Lend">
      <path
         inkscape:connector-curvature="0"
         transform="matrix(-0.8,0,0,-0.8,-10,0)"
         style="fill:#808080;fill-opacity:1;fill-rule:evenodd;stroke:#808080;stroke-width:1.00000003pt;stroke-opacity:1"
         d="M 0,0 5,-5 -12.5,0 5,5 Z"
         id="path14289-3-9" />
    </marker>
    <marker
       inkscape:isstock="true"
       style="overflow:visible"
       id="marker14291-0-1-8-0"
       refX="0"
       refY="0"
       orient="auto"
       inkscape:stockid="Arrow1Lend">
      <path
         inkscape:connector-curvature="0"
         transform="matrix(-0.8,0,0,-0.8,-10,0)"
         style="fill:#808080;fill-opacity:1;fill-rule:evenodd;stroke:#808080;stroke-width:1.00000003pt;stroke-opacity:1"
         d="M 0,0 5,-5 -12.5,0 5,5 Z"
         id="path14289-3-0-6-6" />
    </marker>
    <marker
       inkscape:isstock="true"
       style="overflow:visible"
       id="marker14291-0-1-8-9"
       refX="0"
       refY="0"
       orient="auto"
       inkscape:stockid="Arrow1Lend">
      <path
         inkscape:connector-curvature="0"
         transform="matrix(-0.8,0,0,-0.8,-10,0)"
         style="fill:#808080;fill-opacity:1;fill-rule:evenodd;stroke:#808080;stroke-width:1.00000003pt;stroke-opacity:1"
         d="M 0,0 5,-5 -12.5,0 5,5 Z"
         id="path14289-3-0-6-2" />
    </marker>
    <path
       style="fill:#ffffff;stroke:#ffffff;stroke-width:0.25519919px;stroke-linecap:butt;stroke-linejoin:miter;stroke-opacity:1"
       d="m 183.78126,115.78028 c 14.26406,10.85693 25.08316,6.78004 34.95223,-1.41513"
       id="path18963-4"
       inkscape:connector-curvature="0" />
    <path
       style="fill:#ffffff;stroke:#ffffff;stroke-width:0.25519919px;stroke-linecap:butt;stroke-linejoin:miter;stroke-opacity:1"
       d="m 183.78126,115.78028 c 14.26406,10.85693 25.08316,6.78004 34.95223,-1.41513"
       id="path18963-48"
       inkscape:connector-curvature="0" />
    <path
       style="fill:#ffffff;stroke:#ffffff;stroke-width:0.25519919px;stroke-linecap:butt;stroke-linejoin:miter;stroke-opacity:1"
       d="m 183.78126,115.78028 c 14.26406,10.85693 25.08316,6.78004 34.95223,-1.41513"
       id="path18963-2"
       inkscape:connector-curvature="0" />
    <path
       style="fill:#ffffff;stroke:#ffffff;stroke-width:0.25519919px;stroke-linecap:butt;stroke-linejoin:miter;stroke-opacity:1"
       d="m 183.78126,115.78028 c 14.26406,10.85693 25.08316,6.78004 34.95223,-1.41513"
       id="path18963-2-5"
       inkscape:connector-curvature="0" />
    <marker
       inkscape:isstock="true"
       style="overflow:visible"
       id="marker14291-0-1-8-8-6"
       refX="0"
       refY="0"
       orient="auto"
       inkscape:stockid="Arrow1Lend">
      <path
         inkscape:connector-curvature="0"
         transform="matrix(-0.8,0,0,-0.8,-10,0)"
         style="fill:#808080;fill-opacity:1;fill-rule:evenodd;stroke:#808080;stroke-width:1.00000003pt;stroke-opacity:1"
         d="M 0,0 5,-5 -12.5,0 5,5 Z"
         id="path14289-3-0-6-4-7" />
    </marker>
    <marker
       inkscape:isstock="true"
       style="overflow:visible"
       id="marker14291-0-1-8-5"
       refX="0"
       refY="0"
       orient="auto"
       inkscape:stockid="Arrow1Lend">
      <path
         inkscape:connector-curvature="0"
         transform="matrix(-0.8,0,0,-0.8,-10,0)"
         style="fill:#808080;fill-opacity:1;fill-rule:evenodd;stroke:#808080;stroke-width:1.00000003pt;stroke-opacity:1"
         d="M 0,0 5,-5 -12.5,0 5,5 Z"
         id="path14289-3-0-6-3" />
    </marker>
    <marker
       inkscape:isstock="true"
       style="overflow:visible"
       id="marker14291-0-1-8-8-6-9"
       refX="0"
       refY="0"
       orient="auto"
       inkscape:stockid="Arrow1Lend">
      <path
         inkscape:connector-curvature="0"
         transform="matrix(-0.8,0,0,-0.8,-10,0)"
         style="fill:#808080;fill-opacity:1;fill-rule:evenodd;stroke:#808080;stroke-width:1.00000003pt;stroke-opacity:1"
         d="M 0,0 5,-5 -12.5,0 5,5 Z"
         id="path14289-3-0-6-4-7-2" />
    </marker>
  </defs>
  <sodipodi:namedview
     id="base"
     pagecolor="#ffffff"
     bordercolor="#666666"
     borderopacity="1.0"
     inkscape:pageopacity="0.0"
     inkscape:pageshadow="2"
     inkscape:zoom="1"
     inkscape:cx="493.46038"
     inkscape:cy="340.50023"
     inkscape:document-units="px"
     inkscape:current-layer="layer1"
     showgrid="false"
     units="px"
     inkscape:showpageshadow="false"
     inkscape:window-width="1920"
     inkscape:window-height="999"
     inkscape:window-x="0"
     inkscape:window-y="30"
     inkscape:window-maximized="1"
     scale-x="0.26458"
     viewbox-width="1024" />
  <metadata
     id="metadata4771">
    <rdf:RDF>
      <cc:Work
         rdf:about="">
        <dc:format>image/svg+xml</dc:format>
        <dc:type
           rdf:resource="http://purl.org/dc/dcmitype/StillImage" />
        <dc:title />
      </cc:Work>
    </rdf:RDF>
  </metadata>
  <g
     inkscape:groupmode="layer"
     id="layer3"
     inkscape:label="Layer 3"
     style="display:none" />
  <g
     inkscape:label="Layer 1"
     inkscape:groupmode="layer"
     id="layer1"
     transform="translate(0,-105.44165)">
    <g
       inkscape:groupmode="layer"
       id="layer2"
       inkscape:label="Layer 2"
       transform="translate(0,105.44165)"
       style="display:inline" />
    <rect
       style="fill:none;stroke:#87cdde;stroke-width:5.29963875;stroke-linecap:round;stroke-linejoin:round;stroke-miterlimit:4;stroke-dasharray:none;stroke-opacity:1"
       id="rect4776-2"
       width="418.69144"
       height="290.29446"
       x="371.0101"
       y="252.87999"
       ry="8.53477"
       rx="8.5347691" />
    <path
       style="fill:none;stroke:#e6e6e6;stroke-width:49.49417496;stroke-linecap:round;stroke-linejoin:round;stroke-miterlimit:4;stroke-dasharray:none;stroke-opacity:1"
       id="path5578"
       sodipodi:type="arc"
       sodipodi:cx="-617.78046"
       sodipodi:cy="302.44678"
       sodipodi:rx="88.186844"
       sodipodi:ry="88.153717"
       sodipodi:start="0.49011252"
       sodipodi:end="6.2265584"
       d="m -539.97498,343.94295 a 88.186844,88.153717 0 0 1 -108.32832,41.20893 88.186844,88.153717 0 0 1 -55.6007,-101.66254 88.186844,88.153717 0 0 1 93.17606,-68.91393 88.186844,88.153717 0 0 1 80.99297,82.88216"
       sodipodi:open="true"
       transform="matrix(-0.49076423,-0.87129241,0.86312457,-0.50499107,0,0)" />
    <text
       xml:space="preserve"
       style="font-style:normal;font-variant:normal;font-weight:normal;font-stretch:normal;font-size:13.33333302px;line-height:1.25;font-family:sans-serif;-inkscape-font-specification:'sans-serif, Normal';font-variant-ligatures:normal;font-variant-caps:normal;font-variant-numeric:normal;font-feature-settings:normal;text-align:start;letter-spacing:0px;word-spacing:0px;writing-mode:lr-tb;text-anchor:start;fill:#000000;fill-opacity:1;stroke:none;stroke-width:0.40036726"
       x="433.98499"
       y="405.99384"
       id="text5386-3-9-3-6"
       transform="scale(0.92372975,1.0825677)"><tspan
         sodipodi:role="line"
         id="tspan5384-5-1-6-1"
         x="433.98499"
         y="405.99384"
         style="font-style:normal;font-variant:normal;font-weight:normal;font-stretch:normal;font-size:13.33333302px;font-family:sans-serif;-inkscape-font-specification:'sans-serif, Normal';font-variant-ligatures:normal;font-variant-caps:normal;font-variant-numeric:normal;font-feature-settings:normal;text-align:start;writing-mode:lr-tb;text-anchor:start;stroke-width:0.40036726">fumarate</tspan></text>
    <text
       xml:space="preserve"
       style="font-style:normal;font-variant:normal;font-weight:normal;font-stretch:normal;font-size:13.33333302px;line-height:1.25;font-family:sans-serif;-inkscape-font-specification:'sans-serif, Normal';font-variant-ligatures:normal;font-variant-caps:normal;font-variant-numeric:normal;font-feature-settings:normal;text-align:start;letter-spacing:0px;word-spacing:0px;writing-mode:lr-tb;text-anchor:start;fill:#000000;fill-opacity:1;stroke:none;stroke-width:0.40036726"
       x="680.50922"
       y="259.23691"
       id="text5386-3-9-3-6-9"
       transform="scale(0.92372975,1.0825677)"><tspan
         sodipodi:role="line"
         id="tspan5384-5-1-6-1-2"
         x="680.50922"
         y="259.23691"
         style="font-style:normal;font-variant:normal;font-weight:normal;font-stretch:normal;font-size:13.33333302px;font-family:sans-serif;-inkscape-font-specification:'sans-serif, Normal';font-variant-ligatures:normal;font-variant-caps:normal;font-variant-numeric:normal;font-feature-settings:normal;text-align:start;writing-mode:lr-tb;text-anchor:start;stroke-width:0.40036726">citrate</tspan></text>
    <text
       xml:space="preserve"
       style="font-style:normal;font-variant:normal;font-weight:normal;font-stretch:normal;font-size:13.33333302px;line-height:1.25;font-family:sans-serif;-inkscape-font-specification:'sans-serif, Normal';font-variant-ligatures:normal;font-variant-caps:normal;font-variant-numeric:normal;font-feature-settings:normal;text-align:start;letter-spacing:0px;word-spacing:0px;writing-mode:lr-tb;text-anchor:start;fill:#000000;fill-opacity:1;stroke:none;stroke-width:0.40036726"
       x="435.43552"
       y="335.26938"
       id="text5386-3-9-3-6-0"
       transform="scale(0.92372975,1.0825677)"><tspan
         sodipodi:role="line"
         id="tspan5384-5-1-6-1-23"
         x="435.43552"
         y="335.26938"
         style="font-style:normal;font-variant:normal;font-weight:normal;font-stretch:normal;font-size:13.33333302px;font-family:sans-serif;-inkscape-font-specification:'sans-serif, Normal';font-variant-ligatures:normal;font-variant-caps:normal;font-variant-numeric:normal;font-feature-settings:normal;text-align:start;writing-mode:lr-tb;text-anchor:start;stroke-width:0.40036726">malate</tspan></text>
    <text
       xml:space="preserve"
       style="font-style:normal;font-weight:normal;font-size:23.2398262px;line-height:1.25;font-family:sans-serif;letter-spacing:0px;word-spacing:0px;fill:#808080;fill-opacity:1;stroke:none;stroke-width:0.58099568"
       x="682.40106"
       y="158.17488"
       id="text5323-8-5"
       transform="scale(1.0974084,0.91123778)"><tspan
         sodipodi:role="line"
         id="tspan5321-7-9"
         x="682.40106"
         y="158.17488"
         style="fill:#808080;stroke-width:0.58099568">Cellular respiration </tspan></text>
    <path
       style="fill:none;stroke:#000000;stroke-width:0.01859662;stroke-linecap:butt;stroke-linejoin:miter;stroke-miterlimit:4;stroke-dasharray:none;stroke-opacity:1;marker-mid:url(#marker10271)"
       d="m 574.41115,392.70701 c 56.94864,-73.12771 57.92939,-73.34272 57.92939,-73.34272"
       id="path10261"
       inkscape:connector-curvature="0" />
    <text
       xml:space="preserve"
       style="font-style:normal;font-variant:normal;font-weight:normal;font-stretch:normal;font-size:13.33333302px;line-height:1.25;font-family:sans-serif;-inkscape-font-specification:'sans-serif, Normal';font-variant-ligatures:normal;font-variant-caps:normal;font-variant-numeric:normal;font-feature-settings:normal;text-align:start;letter-spacing:0px;word-spacing:0px;writing-mode:lr-tb;text-anchor:start;fill:#000000;fill-opacity:1;stroke:none;stroke-width:0.40036726"
       x="697.62109"
       y="449.41669"
       id="text5386-3-9-3-6-3"
       transform="scale(0.92372975,1.0825677)"><tspan
         sodipodi:role="line"
         id="tspan5384-5-1-6-1-0"
         x="697.62109"
         y="449.41669"
         style="font-style:normal;font-variant:normal;font-weight:normal;font-stretch:normal;font-size:13.33333302px;font-family:sans-serif;-inkscape-font-specification:'sans-serif, Normal';font-variant-ligatures:normal;font-variant-caps:normal;font-variant-numeric:normal;font-feature-settings:normal;text-align:start;writing-mode:lr-tb;text-anchor:start;stroke-width:0.40036726">alpha-ketoglutarate</tspan></text>
    <path
       style="fill:none;fill-opacity:1;stroke:#c8beb7;stroke-width:16.44678497;stroke-linecap:round;stroke-linejoin:round;stroke-miterlimit:4;stroke-dasharray:none;stroke-opacity:1"
       id="path32457"
       sodipodi:type="arc"
       sodipodi:cx="-345.43668"
       sodipodi:cy="592.8623"
       sodipodi:rx="41.54192"
       sodipodi:ry="40.308411"
       sodipodi:start="0"
       sodipodi:end="4.7229991"
       sodipodi:open="true"
       d="m -303.89476,592.8623 a 41.54192,40.308411 0 0 1 -25.74637,37.28091 41.54192,40.308411 0 0 1 -45.32554,-8.93016 41.54192,40.308411 0 0 1 -8.72202,-44.07196 41.54192,40.308411 0 0 1 38.69277,-24.58493"
       transform="rotate(-85.724459)" />
    <path
       style="fill:#c8beb7;fill-opacity:1;stroke:none;stroke-width:8.031106;stroke-linecap:round;stroke-linejoin:round;stroke-miterlimit:4;stroke-dasharray:none;stroke-opacity:1"
       d="m 503.78524,382.02329 24.12888,-18.76465 18.67336,24.19561 -21.03018,-3.16919 z"
       id="rect32459"
       inkscape:connector-curvature="0"
       sodipodi:nodetypes="ccccc" />
    <rect
       style="fill:none;stroke:#b3b3b3;stroke-width:5.11511087;stroke-linecap:round;stroke-linejoin:round;stroke-miterlimit:4;stroke-dasharray:none;stroke-opacity:1"
       id="rect4776-2-2"
       width="1017.514"
       height="717.21259"
       x="3.4255955"
       y="109.39086"
       ry="8.53477"
       rx="8.5347691" />
    <text
       xml:space="preserve"
       style="font-style:normal;font-weight:normal;font-size:10.58333397px;line-height:1.25;font-family:sans-serif;letter-spacing:0px;word-spacing:0px;fill:#000000;fill-opacity:1;stroke:none;stroke-width:0.26458335"
       x="190.5"
       y="112.5854"
       id="text1713"><tspan
         sodipodi:role="line"
         id="tspan1711"
         x="190.5"
         y="121.94917"
         style="stroke-width:0.26458335" /></text>
    <rect
       style="fill:#000000;fill-opacity:0;stroke:#87cdde;stroke-width:6;stroke-linecap:round;stroke-linejoin:round;stroke-miterlimit:4;stroke-dasharray:none;stroke-opacity:1"
       id="rect4776-2-1-4"
       width="119.57381"
       height="78.882767"
       x="87.477234"
       y="462.0816"
       ry="8.53477"
       rx="8.5347691" />
    <text
       xml:space="preserve"
       style="font-style:normal;font-weight:normal;font-size:16.0146904px;line-height:1.25;font-family:sans-serif;letter-spacing:0px;word-spacing:0px;fill:#2c89a0;fill-opacity:1;stroke:none;stroke-width:0.40036726"
       x="237.0768"
       y="445.44513"
       id="text5386-3-9-3-6-9-4-5"
       transform="scale(0.92372975,1.0825677)"><tspan
         sodipodi:role="line"
         id="tspan5384-5-1-6-1-2-7-0"
         x="237.0768"
         y="445.44513"
         style="fill:#2c89a0;fill-opacity:1;stroke-width:0.40036726">pyruvate </tspan><tspan
         sodipodi:role="line"
         x="237.0768"
         y="465.4635"
         style="fill:#2c89a0;fill-opacity:1;stroke-width:0.40036726"
         id="tspan11272">oxidation</tspan></text>
    <text
       xml:space="preserve"
       style="font-style:normal;font-variant:normal;font-weight:normal;font-stretch:normal;font-size:13.33333302px;line-height:1.25;font-family:sans-serif;-inkscape-font-specification:'sans-serif, Normal';font-variant-ligatures:normal;font-variant-caps:normal;font-variant-numeric:normal;font-feature-settings:normal;text-align:start;letter-spacing:0px;word-spacing:0px;writing-mode:lr-tb;text-anchor:start;fill:#000000;fill-opacity:1;stroke:none;stroke-width:0.40036726"
       x="579.54492"
       y="481.94324"
       id="text5386-3-9-3-6-36"
       transform="scale(0.92372975,1.0825677)"><tspan
         sodipodi:role="line"
         id="tspan5384-5-1-6-1-1"
         x="579.54492"
         y="481.94324"
         style="font-style:normal;font-variant:normal;font-weight:normal;font-stretch:normal;font-size:13.33333302px;font-family:sans-serif;-inkscape-font-specification:'sans-serif, Normal';font-variant-ligatures:normal;font-variant-caps:normal;font-variant-numeric:normal;font-feature-settings:normal;text-align:start;writing-mode:lr-tb;text-anchor:start;stroke-width:0.40036726">succinate</tspan></text>
    <text
       xml:space="preserve"
       style="font-style:normal;font-variant:normal;font-weight:normal;font-stretch:normal;font-size:13.33333302px;line-height:1.25;font-family:sans-serif;-inkscape-font-specification:'sans-serif, Normal';font-variant-ligatures:normal;font-variant-caps:normal;font-variant-numeric:normal;font-feature-settings:normal;text-align:start;letter-spacing:0px;word-spacing:0px;writing-mode:lr-tb;text-anchor:start;fill:#000000;fill-opacity:1;stroke:none;stroke-width:0.40036726"
       x="442.0589"
       y="275.95145"
       id="text5386-3-9-3-6-06"
       transform="scale(0.92372975,1.0825677)"><tspan
         sodipodi:role="line"
         id="tspan5384-5-1-6-1-3"
         x="442.0589"
         y="275.95145"
         style="font-style:normal;font-variant:normal;font-weight:normal;font-stretch:normal;font-size:13.33333302px;font-family:sans-serif;-inkscape-font-specification:'sans-serif, Normal';font-variant-ligatures:normal;font-variant-caps:normal;font-variant-numeric:normal;font-feature-settings:normal;text-align:start;writing-mode:lr-tb;text-anchor:start;stroke-width:0.40036726">oxalacetate</tspan></text>
    <text
       xml:space="preserve"
       style="font-style:normal;font-weight:normal;font-size:13.33333331px;line-height:1.25;font-family:sans-serif;letter-spacing:0px;word-spacing:0px;fill:#000000;fill-opacity:1;stroke:none;stroke-width:0.37521535;-inkscape-font-specification:'sans-serif, Normal';font-stretch:normal;font-variant:normal;text-anchor:start;text-align:start;writing-mode:lr;font-variant-ligatures:normal;font-variant-caps:normal;font-variant-numeric:normal;font-feature-settings:normal;"
       x="-448.26453"
       y="160.15495"
       id="text5386-3-9-3-6-9-4-5-0"
       transform="matrix(0,-0.92427396,1.0819303,0,0,0)"><tspan
         sodipodi:role="line"
         id="tspan5384-5-1-6-1-2-7-0-6"
         x="-448.26453"
         y="160.15495"
         style="stroke-width:0.37521535;-inkscape-font-specification:'sans-serif, Normal';font-family:sans-serif;font-weight:normal;font-style:normal;font-stretch:normal;font-variant:normal;font-size:13.33333331px;text-anchor:start;text-align:start;writing-mode:lr;font-variant-ligatures:normal;font-variant-caps:normal;font-variant-numeric:normal;font-feature-settings:normal;">pyruvate</tspan></text>
    <text
       xml:space="preserve"
       style="font-style:normal;font-variant:normal;font-weight:normal;font-stretch:normal;font-size:13.33333302px;line-height:1.25;font-family:sans-serif;-inkscape-font-specification:'sans-serif, Normal';font-variant-ligatures:normal;font-variant-caps:normal;font-variant-numeric:normal;font-feature-settings:normal;text-align:start;letter-spacing:0px;word-spacing:0px;writing-mode:lr-tb;text-anchor:start;fill:#000000;fill-opacity:1;stroke:none;stroke-width:0.40036726"
       x="738.43671"
       y="339.68878"
       id="text5386-3-9-3-6-9-1"
       transform="scale(0.92372975,1.0825677)"><tspan
         sodipodi:role="line"
         id="tspan5384-5-1-6-1-2-5"
         x="738.43671"
         y="339.68878"
         style="font-style:normal;font-variant:normal;font-weight:normal;font-stretch:normal;font-size:13.33333302px;font-family:sans-serif;-inkscape-font-specification:'sans-serif, Normal';font-variant-ligatures:normal;font-variant-caps:normal;font-variant-numeric:normal;font-feature-settings:normal;text-align:start;writing-mode:lr-tb;text-anchor:start;stroke-width:0.40036726">D-isocitrate</tspan></text>
    <text
       xml:space="preserve"
       style="font-style:normal;font-weight:normal;font-size:16.0146904px;line-height:1.25;font-family:sans-serif;letter-spacing:0px;word-spacing:0px;fill:#2c89a0;fill-opacity:1;stroke:none;stroke-width:0.40036726"
       x="870.92694"
       y="252.22969"
       id="text5386-3-9-3-6-9-4-5-6"
       transform="scale(0.92372975,1.0825677)"><tspan
         sodipodi:role="line"
         id="tspan5384-5-1-6-1-2-7-0-8"
         x="870.92694"
         y="252.22969"
         style="fill:#2c89a0;fill-opacity:1;stroke-width:0.40036726">TCA cycle</tspan></text>
    <text
       xml:space="preserve"
       style="font-style:normal;font-weight:normal;font-size:16.0146904px;line-height:1.25;font-family:sans-serif;letter-spacing:0px;word-spacing:0px;fill:#2c89a0;fill-opacity:1;stroke:none;stroke-width:0.40036726"
       x="313.18976"
       y="677.30133"
       id="text5386-3-9-3-6-9-4-5-7"
       transform="scale(0.92372975,1.0825677)"><tspan
         sodipodi:role="line"
         id="tspan5384-5-1-6-1-2-7-0-9"
         x="313.18976"
         y="677.30133"
         style="fill:#2c89a0;fill-opacity:1;stroke-width:0.40036726">oxidative phosphorylation</tspan></text>
    <text
       xml:space="preserve"
       style="font-style:normal;font-weight:normal;font-size:16.0146904px;line-height:1.25;font-family:sans-serif;letter-spacing:0px;word-spacing:0px;fill:#666666;fill-opacity:1;stroke:none;stroke-width:0.40036726"
       x="64.948532"
       y="252.22969"
       id="text5386-3-9-3-6-9-4-0"
       transform="scale(0.92372975,1.0825677)"><tspan
         sodipodi:role="line"
         id="tspan5384-5-1-6-1-2-7-3"
         x="64.948532"
         y="252.22969"
         style="fill:#666666;stroke-width:0.40036726">glycolysis</tspan></text>
    <rect
       style="fill:none;stroke:#e6e6e6;stroke-width:4.69493008;stroke-linecap:round;stroke-linejoin:round;stroke-miterlimit:4;stroke-dasharray:none;stroke-opacity:1"
       id="rect4776-2-1-3"
       width="92.728065"
       height="62.587135"
       x="-345.30569"
       y="144.31442"
       ry="8.53477"
       rx="8.5347691"
       transform="rotate(-90)" />
    <rect
       style="fill:#d7eef4;fill-opacity:1;stroke:#4d4d4d;stroke-width:0;stroke-linecap:round;stroke-linejoin:round;stroke-miterlimit:4;stroke-dasharray:none;stroke-opacity:1"
       id="rect131"
       width="937"
       height="149"
       x="36"
       y="557.44165"
       rx="2.2573853"
       ry="32.257401" />
    <text
       xml:space="preserve"
       style="font-style:italic;font-variant:normal;font-weight:bold;font-stretch:normal;font-size:16.0146656px;line-height:1.25;font-family:sans-serif;-inkscape-font-specification:'sans-serif, Bold Italic';font-variant-ligatures:normal;font-variant-caps:normal;font-variant-numeric:normal;font-feature-settings:normal;text-align:start;letter-spacing:0px;word-spacing:0px;writing-mode:lr-tb;text-anchor:start;fill:#666666;fill-opacity:1;stroke:none;stroke-width:0.40036726"
       x="-767.526"
       y="795.62134"
       id="text5386-3-9-3"
       transform="matrix(-0.01581336,-0.92359436,1.0824091,-0.01853252,0,0)"><tspan
         sodipodi:role="line"
         id="tspan5384-5-1-6"
         x="-767.526"
         y="795.62134"
         style="font-style:italic;font-variant:normal;font-weight:bold;font-stretch:normal;font-size:16.0146656px;font-family:sans-serif;-inkscape-font-specification:'sans-serif, Bold Italic';font-variant-ligatures:normal;font-variant-caps:normal;font-variant-numeric:normal;font-feature-settings:normal;text-align:start;writing-mode:lr-tb;text-anchor:start;fill:#666666;stroke-width:0.40036726">ATP synthase</tspan></text>
    <rect
       style="fill:#e6e6e6;stroke:#808080;stroke-width:2.81222367;stroke-linecap:round;stroke-linejoin:round;stroke-miterlimit:4;stroke-dasharray:none;stroke-opacity:1"
       id="rect5382"
       width="150.4751"
       height="54.582249"
       x="-704.5639"
       y="-931.62933"
       rx="1.9201918"
       ry="8.534771"
       transform="matrix(-0.01711904,-0.99985346,-0.99985346,0.01711904,0,0)" />
    <ellipse
       style="fill:#e6e6e6;stroke:#4d4d4d;stroke-width:1.10782075;stroke-linecap:round;stroke-linejoin:round;stroke-miterlimit:4;stroke-dasharray:none;stroke-opacity:1"
       id="path5463"
       cx="-553.46606"
       cy="-928.59705"
       rx="34.382725"
       ry="16.8419"
       transform="matrix(-0.01711904,-0.99985346,-0.99985346,0.01711904,0,0)" />
    <ellipse
       style="fill:#e6e6e6;stroke:#4d4d4d;stroke-width:1.10782075;stroke-linecap:round;stroke-linejoin:round;stroke-miterlimit:4;stroke-dasharray:none;stroke-opacity:1"
       id="path5463-0"
       cx="-552.84344"
       cy="-905.85443"
       rx="34.382721"
       ry="16.8419"
       transform="matrix(-0.01711904,-0.99985346,-0.99985346,0.01711904,0,0)" />
    <ellipse
       style="fill:#e6e6e6;stroke:#4d4d4d;stroke-width:1.10782075;stroke-linecap:round;stroke-linejoin:round;stroke-miterlimit:4;stroke-dasharray:none;stroke-opacity:1"
       id="path5463-9"
       cx="-554.08881"
       cy="-878.56329"
       rx="34.382721"
       ry="16.8419"
       transform="matrix(-0.01711904,-0.99985346,-0.99985346,0.01711904,0,0)" />
    <g
       transform="matrix(1.1301732e-4,0.00660088,0.00659052,-1.1283997e-4,856.86284,675.66165)"
       id="g2431-2-9-3"
       style="fill:#e6e6e6;stroke:#999999;stroke-width:454.77526855;stroke-miterlimit:4;stroke-dasharray:none">
      <path
         d="m 4289,12758 c -59,-224 -229,-841 -231,-842 -2,-1 -48,-12 -103,-25 -55,-13 -154,-38 -219,-58 l -120,-34 -322,322 c -300,300 -324,322 -346,312 -20,-9 -1009,-581 -1015,-587 -1,-1 51,-200 115,-441 l 118,-439 -163,-163 c -90,-90 -168,-163 -173,-163 -6,0 -205,52 -442,115 -237,63 -432,114 -434,113 -9,-10 -594,-1022 -594,-1029 0,-4 145,-151 322,-327 l 322,-319 -37,-124 C 947,9001 921,8905 909,8855 877,8715 893,8729 719,8685 634,8664 439,8614 285,8575 L 5,8503 v -599 -599 l 220,-56 c 121,-31 315,-81 430,-110 116,-29 213,-55 217,-58 4,-3 25,-76 47,-161 21,-85 50,-190 64,-233 l 25,-77 -324,-317 C 506,6119 360,5973 360,5969 c 0,-8 577,-1007 590,-1022 4,-5 203,46 441,113 l 434,122 173,-173 173,-173 -117,-426 c -64,-234 -119,-430 -121,-436 -2,-6 214,-137 484,-294 268,-155 502,-291 519,-301 l 30,-18 314,322 c 173,177 319,323 326,325 6,2 70,-15 140,-36 71,-22 173,-50 226,-63 65,-15 99,-28 103,-38 2,-9 50,-189 105,-401 56,-212 105,-402 111,-422 l 10,-38 h 598 599 l 14,58 c 9,31 59,228 113,438 l 97,381 97,22 c 53,12 158,40 235,63 l 138,41 152,-154 c 83,-85 226,-231 318,-326 l 167,-171 518,299 c 404,233 517,303 515,317 -2,9 -39,144 -83,300 -43,155 -79,285 -79,289 0,4 72,-116 161,-265 l 160,-273 -34,-57 c -87,-144 -166,-329 -217,-508 l -32,-110 -291,-74 c -161,-40 -307,-78 -325,-82 l -32,-9 2,-347 3,-347 319,-81 c 263,-66 321,-84 327,-100 4,-10 21,-66 39,-124 42,-140 107,-292 180,-423 l 60,-108 -170,-286 -169,-287 230,-237 c 126,-130 236,-242 243,-249 12,-9 69,20 302,158 l 287,169 131,-68 c 153,-79 272,-127 434,-173 l 117,-34 80,-323 81,-324 h 349 349 l 81,324 80,323 116,33 c 155,45 280,95 430,172 l 126,65 292,-167 293,-167 35,33 c 19,19 129,131 243,250 l 209,216 -170,287 -169,288 35,59 c 79,129 183,378 221,527 18,69 20,73 54,82 19,5 167,45 327,87 l 293,78 v 347 348 l -22,5 c -13,4 -160,43 -327,88 l -305,82 -28,100 c -51,177 -125,350 -224,520 l -23,40 169,290 169,290 -242,243 c -148,149 -248,241 -257,239 -8,-2 -140,-76 -294,-165 l -278,-160 -48,29 c -135,83 -520,239 -590,239 -14,0 -22,11 -30,38 -5,20 -46,168 -89,327 l -78,290 -346,3 -345,2 -11,-32 c -5,-18 -42,-152 -81,-298 -39,-146 -75,-278 -80,-295 -9,-27 -17,-32 -80,-47 -140,-35 -383,-138 -540,-228 l -55,-32 -282,166 c -155,91 -285,166 -290,166 -4,0 -115,-107 -245,-237 -131,-130 -239,-235 -242,-232 -3,2 -18,52 -34,109 l -29,105 173,171 173,171 178,-49 c 564,-155 695,-190 698,-187 2,2 136,234 298,516 l 295,512 -211,208 c -117,114 -263,258 -324,318 l -113,110 30,95 c 17,52 46,155 65,229 19,74 37,136 39,139 3,3 200,57 438,121 l 433,117 v 598 598 l -430,115 c -236,64 -434,119 -438,122 -4,4 -25,73 -46,152 -21,79 -49,179 -62,222 l -23,78 322,322 322,322 -296,515 c -163,283 -298,516 -299,518 -1,1 -201,-52 -445,-118 l -443,-120 -165,165 -165,165 88,322 c 48,178 102,377 120,443 19,66 33,120 32,121 -9,8 -1031,594 -1035,594 -4,0 -151,-144 -328,-321 l -321,-321 -73,22 c -40,12 -138,37 -218,56 -80,18 -148,37 -152,41 -4,5 -55,188 -114,408 -59,220 -112,417 -118,438 l -11,37 h -598 -598 z"
         id="path2429-3-7-6"
         inkscape:connector-curvature="0"
         style="fill:#e6e6e6;stroke:#999999;stroke-width:454.77526855;stroke-miterlimit:4;stroke-dasharray:none" />
    </g>
    <rect
       style="fill:#e3dedb;fill-opacity:1;stroke:#999999;stroke-width:1.47571492;stroke-linecap:round;stroke-linejoin:round;stroke-miterlimit:4;stroke-dasharray:none;stroke-opacity:1"
       id="rect6162"
       width="102.21297"
       height="149.78009"
       x="708.15692"
       y="-707.29553"
       ry="8.534771"
       rx="6.1535211"
       transform="scale(1,-1)" />
    <rect
       style="fill:#e3dedb;fill-opacity:1;stroke:#999999;stroke-width:1.47571492;stroke-linecap:round;stroke-linejoin:round;stroke-miterlimit:4;stroke-dasharray:none;stroke-opacity:1"
       id="rect6162-3"
       width="102.21297"
       height="149.78009"
       x="545.89355"
       y="-705.33167"
       ry="8.534771"
       rx="6.1535211"
       transform="scale(1,-1)" />
    <rect
       style="fill:#e3dedb;fill-opacity:1;stroke:#999999;stroke-width:1.49529147;stroke-linecap:round;stroke-linejoin:round;stroke-miterlimit:4;stroke-dasharray:none;stroke-opacity:1"
       id="rect6162-3-6"
       width="101.81476"
       height="154.38181"
       x="411.09259"
       y="-618.13251"
       ry="8.534771"
       rx="6.1535211"
       transform="scale(1,-1)" />
    <rect
       style="fill:#e3dedb;fill-opacity:1;stroke:#999999;stroke-width:1.47571492;stroke-linecap:round;stroke-linejoin:round;stroke-miterlimit:4;stroke-dasharray:none;stroke-opacity:1"
       id="rect6162-3-7"
       width="102.21297"
       height="149.78009"
       x="181.52827"
       y="-707.22168"
       ry="8.534771"
       rx="6.1535211"
       transform="scale(1,-1)" />
    <text
       xml:space="preserve"
       style="font-style:italic;font-variant:normal;font-weight:bold;font-stretch:normal;font-size:16.0146656px;line-height:1.25;font-family:sans-serif;-inkscape-font-specification:'sans-serif, Bold Italic';font-variant-ligatures:normal;font-variant-caps:normal;font-variant-numeric:normal;font-feature-settings:normal;text-align:start;letter-spacing:0px;word-spacing:0px;writing-mode:lr-tb;text-anchor:start;fill:#666666;fill-opacity:1;stroke:none;stroke-width:0.40036726"
       x="-730.11169"
       y="371.68134"
       id="text5386-3-9-3-6-36-7"
       transform="matrix(0,-0.92372975,1.0825677,0,0,0)"><tspan
         sodipodi:role="line"
         id="tspan5384-5-1-6-1-1-6"
         x="-730.11169"
         y="371.68134"
         style="font-style:italic;font-variant:normal;font-weight:bold;font-stretch:normal;font-size:16.0146656px;font-family:sans-serif;-inkscape-font-specification:'sans-serif, Bold Italic';font-variant-ligatures:normal;font-variant-caps:normal;font-variant-numeric:normal;font-feature-settings:normal;text-align:start;writing-mode:lr-tb;text-anchor:start;fill:#666666;stroke-width:0.40036726">succinate-DH</tspan></text>
    <ellipse
       style="fill:#e3dedb;fill-opacity:1;stroke:#999999;stroke-width:2;stroke-linecap:round;stroke-linejoin:round;stroke-miterlimit:4;stroke-dasharray:none;stroke-opacity:1"
       id="path1134"
       cx="677.5"
       cy="694.44165"
       rx="21.5"
       ry="22" />
    <path
       style="fill:none;stroke:#000000;stroke-width:0.676139px;stroke-linecap:butt;stroke-linejoin:miter;stroke-opacity:1;marker-end:url(#marker8286)"
       d="m 182.97919,362.48902 c 1.02283,80.00624 1.02283,80.00624 1.02283,80.00624"
       id="path1136"
       inkscape:connector-curvature="0" />
    <text
       xml:space="preserve"
       style="font-style:italic;font-variant:normal;font-weight:bold;font-stretch:normal;font-size:16.0146656px;line-height:1.25;font-family:sans-serif;-inkscape-font-specification:'sans-serif, Bold Italic';font-variant-ligatures:normal;font-variant-caps:normal;font-variant-numeric:normal;font-feature-settings:normal;text-align:start;letter-spacing:0px;word-spacing:0px;writing-mode:lr-tb;text-anchor:start;fill:#666666;fill-opacity:1;stroke:none;stroke-width:0.40036726"
       x="-750.97766"
       y="157.62502"
       id="text5386-3-9-3-4-6-6"
       transform="matrix(0,-0.92372975,1.0825677,0,0,0)"><tspan
         sodipodi:role="line"
         id="tspan5384-5-1-6-7-5-9"
         x="-750.97766"
         y="157.62502"
         style="font-style:italic;font-variant:normal;font-weight:bold;font-stretch:normal;font-size:16.0146656px;font-family:sans-serif;-inkscape-font-specification:'sans-serif, Bold Italic';font-variant-ligatures:normal;font-variant-caps:normal;font-variant-numeric:normal;font-feature-settings:normal;text-align:start;writing-mode:lr-tb;text-anchor:start;fill:#666666;stroke-width:0.40036726">complex I</tspan></text>
    <text
       xml:space="preserve"
       style="font-style:italic;font-variant:normal;font-weight:bold;font-stretch:normal;font-size:16.0146656px;line-height:1.25;font-family:sans-serif;-inkscape-font-specification:'sans-serif, Bold Italic';font-variant-ligatures:normal;font-variant-caps:normal;font-variant-numeric:normal;font-feature-settings:normal;text-align:start;letter-spacing:0px;word-spacing:0px;writing-mode:lr-tb;text-anchor:start;fill:#666666;fill-opacity:1;stroke:none;stroke-width:0.40036726"
       x="-752.62164"
       y="495.36707"
       id="text5386-3-9-3-4-6"
       transform="matrix(0,-0.92372975,1.0825677,0,0,0)"><tspan
         sodipodi:role="line"
         id="tspan5384-5-1-6-7-5"
         x="-752.62164"
         y="495.36707"
         style="font-style:italic;font-variant:normal;font-weight:bold;font-stretch:normal;font-size:16.0146656px;font-family:sans-serif;-inkscape-font-specification:'sans-serif, Bold Italic';font-variant-ligatures:normal;font-variant-caps:normal;font-variant-numeric:normal;font-feature-settings:normal;text-align:start;writing-mode:lr-tb;text-anchor:start;fill:#666666;stroke-width:0.40036726">complex III</tspan></text>
    <text
       xml:space="preserve"
       style="font-style:italic;font-variant:normal;font-weight:bold;font-stretch:normal;font-size:16.0146656px;line-height:1.25;font-family:sans-serif;-inkscape-font-specification:'sans-serif, Bold Italic';font-variant-ligatures:normal;font-variant-caps:normal;font-variant-numeric:normal;font-feature-settings:normal;text-align:start;letter-spacing:0px;word-spacing:0px;writing-mode:lr-tb;text-anchor:start;fill:#666666;fill-opacity:1;stroke:none;stroke-width:0.40036726"
       x="-712.41064"
       y="646.11255"
       id="text5386-3-9-3-4"
       transform="matrix(0,-0.92372975,1.0825677,0,0,0)"><tspan
         sodipodi:role="line"
         id="tspan5384-5-1-6-7"
         x="-712.41064"
         y="646.11255"
         style="font-style:italic;font-variant:normal;font-weight:bold;font-stretch:normal;font-size:16.0146656px;font-family:sans-serif;-inkscape-font-specification:'sans-serif, Bold Italic';font-variant-ligatures:normal;font-variant-caps:normal;font-variant-numeric:normal;font-feature-settings:normal;text-align:start;writing-mode:lr-tb;text-anchor:start;fill:#666666;stroke-width:0.40036726">complex IV</tspan></text>
  </g>
</svg>
