<?xml version="1.0" encoding="UTF-8" standalone="no"?>
<!-- Created with Inkscape (http://www.inkscape.org/) -->

<svg
   xmlns:dc="http://purl.org/dc/elements/1.1/"
   xmlns:cc="http://creativecommons.org/ns#"
   xmlns:rdf="http://www.w3.org/1999/02/22-rdf-syntax-ns#"
   xmlns:svg="http://www.w3.org/2000/svg"
   xmlns="http://www.w3.org/2000/svg"
   xmlns:sodipodi="http://sodipodi.sourceforge.net/DTD/sodipodi-0.dtd"
   xmlns:inkscape="http://www.inkscape.org/namespaces/inkscape"
   width="1024"
   height="724"
   viewBox="0 0 1024 724"
   version="1.1"
   id="svg4774"
   inkscape:version="0.92.3 (2405546, 2018-03-11)"
   sodipodi:docname="M4_Nucleotide_metabolism_r1.11.svg">
  <defs
     id="defs4768">
    <marker
       inkscape:isstock="true"
       style="overflow:visible"
       id="marker8286"
       refX="0"
       refY="0"
       orient="auto"
       inkscape:stockid="Arrow1Lend">
      <path
         transform="matrix(-0.8,0,0,-0.8,-10,0)"
         style="fill:#000000;fill-opacity:1;fill-rule:evenodd;stroke:#000000;stroke-width:1.00000003pt;stroke-opacity:1"
         d="M 0,0 5,-5 -12.5,0 5,5 Z"
         id="path8284"
         inkscape:connector-curvature="0" />
    </marker>
    <marker
       inkscape:stockid="Arrow1Lend"
       orient="auto"
       refY="0"
       refX="0"
       id="marker23865"
       style="overflow:visible"
       inkscape:isstock="true">
      <path
         id="path23863"
         d="M 0,0 5,-5 -12.5,0 5,5 Z"
         style="fill:#ff0000;fill-opacity:1;fill-rule:evenodd;stroke:#ff0000;stroke-width:1.00000003pt;stroke-opacity:1"
         transform="matrix(-0.8,0,0,-0.8,-10,0)"
         inkscape:connector-curvature="0" />
    </marker>
    <marker
       inkscape:isstock="true"
       style="overflow:visible"
       id="marker14291"
       refX="0"
       refY="0"
       orient="auto"
       inkscape:stockid="Arrow1Lend">
      <path
         transform="matrix(-0.8,0,0,-0.8,-10,0)"
         style="fill:#808080;fill-opacity:1;fill-rule:evenodd;stroke:#808080;stroke-width:1.00000003pt;stroke-opacity:1"
         d="M 0,0 5,-5 -12.5,0 5,5 Z"
         id="path14289"
         inkscape:connector-curvature="0" />
    </marker>
    <marker
       inkscape:isstock="true"
       style="overflow:visible"
       id="marker9101"
       refX="0"
       refY="0"
       orient="auto"
       inkscape:stockid="Arrow1Lend">
      <path
         transform="matrix(-0.8,0,0,-0.8,-10,0)"
         style="fill:#000000;fill-opacity:1;fill-rule:evenodd;stroke:#000000;stroke-width:1.00000003pt;stroke-opacity:1"
         d="M 0,0 5,-5 -12.5,0 5,5 Z"
         id="path9099"
         inkscape:connector-curvature="0" />
    </marker>
    <marker
       inkscape:stockid="Arrow1Lstart"
       orient="auto"
       refY="0"
       refX="0"
       id="marker6058"
       style="overflow:visible"
       inkscape:isstock="true">
      <path
         id="path6056"
         d="M 0,0 5,-5 -12.5,0 5,5 Z"
         style="fill:#eeffaa;fill-opacity:1;fill-rule:evenodd;stroke:#eeffaa;stroke-width:1.00000003pt;stroke-opacity:1"
         transform="matrix(0.8,0,0,0.8,10,0)"
         inkscape:connector-curvature="0" />
    </marker>
    <marker
       inkscape:stockid="Arrow1Lstart"
       orient="auto"
       refY="0"
       refX="0"
       id="Arrow1Lstart"
       style="overflow:visible"
       inkscape:isstock="true">
      <path
         id="path5774"
         d="M 0,0 5,-5 -12.5,0 5,5 Z"
         style="fill:#eeffaa;fill-opacity:1;fill-rule:evenodd;stroke:#eeffaa;stroke-width:1.00000003pt;stroke-opacity:1"
         transform="matrix(0.8,0,0,0.8,10,0)"
         inkscape:connector-curvature="0" />
    </marker>
    <marker
       inkscape:stockid="Arrow1Lend"
       orient="auto"
       refY="0"
       refX="0"
       id="Arrow1Lend-9"
       style="overflow:visible"
       inkscape:isstock="true">
      <path
         inkscape:connector-curvature="0"
         id="path5777-3"
         d="M 0,0 5,-5 -12.5,0 5,5 Z"
         style="fill:#000000;fill-opacity:1;fill-rule:evenodd;stroke:#000000;stroke-width:1.00000003pt;stroke-opacity:1"
         transform="matrix(-0.8,0,0,-0.8,-10,0)" />
    </marker>
    <marker
       inkscape:stockid="Arrow1Lend"
       orient="auto"
       refY="0"
       refX="0"
       id="marker10349-9"
       style="overflow:visible"
       inkscape:isstock="true">
      <path
         inkscape:connector-curvature="0"
         id="path10347-4"
         d="M 0,0 5,-5 -12.5,0 5,5 Z"
         style="fill:#000000;fill-opacity:1;fill-rule:evenodd;stroke:#000000;stroke-width:1.00000003pt;stroke-opacity:1"
         transform="matrix(-0.8,0,0,-0.8,-10,0)" />
    </marker>
    <marker
       inkscape:stockid="Arrow1Lend"
       orient="auto"
       refY="0"
       refX="0"
       id="marker10349-9-8"
       style="overflow:visible"
       inkscape:isstock="true">
      <path
         inkscape:connector-curvature="0"
         id="path10347-4-4"
         d="M 0,0 5,-5 -12.5,0 5,5 Z"
         style="fill:#000000;fill-opacity:1;fill-rule:evenodd;stroke:#000000;stroke-width:1.00000003pt;stroke-opacity:1"
         transform="matrix(-0.8,0,0,-0.8,-10,0)" />
    </marker>
    <marker
       inkscape:isstock="true"
       style="overflow:visible"
       id="marker14291-0"
       refX="0"
       refY="0"
       orient="auto"
       inkscape:stockid="Arrow1Lend">
      <path
         inkscape:connector-curvature="0"
         transform="matrix(-0.8,0,0,-0.8,-10,0)"
         style="fill:#808080;fill-opacity:1;fill-rule:evenodd;stroke:#808080;stroke-width:1.00000003pt;stroke-opacity:1"
         d="M 0,0 5,-5 -12.5,0 5,5 Z"
         id="path14289-3" />
    </marker>
    <marker
       inkscape:isstock="true"
       style="overflow:visible"
       id="marker14291-0-1"
       refX="0"
       refY="0"
       orient="auto"
       inkscape:stockid="Arrow1Lend">
      <path
         inkscape:connector-curvature="0"
         transform="matrix(-0.8,0,0,-0.8,-10,0)"
         style="fill:#808080;fill-opacity:1;fill-rule:evenodd;stroke:#808080;stroke-width:1.00000003pt;stroke-opacity:1"
         d="M 0,0 5,-5 -12.5,0 5,5 Z"
         id="path14289-3-0" />
    </marker>
    <marker
       inkscape:isstock="true"
       style="overflow:visible"
       id="marker14291-6"
       refX="0"
       refY="0"
       orient="auto"
       inkscape:stockid="Arrow1Lend">
      <path
         inkscape:connector-curvature="0"
         transform="matrix(-0.8,0,0,-0.8,-10,0)"
         style="fill:#808080;fill-opacity:1;fill-rule:evenodd;stroke:#808080;stroke-width:1.00000003pt;stroke-opacity:1"
         d="M 0,0 5,-5 -12.5,0 5,5 Z"
         id="path14289-1" />
    </marker>
    <path
       style="fill:none;stroke:#000000;stroke-width:0.25382066px;stroke-linecap:butt;stroke-linejoin:miter;stroke-opacity:1"
       d="m 114.72717,225.19997 c 14.17625,11.05144 25.38435,7.53448 35.77392,0"
       id="path18963-7"
       inkscape:connector-curvature="0"
       sodipodi:nodetypes="cc" />
    <path
       style="fill:none;stroke:#000000;stroke-width:0.25382066px;stroke-linecap:butt;stroke-linejoin:miter;stroke-opacity:1"
       d="m 114.72717,225.19997 c 14.17625,11.05144 25.38435,7.53448 35.77392,0"
       id="path18963-5"
       inkscape:connector-curvature="0"
       sodipodi:nodetypes="cc" />
    <marker
       inkscape:isstock="true"
       style="overflow:visible"
       id="marker14291-0-1-8"
       refX="0"
       refY="0"
       orient="auto"
       inkscape:stockid="Arrow1Lend">
      <path
         inkscape:connector-curvature="0"
         transform="matrix(-0.8,0,0,-0.8,-10,0)"
         style="fill:#808080;fill-opacity:1;fill-rule:evenodd;stroke:#808080;stroke-width:1.00000003pt;stroke-opacity:1"
         d="M 0,0 5,-5 -12.5,0 5,5 Z"
         id="path14289-3-0-6" />
    </marker>
    <marker
       inkscape:isstock="true"
       style="overflow:visible"
       id="marker14291-0-1-8-8"
       refX="0"
       refY="0"
       orient="auto"
       inkscape:stockid="Arrow1Lend">
      <path
         inkscape:connector-curvature="0"
         transform="matrix(-0.8,0,0,-0.8,-10,0)"
         style="fill:#808080;fill-opacity:1;fill-rule:evenodd;stroke:#808080;stroke-width:1.00000003pt;stroke-opacity:1"
         d="M 0,0 5,-5 -12.5,0 5,5 Z"
         id="path14289-3-0-6-4" />
    </marker>
    <marker
       inkscape:isstock="true"
       style="overflow:visible"
       id="marker14291-0-14"
       refX="0"
       refY="0"
       orient="auto"
       inkscape:stockid="Arrow1Lend">
      <path
         inkscape:connector-curvature="0"
         transform="matrix(-0.8,0,0,-0.8,-10,0)"
         style="fill:#808080;fill-opacity:1;fill-rule:evenodd;stroke:#808080;stroke-width:1.00000003pt;stroke-opacity:1"
         d="M 0,0 5,-5 -12.5,0 5,5 Z"
         id="path14289-3-9" />
    </marker>
    <marker
       inkscape:isstock="true"
       style="overflow:visible"
       id="marker14291-0-1-8-0"
       refX="0"
       refY="0"
       orient="auto"
       inkscape:stockid="Arrow1Lend">
      <path
         inkscape:connector-curvature="0"
         transform="matrix(-0.8,0,0,-0.8,-10,0)"
         style="fill:#808080;fill-opacity:1;fill-rule:evenodd;stroke:#808080;stroke-width:1.00000003pt;stroke-opacity:1"
         d="M 0,0 5,-5 -12.5,0 5,5 Z"
         id="path14289-3-0-6-6" />
    </marker>
    <marker
       inkscape:isstock="true"
       style="overflow:visible"
       id="marker14291-0-1-8-9"
       refX="0"
       refY="0"
       orient="auto"
       inkscape:stockid="Arrow1Lend">
      <path
         inkscape:connector-curvature="0"
         transform="matrix(-0.8,0,0,-0.8,-10,0)"
         style="fill:#808080;fill-opacity:1;fill-rule:evenodd;stroke:#808080;stroke-width:1.00000003pt;stroke-opacity:1"
         d="M 0,0 5,-5 -12.5,0 5,5 Z"
         id="path14289-3-0-6-2" />
    </marker>
    <path
       style="fill:#ffffff;stroke:#ffffff;stroke-width:0.25519919px;stroke-linecap:butt;stroke-linejoin:miter;stroke-opacity:1"
       d="m 183.78126,115.78028 c 14.26406,10.85693 25.08316,6.78004 34.95223,-1.41513"
       id="path18963-4"
       inkscape:connector-curvature="0" />
    <path
       style="fill:#ffffff;stroke:#ffffff;stroke-width:0.25519919px;stroke-linecap:butt;stroke-linejoin:miter;stroke-opacity:1"
       d="m 183.78126,115.78028 c 14.26406,10.85693 25.08316,6.78004 34.95223,-1.41513"
       id="path18963-48"
       inkscape:connector-curvature="0" />
    <path
       style="fill:#ffffff;stroke:#ffffff;stroke-width:0.25519919px;stroke-linecap:butt;stroke-linejoin:miter;stroke-opacity:1"
       d="m 183.78126,115.78028 c 14.26406,10.85693 25.08316,6.78004 34.95223,-1.41513"
       id="path18963-2"
       inkscape:connector-curvature="0" />
    <path
       style="fill:#ffffff;stroke:#ffffff;stroke-width:0.25519919px;stroke-linecap:butt;stroke-linejoin:miter;stroke-opacity:1"
       d="m 183.78126,115.78028 c 14.26406,10.85693 25.08316,6.78004 34.95223,-1.41513"
       id="path18963-2-5"
       inkscape:connector-curvature="0" />
    <marker
       inkscape:isstock="true"
       style="overflow:visible"
       id="marker14291-0-1-8-8-6"
       refX="0"
       refY="0"
       orient="auto"
       inkscape:stockid="Arrow1Lend">
      <path
         inkscape:connector-curvature="0"
         transform="matrix(-0.8,0,0,-0.8,-10,0)"
         style="fill:#808080;fill-opacity:1;fill-rule:evenodd;stroke:#808080;stroke-width:1.00000003pt;stroke-opacity:1"
         d="M 0,0 5,-5 -12.5,0 5,5 Z"
         id="path14289-3-0-6-4-7" />
    </marker>
    <marker
       inkscape:isstock="true"
       style="overflow:visible"
       id="marker14291-0-1-8-5"
       refX="0"
       refY="0"
       orient="auto"
       inkscape:stockid="Arrow1Lend">
      <path
         inkscape:connector-curvature="0"
         transform="matrix(-0.8,0,0,-0.8,-10,0)"
         style="fill:#808080;fill-opacity:1;fill-rule:evenodd;stroke:#808080;stroke-width:1.00000003pt;stroke-opacity:1"
         d="M 0,0 5,-5 -12.5,0 5,5 Z"
         id="path14289-3-0-6-3" />
    </marker>
    <marker
       inkscape:isstock="true"
       style="overflow:visible"
       id="marker14291-0-1-8-8-6-9"
       refX="0"
       refY="0"
       orient="auto"
       inkscape:stockid="Arrow1Lend">
      <path
         inkscape:connector-curvature="0"
         transform="matrix(-0.8,0,0,-0.8,-10,0)"
         style="fill:#808080;fill-opacity:1;fill-rule:evenodd;stroke:#808080;stroke-width:1.00000003pt;stroke-opacity:1"
         d="M 0,0 5,-5 -12.5,0 5,5 Z"
         id="path14289-3-0-6-4-7-2" />
    </marker>
    <marker
       inkscape:isstock="true"
       style="overflow:visible"
       id="marker10271-5"
       refX="0"
       refY="0"
       orient="auto"
       inkscape:stockid="Arrow1Lend"
       inkscape:collect="always">
      <path
         transform="matrix(-0.8,0,0,-0.8,-10,0)"
         style="fill:#000000;fill-opacity:1;fill-rule:evenodd;stroke:#000000;stroke-width:1.00000003pt;stroke-opacity:1"
         d="M 0,0 5,-5 -12.5,0 5,5 Z"
         id="path10269-3"
         inkscape:connector-curvature="0" />
    </marker>
    <marker
       inkscape:isstock="true"
       style="overflow:visible"
       id="marker10271-5-7"
       refX="0"
       refY="0"
       orient="auto"
       inkscape:stockid="Arrow1Lend"
       inkscape:collect="always">
      <path
         transform="matrix(-0.8,0,0,-0.8,-10,0)"
         style="fill:#000000;fill-opacity:1;fill-rule:evenodd;stroke:#000000;stroke-width:1.00000003pt;stroke-opacity:1"
         d="M 0,0 5,-5 -12.5,0 5,5 Z"
         id="path10269-3-0"
         inkscape:connector-curvature="0" />
    </marker>
    <marker
       inkscape:isstock="true"
       style="overflow:visible"
       id="marker10271-5-7-2"
       refX="0"
       refY="0"
       orient="auto"
       inkscape:stockid="Arrow1Lend"
       inkscape:collect="always">
      <path
         transform="matrix(-0.8,0,0,-0.8,-10,0)"
         style="fill:#000000;fill-opacity:1;fill-rule:evenodd;stroke:#000000;stroke-width:1.00000003pt;stroke-opacity:1"
         d="M 0,0 5,-5 -12.5,0 5,5 Z"
         id="path10269-3-0-2"
         inkscape:connector-curvature="0" />
    </marker>
  </defs>
  <sodipodi:namedview
     id="base"
     pagecolor="#ffffff"
     bordercolor="#666666"
     borderopacity="1.0"
     inkscape:pageopacity="0.0"
     inkscape:pageshadow="2"
     inkscape:zoom="1"
     inkscape:cx="645.41129"
     inkscape:cy="360.61765"
     inkscape:document-units="px"
     inkscape:current-layer="layer1"
     showgrid="false"
     units="px"
     inkscape:showpageshadow="false"
     inkscape:window-width="1920"
     inkscape:window-height="1170"
     inkscape:window-x="1920"
     inkscape:window-y="0"
     inkscape:window-maximized="1"
     scale-x="0.26458"
     viewbox-width="1024" />
  <metadata
     id="metadata4771">
    <rdf:RDF>
      <cc:Work
         rdf:about="">
        <dc:format>image/svg+xml</dc:format>
        <dc:type
           rdf:resource="http://purl.org/dc/dcmitype/StillImage" />
        <dc:title></dc:title>
      </cc:Work>
    </rdf:RDF>
  </metadata>
  <g
     inkscape:groupmode="layer"
     id="layer3"
     inkscape:label="Layer 3"
     style="display:none" />
  <g
     inkscape:label="Layer 1"
     inkscape:groupmode="layer"
     id="layer1"
     transform="translate(0,-105.44165)">
    <g
       inkscape:groupmode="layer"
       id="layer2"
       inkscape:label="Layer 2"
       transform="translate(0,105.44165)"
       style="display:inline" />
    <text
       xml:space="preserve"
       style="font-style:normal;font-weight:normal;font-size:23.2398262px;line-height:1.25;font-family:sans-serif;letter-spacing:0px;word-spacing:0px;fill:#333333;fill-opacity:1;stroke:none;stroke-width:0.58099568;"
       x="628.638"
       y="161.4671"
       id="text5323-8-5"
       transform="scale(1.0974084,0.91123778)"><tspan
         sodipodi:role="line"
         id="tspan5321-7-9"
         x="628.638"
         y="161.4671"
         style="fill:#333333;stroke-width:0.58099568;">Nucleotide metabolism </tspan></text>
    <rect
       style="fill:none;stroke:#b3b3b3;stroke-width:5.11511087;stroke-linecap:round;stroke-linejoin:round;stroke-miterlimit:4;stroke-dasharray:none;stroke-opacity:1"
       id="rect4776-2-2"
       width="1017.514"
       height="717.21259"
       x="3.4255955"
       y="109.39086"
       ry="8.53477"
       rx="8.5347691" />
    <text
       xml:space="preserve"
       style="font-style:normal;font-weight:normal;font-size:10.58333397px;line-height:1.25;font-family:sans-serif;letter-spacing:0px;word-spacing:0px;fill:#000000;fill-opacity:1;stroke:none;stroke-width:0.26458335"
       x="190.5"
       y="112.5854"
       id="text1713"><tspan
         sodipodi:role="line"
         id="tspan1711"
         x="190.5"
         y="121.94917"
         style="stroke-width:0.26458335" /></text>
    <path
       sodipodi:nodetypes="csssssssc"
       inkscape:connector-curvature="0"
       id="rect4306-62-0-6-1-8-7-9-9-0-2"
       d="m 232.62764,285.26792 -0.16137,0.26952 c -6.58437,10.99691 -18.15912,21.72903 -18.15912,26.0534 v 44.27291 c 0,4.32434 3.5183,7.8057 7.88857,7.8057 h 20.55187 c 4.37024,0 7.88856,-3.48136 7.88856,-7.8057 v -44.27291 c 0,-4.32437 -9.67305,-14.76507 -18.00851,-26.32292 z"
       style="fill:none;fill-opacity:1;stroke:#808080;stroke-width:2.44374728;stroke-linecap:round;stroke-linejoin:round;stroke-miterlimit:4;stroke-dasharray:none;stroke-opacity:1" />
    <path
       sodipodi:nodetypes="csssssssc"
       inkscape:connector-curvature="0"
       id="rect4306-62-0-6-1-8-7-9-9-0-3-8"
       d="m 130.95435,449.80186 0.16137,-0.26952 c 6.58437,-10.99691 18.15912,-21.72903 18.15912,-26.0534 v -44.27291 c 0,-4.32434 -3.51829,-7.8057 -7.88857,-7.8057 H 120.8344 c -4.37023,0 -7.88855,3.48136 -7.88855,7.8057 v 44.27291 c 0,4.32437 9.67304,14.76507 18.0085,26.32292 z"
       style="fill:none;fill-opacity:1;stroke:#808080;stroke-width:2.44374728;stroke-linecap:round;stroke-linejoin:round;stroke-miterlimit:4;stroke-dasharray:none;stroke-opacity:1" />
    <text
       xml:space="preserve"
       style="font-style:normal;font-weight:normal;font-size:15.36607742px;line-height:1.25;font-family:sans-serif;letter-spacing:0px;word-spacing:0px;fill:#333333;fill-opacity:1;stroke:#b3b3b3;stroke-width:0.384152;"
       x="179.23087"
       y="204.00021"
       id="text5386-3-9-3-6-9-4-9-5-7-3-0-7-4-4"
       transform="scale(0.89247386,1.120481)"><tspan
         sodipodi:role="line"
         x="179.23087"
         y="204.00021"
         style="fill:#333333;stroke:#b3b3b3;stroke-width:0.384152;"
         id="tspan1222-6-6-9-7-5">de novo</tspan><tspan
         sodipodi:role="line"
         x="179.23087"
         y="223.20781"
         style="fill:#333333;stroke:#b3b3b3;stroke-width:0.384152;"
         id="tspan2256">biosynthesis</tspan></text>
    <path
       sodipodi:nodetypes="csssssssc"
       inkscape:connector-curvature="0"
       id="rect4306-62-0-6-1-8-7-9-9-0-3-8-0"
       d="m 130.26634,206.4004 -0.16137,0.26952 c -6.58437,10.99691 -18.15912,21.72903 -18.15912,26.0534 v 44.27291 c 0,4.32434 3.51829,7.8057 7.88857,7.8057 h 20.55187 c 4.37023,0 7.88855,-3.48136 7.88855,-7.8057 v -44.27291 c 0,-4.32437 -9.67304,-14.76507 -18.0085,-26.32292 z"
       style="fill:none;fill-opacity:1;stroke:#808080;stroke-width:2.44374728;stroke-linecap:round;stroke-linejoin:round;stroke-miterlimit:4;stroke-dasharray:none;stroke-opacity:1" />
    <text
       xml:space="preserve"
       style="font-style:normal;font-weight:normal;font-size:15.36607742px;line-height:1.25;font-family:sans-serif;letter-spacing:0px;word-spacing:0px;fill:#333333;fill-opacity:1;stroke:#b3b3b3;stroke-width:0.384152;"
       x="294.85922"
       y="317.62021"
       id="text5386-3-9-3-6-9-4-9-5-7-3-0-7-4-4-2"
       transform="scale(0.89247386,1.120481)"><tspan
         sodipodi:role="line"
         x="294.85922"
         y="317.62021"
         style="fill:#333333;stroke:#b3b3b3;stroke-width:0.384152;"
         id="tspan1222-6-6-9-7-5-0">salvage pathway</tspan></text>
    <rect
       style="fill:none;stroke:#e6e6e6;stroke-width:5.93890715;stroke-linecap:round;stroke-linejoin:round;stroke-miterlimit:4;stroke-dasharray:none;stroke-opacity:1"
       id="rect4776-2-1-0-7-2-6"
       width="403.74127"
       height="288.68939"
       x="91.101059"
       y="189.2558"
       ry="8.5313177"
       rx="8.8842764" />
    <text
       xml:space="preserve"
       style="font-style:normal;font-weight:normal;font-size:15.36607742px;line-height:1.25;font-family:sans-serif;letter-spacing:0px;word-spacing:0px;fill:#333333;fill-opacity:1;stroke:#b3b3b3;stroke-width:0.384152;"
       x="-271.69415"
       y="61.778408"
       id="text5386-3-9-3-6-9-4-9-5-7-3-9-1"
       transform="matrix(0,-0.89247386,1.120481,0,0,0)"><tspan
         sodipodi:role="line"
         x="-271.69415"
         y="61.778408"
         style="fill:#333333;stroke:#b3b3b3;stroke-width:0.384152;"
         id="tspan1222-6-3-5">purines</tspan></text>
    <path
       style="fill:none;stroke:#000000;stroke-width:0.0042076;stroke-linecap:butt;stroke-linejoin:miter;stroke-miterlimit:4;stroke-dasharray:none;stroke-opacity:1;marker-mid:url(#marker10271-5)"
       d="m 232.12933,340.874 c -11.93108,17.24615 -12.14987,17.30725 -12.14987,17.30725"
       id="path10261-6"
       inkscape:connector-curvature="0" />
    <path
       style="fill:none;fill-opacity:1;stroke:#999999;stroke-width:4.54336071;stroke-linecap:round;stroke-linejoin:round;stroke-miterlimit:4;stroke-dasharray:none;stroke-opacity:1"
       id="path32457-2"
       sodipodi:type="arc"
       sodipodi:cx="-393.69556"
       sodipodi:cy="132.08795"
       sodipodi:rx="11.475795"
       sodipodi:ry="11.135042"
       sodipodi:start="0"
       sodipodi:end="4.7229991"
       sodipodi:open="true"
       d="m -382.21976,132.08795 a 11.475795,11.135042 0 0 1 -7.11234,10.29871 11.475795,11.135042 0 0 1 -12.521,-2.46693 11.475795,11.135042 0 0 1 -2.40943,-12.1747 11.475795,11.135042 0 0 1 10.68873,-6.79149"
       transform="rotate(-105.59803)" />
    <path
       style="fill:#c8beb7;fill-opacity:1;stroke:#999999;stroke-width:2.21856189;stroke-linecap:round;stroke-linejoin:round;stroke-miterlimit:4;stroke-dasharray:none;stroke-opacity:1"
       d="m 216.73929,348.83593 4.02765,-7.4214 7.4057,4.05466 -5.67306,1.52745 z"
       id="rect32459-6"
       inkscape:connector-curvature="0"
       sodipodi:nodetypes="ccccc" />
    <text
       xml:space="preserve"
       style="font-style:normal;font-weight:normal;font-size:15.36607742px;line-height:1.25;font-family:sans-serif;letter-spacing:0px;word-spacing:0px;fill:#333333;fill-opacity:1;stroke:#b3b3b3;stroke-width:0.384152;"
       x="182.28311"
       y="376.14005"
       id="text5386-3-9-3-6-9-4-9-5-7-3-0-7-4-4-29"
       transform="scale(0.89247386,1.120481)"><tspan
         sodipodi:role="line"
         x="182.28311"
         y="376.14005"
         style="fill:#333333;stroke:#b3b3b3;stroke-width:0.384152;"
         id="tspan2256-2">degradation</tspan></text>
    <path
       sodipodi:nodetypes="csssssssc"
       inkscape:connector-curvature="0"
       id="rect4306-62-0-6-1-8-7-9-9-0-2-9"
       d="m 781.21926,287.13615 -0.16137,0.26952 c -6.58437,10.99691 -18.15912,21.72903 -18.15912,26.0534 v 44.27291 c 0,4.32434 3.5183,7.8057 7.88857,7.8057 h 20.55187 c 4.37024,0 7.88856,-3.48136 7.88856,-7.8057 v -44.27291 c 0,-4.32437 -9.67305,-14.76507 -18.00851,-26.32292 z"
       style="fill:none;fill-opacity:1;stroke:#808080;stroke-width:2.44374728;stroke-linecap:round;stroke-linejoin:round;stroke-miterlimit:4;stroke-dasharray:none;stroke-opacity:1" />
    <path
       sodipodi:nodetypes="csssssssc"
       inkscape:connector-curvature="0"
       id="rect4306-62-0-6-1-8-7-9-9-0-3-8-3"
       d="m 621.54597,451.67009 0.16137,-0.26952 c 6.58437,-10.99691 18.15912,-21.72903 18.15912,-26.0534 v -44.27291 c 0,-4.32434 -3.51829,-7.8057 -7.88857,-7.8057 h -20.55187 c -4.37023,0 -7.88855,3.48136 -7.88855,7.8057 v 44.27291 c 0,4.32437 9.67304,14.76507 18.0085,26.32292 z"
       style="fill:none;fill-opacity:1;stroke:#808080;stroke-width:2.44374728;stroke-linecap:round;stroke-linejoin:round;stroke-miterlimit:4;stroke-dasharray:none;stroke-opacity:1" />
    <text
       xml:space="preserve"
       style="font-style:normal;font-weight:normal;font-size:15.36607742px;line-height:1.25;font-family:sans-serif;letter-spacing:0px;word-spacing:0px;fill:#333333;fill-opacity:1;stroke:#b3b3b3;stroke-width:0.384152;"
       x="728.9295"
       y="205.66757"
       id="text5386-3-9-3-6-9-4-9-5-7-3-0-7-4-4-6"
       transform="scale(0.89247386,1.120481)"><tspan
         sodipodi:role="line"
         x="728.9295"
         y="205.66757"
         style="fill:#333333;stroke:#b3b3b3;stroke-width:0.384152;"
         id="tspan1222-6-6-9-7-5-06">de novo</tspan><tspan
         sodipodi:role="line"
         x="728.9295"
         y="224.87518"
         style="fill:#333333;stroke:#b3b3b3;stroke-width:0.384152;"
         id="tspan2256-26">biosynthesis</tspan></text>
    <path
       sodipodi:nodetypes="csssssssc"
       inkscape:connector-curvature="0"
       id="rect4306-62-0-6-1-8-7-9-9-0-3-8-0-1"
       d="m 620.85796,208.26863 -0.16137,0.26952 c -6.58437,10.99691 -18.15912,21.72903 -18.15912,26.0534 v 44.27291 c 0,4.32434 3.51829,7.8057 7.88857,7.8057 h 20.55187 c 4.37023,0 7.88855,-3.48136 7.88855,-7.8057 v -44.27291 c 0,-4.32437 -9.67304,-14.76507 -18.0085,-26.32292 z"
       style="fill:none;fill-opacity:1;stroke:#808080;stroke-width:2.44374728;stroke-linecap:round;stroke-linejoin:round;stroke-miterlimit:4;stroke-dasharray:none;stroke-opacity:1" />
    <text
       xml:space="preserve"
       style="font-style:normal;font-weight:normal;font-size:15.36607742px;line-height:1.25;font-family:sans-serif;letter-spacing:0px;word-spacing:0px;fill:#333333;fill-opacity:1;stroke:#b3b3b3;stroke-width:0.384152;"
       x="909.54572"
       y="319.28754"
       id="text5386-3-9-3-6-9-4-9-5-7-3-0-7-4-4-2-8"
       transform="scale(0.89247386,1.120481)"><tspan
         sodipodi:role="line"
         x="909.54572"
         y="319.28754"
         style="fill:#333333;stroke:#b3b3b3;stroke-width:0.384152;"
         id="tspan1222-6-6-9-7-5-0-7">salvage pathway</tspan></text>
    <rect
       style="fill:none;stroke:#e6e6e6;stroke-width:5.82209444;stroke-linecap:round;stroke-linejoin:round;stroke-miterlimit:4;stroke-dasharray:none;stroke-opacity:1"
       id="rect4776-2-1-0-7-2-6-9"
       width="387.85809"
       height="288.80621"
       x="581.63428"
       y="191.06563"
       ry="8.53477"
       rx="8.5347691" />
    <text
       xml:space="preserve"
       style="font-style:normal;font-weight:normal;font-size:15.36607742px;line-height:1.25;font-family:sans-serif;letter-spacing:0px;word-spacing:0px;fill:#333333;fill-opacity:1;stroke:#b3b3b3;stroke-width:0.384152;"
       x="-307.40192"
       y="497.83365"
       id="text5386-3-9-3-6-9-4-9-5-7-3-9-1-2"
       transform="matrix(0,-0.89247386,1.120481,0,0,0)"><tspan
         sodipodi:role="line"
         x="-307.40192"
         y="497.83365"
         style="fill:#333333;stroke:#b3b3b3;stroke-width:0.384152;"
         id="tspan1222-6-3-5-0">pyrimidines</tspan></text>
    <path
       style="fill:none;stroke:#000000;stroke-width:0.0042076;stroke-linecap:butt;stroke-linejoin:miter;stroke-miterlimit:4;stroke-dasharray:none;stroke-opacity:1;marker-mid:url(#marker10271-5-7)"
       d="m 780.72095,342.74223 c -11.93108,17.24615 -12.14987,17.30725 -12.14987,17.30725"
       id="path10261-6-2"
       inkscape:connector-curvature="0" />
    <path
       style="fill:none;fill-opacity:1;stroke:#999999;stroke-width:4.54336071;stroke-linecap:round;stroke-linejoin:round;stroke-miterlimit:4;stroke-dasharray:none;stroke-opacity:1"
       id="path32457-2-3"
       sodipodi:type="arc"
       sodipodi:cx="-543.00403"
       sodipodi:cy="659.97351"
       sodipodi:rx="11.475795"
       sodipodi:ry="11.135042"
       sodipodi:start="0"
       sodipodi:end="4.7229991"
       sodipodi:open="true"
       d="m -531.52823,659.97351 a 11.475795,11.135042 0 0 1 -7.11234,10.29871 11.475795,11.135042 0 0 1 -12.521,-2.46693 11.475795,11.135042 0 0 1 -2.40943,-12.1747 11.475795,11.135042 0 0 1 10.68873,-6.79149"
       transform="rotate(-105.59803)" />
    <path
       style="fill:#c8beb7;fill-opacity:1;stroke:#999999;stroke-width:2.21856189;stroke-linecap:round;stroke-linejoin:round;stroke-miterlimit:4;stroke-dasharray:none;stroke-opacity:1"
       d="m 765.33091,350.70416 4.02765,-7.4214 7.4057,4.05466 -5.67306,1.52745 z"
       id="rect32459-6-7"
       inkscape:connector-curvature="0"
       sodipodi:nodetypes="ccccc" />
    <text
       xml:space="preserve"
       style="font-style:normal;font-weight:normal;font-size:15.36607742px;line-height:1.25;font-family:sans-serif;letter-spacing:0px;word-spacing:0px;fill:#333333;fill-opacity:1;stroke:#b3b3b3;stroke-width:0.384152;"
       x="731.98175"
       y="377.8074"
       id="text5386-3-9-3-6-9-4-9-5-7-3-0-7-4-4-29-5"
       transform="scale(0.89247386,1.120481)"><tspan
         sodipodi:role="line"
         x="731.98175"
         y="377.8074"
         style="fill:#333333;stroke:#b3b3b3;stroke-width:0.384152;"
         id="tspan2256-2-9">degradation</tspan></text>
    <path
       sodipodi:nodetypes="csssssssc"
       inkscape:connector-curvature="0"
       id="rect4306-62-0-6-1-8-7-9-9-0-2-9-8"
       d="m 512.74762,601.10906 -0.16137,0.26952 c -6.58437,10.99691 -18.15912,21.72903 -18.15912,26.0534 v 44.27291 c 0,4.32434 3.5183,7.8057 7.88857,7.8057 h 20.55187 c 4.37024,0 7.88856,-3.48136 7.88856,-7.8057 v -44.27291 c 0,-4.32437 -9.67305,-14.76507 -18.00851,-26.32292 z"
       style="fill:none;fill-opacity:1;stroke:#808080;stroke-width:2.44374728;stroke-linecap:round;stroke-linejoin:round;stroke-miterlimit:4;stroke-dasharray:none;stroke-opacity:1" />
    <path
       sodipodi:nodetypes="csssssssc"
       inkscape:connector-curvature="0"
       id="rect4306-62-0-6-1-8-7-9-9-0-3-8-3-9"
       d="m 353.07433,765.643 0.16137,-0.26952 c 6.58437,-10.99691 18.15912,-21.72903 18.15912,-26.0534 v -44.27291 c 0,-4.32434 -3.51829,-7.8057 -7.88857,-7.8057 h -20.55187 c -4.37023,0 -7.88855,3.48136 -7.88855,7.8057 v 44.27291 c 0,4.32437 9.67304,14.76507 18.0085,26.32292 z"
       style="fill:none;fill-opacity:1;stroke:#808080;stroke-width:2.44374728;stroke-linecap:round;stroke-linejoin:round;stroke-miterlimit:4;stroke-dasharray:none;stroke-opacity:1" />
    <text
       xml:space="preserve"
       style="font-style:normal;font-weight:normal;font-size:15.36607742px;line-height:1.25;font-family:sans-serif;letter-spacing:0px;word-spacing:0px;fill:#333333;fill-opacity:1;stroke:#b3b3b3;stroke-width:0.384152;"
       x="433.12253"
       y="485.01187"
       id="text5386-3-9-3-6-9-4-9-5-7-3-0-7-4-4-6-7"
       transform="scale(0.89247386,1.120481)"><tspan
         sodipodi:role="line"
         x="433.12253"
         y="485.01187"
         style="fill:#333333;stroke:#b3b3b3;stroke-width:0.384152;"
         id="tspan1222-6-6-9-7-5-06-3">de novo</tspan><tspan
         sodipodi:role="line"
         x="433.12253"
         y="504.21948"
         style="fill:#333333;stroke:#b3b3b3;stroke-width:0.384152;"
         id="tspan2256-26-6">biosynthesis</tspan></text>
    <path
       sodipodi:nodetypes="csssssssc"
       inkscape:connector-curvature="0"
       id="rect4306-62-0-6-1-8-7-9-9-0-3-8-0-1-1"
       d="m 352.38632,522.24154 -0.16137,0.26952 c -6.58437,10.99691 -18.15912,21.72903 -18.15912,26.0534 v 44.27291 c 0,4.32434 3.51829,7.8057 7.88857,7.8057 h 20.55187 c 4.37023,0 7.88855,-3.48136 7.88855,-7.8057 v -44.27291 c 0,-4.32437 -9.67304,-14.76507 -18.0085,-26.32292 z"
       style="fill:none;fill-opacity:1;stroke:#808080;stroke-width:2.44374728;stroke-linecap:round;stroke-linejoin:round;stroke-miterlimit:4;stroke-dasharray:none;stroke-opacity:1" />
    <text
       xml:space="preserve"
       style="font-style:normal;font-weight:normal;font-size:15.36607742px;line-height:1.25;font-family:sans-serif;letter-spacing:0px;word-spacing:0px;fill:#333333;fill-opacity:1;stroke:#b3b3b3;stroke-width:0.384152;"
       x="608.72839"
       y="599.50018"
       id="text5386-3-9-3-6-9-4-9-5-7-3-0-7-4-4-2-8-2"
       transform="scale(0.89247386,1.120481)"><tspan
         sodipodi:role="line"
         x="608.72839"
         y="599.50018"
         style="fill:#333333;stroke:#b3b3b3;stroke-width:0.384152;"
         id="tspan1222-6-6-9-7-5-0-7-9">salvage pathway</tspan></text>
    <rect
       style="fill:none;stroke:#e6e6e6;stroke-width:5.82209444;stroke-linecap:round;stroke-linejoin:round;stroke-miterlimit:4;stroke-dasharray:none;stroke-opacity:1"
       id="rect4776-2-1-0-7-2-6-9-3"
       width="387.85809"
       height="288.80621"
       x="313.1626"
       y="505.03851"
       ry="8.53477"
       rx="8.5347691" />
    <text
       xml:space="preserve"
       style="font-style:normal;font-weight:normal;font-size:15.36607742px;line-height:1.25;font-family:sans-serif;letter-spacing:0px;word-spacing:0px;fill:#333333;fill-opacity:1;stroke:#b3b3b3;stroke-width:0.384152;"
       x="-709.62421"
       y="257.33725"
       id="text5386-3-9-3-6-9-4-9-5-7-3-9-1-2-1"
       transform="matrix(0,-0.89247386,1.120481,0,0,0)"><tspan
         sodipodi:role="line"
         x="-709.62421"
         y="257.33725"
         style="fill:#333333;stroke:#b3b3b3;stroke-width:0.384152;"
         id="tspan1222-6-3-5-0-9">deoxynucleotides</tspan></text>
    <path
       style="fill:none;stroke:#000000;stroke-width:0.0042076;stroke-linecap:butt;stroke-linejoin:miter;stroke-miterlimit:4;stroke-dasharray:none;stroke-opacity:1;marker-mid:url(#marker10271-5-7-2)"
       d="m 512.24931,656.71514 c -11.93108,17.24615 -12.14987,17.30725 -12.14987,17.30725"
       id="path10261-6-2-4"
       inkscape:connector-curvature="0" />
    <path
       style="fill:none;fill-opacity:1;stroke:#999999;stroke-width:4.54336071;stroke-linecap:round;stroke-linejoin:round;stroke-miterlimit:4;stroke-dasharray:none;stroke-opacity:1"
       id="path32457-2-3-7"
       sodipodi:type="arc"
       sodipodi:cx="-773.22534"
       sodipodi:cy="316.96606"
       sodipodi:rx="11.475795"
       sodipodi:ry="11.135042"
       sodipodi:start="0"
       sodipodi:end="4.7229991"
       sodipodi:open="true"
       d="m -761.74955,316.96606 a 11.475795,11.135042 0 0 1 -7.11233,10.29871 11.475795,11.135042 0 0 1 -12.52101,-2.46692 11.475795,11.135042 0 0 1 -2.40942,-12.17471 11.475795,11.135042 0 0 1 10.68873,-6.79149"
       transform="rotate(-105.59803)" />
    <path
       style="fill:#c8beb7;fill-opacity:1;stroke:#999999;stroke-width:2.21856189;stroke-linecap:round;stroke-linejoin:round;stroke-miterlimit:4;stroke-dasharray:none;stroke-opacity:1"
       d="m 496.85927,664.67707 4.02765,-7.4214 7.4057,4.05466 -5.67306,1.52745 z"
       id="rect32459-6-7-8"
       inkscape:connector-curvature="0"
       sodipodi:nodetypes="ccccc" />
    <text
       xml:space="preserve"
       style="font-style:normal;font-weight:normal;font-size:15.36607742px;line-height:1.25;font-family:sans-serif;letter-spacing:0px;word-spacing:0px;fill:#333333;fill-opacity:1;stroke:#b3b3b3;stroke-width:0.384152;"
       x="431.16437"
       y="658.02002"
       id="text5386-3-9-3-6-9-4-9-5-7-3-0-7-4-4-29-5-4"
       transform="scale(0.89247386,1.120481)"><tspan
         sodipodi:role="line"
         x="431.16437"
         y="658.02002"
         style="fill:#333333;stroke:#b3b3b3;stroke-width:0.384152;"
         id="tspan2256-2-9-5">degradation</tspan></text>
    <rect
       rx="8.5347681"
       ry="8.53477"
       y="-370.68253"
       x="396.52405"
       height="69.365067"
       width="39.83519"
       id="rect4776-2-1-0-6-2-7"
       style="fill:none;stroke:#808080;stroke-width:2.47357941;stroke-linecap:round;stroke-linejoin:round;stroke-miterlimit:4;stroke-dasharray:none;stroke-opacity:1"
       transform="rotate(90)" />
    <text
       xml:space="preserve"
       style="font-style:normal;font-weight:normal;font-size:15.36607742px;line-height:1.25;font-family:sans-serif;letter-spacing:0px;word-spacing:0px;fill:#333333;fill-opacity:1;stroke:#b3b3b3;stroke-width:0.384152;"
       x="400.13608"
       y="203.8578"
       id="text5386-3-9-3-6-9-4-9-5-7-3-0-7-4-4-7"
       transform="scale(0.89247386,1.120481)"><tspan
         sodipodi:role="line"
         x="400.13608"
         y="203.8578"
         style="fill:#333333;stroke:#b3b3b3;stroke-width:0.384152;"
         id="tspan1222-6-6-9-7-5-09">GMP</tspan><tspan
         sodipodi:role="line"
         x="400.13608"
         y="223.0654"
         style="fill:#333333;stroke:#b3b3b3;stroke-width:0.384152;"
         id="tspan2256-3">biosynthesis</tspan></text>
    <path
       sodipodi:nodetypes="csssssssc"
       inkscape:connector-curvature="0"
       id="rect4306-62-0-6-1-8-7-9-9-0-3-8-0-6"
       d="m 327.41848,206.24084 -0.16137,0.26952 c -6.58437,10.99691 -18.15912,21.72903 -18.15912,26.0534 v 44.27291 c 0,4.32434 3.51829,7.8057 7.88857,7.8057 h 20.55187 c 4.37023,0 7.88855,-3.48136 7.88855,-7.8057 v -44.27291 c 0,-4.32437 -9.67304,-14.76507 -18.0085,-26.32292 z"
       style="fill:none;fill-opacity:1;stroke:#808080;stroke-width:2.44374728;stroke-linecap:round;stroke-linejoin:round;stroke-miterlimit:4;stroke-dasharray:none;stroke-opacity:1" />
    <text
       xml:space="preserve"
       style="font-style:normal;font-weight:normal;font-size:15.36607742px;line-height:1.25;font-family:sans-serif;letter-spacing:0px;word-spacing:0px;fill:#333333;fill-opacity:1;stroke:#b3b3b3;stroke-width:0.384152;"
       x="430.99976"
       y="366.97772"
       id="text5386-3-9-3-6-9-4-9-5-7-3-0-7-4-4-2-0"
       transform="scale(0.89247386,1.120481)"><tspan
         sodipodi:role="line"
         x="430.99976"
         y="366.97772"
         style="fill:#333333;stroke:#b3b3b3;stroke-width:0.384152;"
         id="tspan1222-6-6-9-7-5-0-6">extracellular </tspan><tspan
         sodipodi:role="line"
         x="430.99976"
         y="386.18533"
         style="fill:#333333;stroke:#b3b3b3;stroke-width:0.384152;"
         id="tspan4240">ATP</tspan></text>
  </g>
</svg>
