<?xml version="1.0" encoding="UTF-8" standalone="no"?>
<svg
   xmlns:dc="http://purl.org/dc/elements/1.1/"
   xmlns:cc="http://creativecommons.org/ns#"
   xmlns:rdf="http://www.w3.org/1999/02/22-rdf-syntax-ns#"
   xmlns:svg="http://www.w3.org/2000/svg"
   xmlns="http://www.w3.org/2000/svg"
   xmlns:sodipodi="http://sodipodi.sourceforge.net/DTD/sodipodi-0.dtd"
   xmlns:inkscape="http://www.inkscape.org/namespaces/inkscape"
   viewBox="0 0 1600 1000"
   id="svg322"
   height="1000"
   width="1600"
   version="1.1"
   sodipodi:docname="tetrapyrrole.svg"
   inkscape:version="0.92.3 (2405546, 2018-03-11)">
  <sodipodi:namedview
     pagecolor="#ffffff"
     bordercolor="#666666"
     borderopacity="1"
     objecttolerance="10"
     gridtolerance="10"
     guidetolerance="10"
     inkscape:pageopacity="0"
     inkscape:pageshadow="2"
     inkscape:window-width="1910"
     inkscape:window-height="876"
     id="namedview165"
     showgrid="false"
     inkscape:zoom="0.7071068"
     inkscape:cx="176.61992"
     inkscape:cy="700.18673"
     inkscape:window-x="0"
     inkscape:window-y="0"
     inkscape:window-maximized="0"
     inkscape:current-layer="svg322"
     fit-margin-top="0"
     fit-margin-left="0"
     fit-margin-right="-0.1"
     fit-margin-bottom="0"
     showguides="false"
     inkscape:object-nodes="false" />
  <metadata
     id="metadata328">
    <rdf:RDF>
      <cc:Work
         rdf:about="">
        <dc:format>image/svg+xml</dc:format>
        <dc:type
           rdf:resource="http://purl.org/dc/dcmitype/StillImage" />
        <dc:title />
      </cc:Work>
    </rdf:RDF>
  </metadata>
  <defs
     id="defs326">
    <marker
       inkscape:stockid="Tail"
       orient="auto"
       refY="0.0"
       refX="0.0"
       id="Tail"
       style="overflow:visible"
       inkscape:isstock="true">
      <g
         id="g4737"
         transform="scale(-1.2)"
         style="stroke:#000000;stroke-opacity:1;fill:#000000;fill-opacity:1">
        <path
           id="path4725"
           d="M -3.8048674,-3.9585227 L 0.54352094,0"
           style="fill:#000000;fill-rule:evenodd;stroke:#000000;stroke-width:0.8;stroke-linecap:round;stroke-opacity:1;fill-opacity:1" />
        <path
           id="path4727"
           d="M -1.2866832,-3.9585227 L 3.0617053,0"
           style="fill:#000000;fill-rule:evenodd;stroke:#000000;stroke-width:0.8;stroke-linecap:round;stroke-opacity:1;fill-opacity:1" />
        <path
           id="path4729"
           d="M 1.3053582,-3.9585227 L 5.6537466,0"
           style="fill:#000000;fill-rule:evenodd;stroke:#000000;stroke-width:0.8;stroke-linecap:round;stroke-opacity:1;fill-opacity:1" />
        <path
           id="path4731"
           d="M -3.8048674,4.1775838 L 0.54352094,0.21974226"
           style="fill:#000000;fill-rule:evenodd;stroke:#000000;stroke-width:0.8;stroke-linecap:round;stroke-opacity:1;fill-opacity:1" />
        <path
           id="path4733"
           d="M -1.2866832,4.1775838 L 3.0617053,0.21974226"
           style="fill:#000000;fill-rule:evenodd;stroke:#000000;stroke-width:0.8;stroke-linecap:round;stroke-opacity:1;fill-opacity:1" />
        <path
           id="path4735"
           d="M 1.3053582,4.1775838 L 5.6537466,0.21974226"
           style="fill:#000000;fill-rule:evenodd;stroke:#000000;stroke-width:0.8;stroke-linecap:round;stroke-opacity:1;fill-opacity:1" />
      </g>
    </marker>
  </defs>
  <path
     id="path2"
     style="fill:#336699;fill-rule:evenodd;stroke-width:2"
     d="m 775.55149,18.529157 -0.72,0.2398 h -0.72 l -0.7194,0.2398 -0.72,0.2398 -0.4802,0.2404 -0.72,0.2398 -0.9598,0.9598 -0.9598,1.1996 -0.2398,0.4802 -0.4796,0.7194 -0.2404,0.4802 v 0.72 l -0.2398,0.7194 v 0.72 28.795 0.72 l 0.2398,0.72 v 0.72 l 0.2404,0.4796 0.4796,0.72 0.2398,0.4796 0.9598,1.2002 0.9598,0.7194 0.72,0.4802 0.4802,0.2398 0.72,0.2398 0.7194,0.2404 h 0.72 l 0.72,0.2398 h 136.7756 l 0.72,-0.2398 h 0.72 l 0.4796,-0.2404 0.72,-0.2398 0.72,-0.2398 0.4796,-0.4802 1.1996,-0.7194 0.72,-1.2002 0.4802,-0.4796 0.2398,-0.72 0.2398,-0.4796 0.24,-0.72 v -0.72 -0.72 -28.795 -0.72 -0.7194 l -0.24,-0.72 -0.2398,-0.4802 -0.2398,-0.7194 -0.4802,-0.4802 -0.72,-1.1996 -1.1996,-0.9598 -0.4796,-0.2398 -0.72,-0.2404 -0.72,-0.2398 -0.4796,-0.2398 h -0.72 l -0.72,-0.2398 z"
     inkscape:connector-curvature="0" />
  <path
     id="path4"
     style="fill:none;stroke:#000000;stroke-width:1.43939996;stroke-linecap:butt;stroke-linejoin:miter;stroke-dasharray:none"
     d="m 775.55149,18.529157 -0.72,0.2398 h -0.72 l -0.7194,0.2398 -0.72,0.2398 -0.4802,0.2404 -0.72,0.2398 -0.9598,0.9598 -0.9598,1.1996 -0.2398,0.4802 -0.4796,0.7194 -0.2404,0.4802 v 0.72 l -0.2398,0.7194 v 0.72 28.795 0.72 l 0.2398,0.72 v 0.72 l 0.2404,0.4796 0.4796,0.72 0.2398,0.4796 0.9598,1.2002 0.9598,0.7194 0.72,0.4802 0.4802,0.2398 0.72,0.2398 0.7194,0.2404 h 0.72 l 0.72,0.2398 h 136.7756 l 0.72,-0.2398 h 0.72 l 0.4796,-0.2404 0.72,-0.2398 0.72,-0.2398 0.4796,-0.4802 1.1996,-0.7194 0.72,-1.2002 0.4802,-0.4796 0.2398,-0.72 0.2398,-0.4796 0.24,-0.72 v -0.72 -0.72 -28.795 -0.72 -0.7194 l -0.24,-0.72 -0.2398,-0.4802 -0.2398,-0.7194 -0.4802,-0.4802 -0.72,-1.1996 -1.1996,-0.9598 -0.4796,-0.2398 -0.72,-0.2404 -0.72,-0.2398 -0.4796,-0.2398 h -0.72 l -0.72,-0.2398 z"
     inkscape:connector-curvature="0" />
  <text
     id="text8"
     y="47.563728"
     x="785.86945"
     style="font-size:24px;stroke-width:2">
    <tspan
       style="font-size:20px;font-family:Arial;fill:#ffffff;stroke-width:2"
       id="tspan6"
       font-size="10.0000">L</tspan>
  </text>
  <text
     id="text12"
     y="47.563728"
     x="798.1073"
     style="font-size:24px;stroke-width:2">
    <tspan
       style="font-size:20px;font-family:Arial;fill:#ffffff;stroke-width:2"
       id="tspan10"
       font-size="10.0000">-</tspan>
  </text>
  <text
     id="text16"
     y="47.805916"
     x="804.82587"
     style="font-size:24px;stroke-width:2">
    <tspan
       style="font-size:20px;font-family:Arial;fill:#ffffff;stroke-width:2"
       id="tspan14"
       font-size="10.0000">Glutamate</tspan>
  </text>
  <path
     id="path18"
     style="fill:#336699;fill-rule:evenodd;stroke-width:2"
     d="m 739.31809,120.51056 -0.72,0.2398 h -0.72 l -0.7196,0.2404 -0.72,0.2398 -0.48,0.2398 -0.72,0.2404 -0.9598,0.9598 -0.96,1.1996 -0.2398,0.4796 -0.4796,0.72 -0.2404,0.4802 v 0.7194 l -0.2398,0.72 v 0.72 28.795 0.72 l 0.2398,0.7194 v 0.72 l 0.2404,0.4802 0.4796,0.72 0.2398,0.4796 0.96,1.1996 0.9598,0.72 0.72,0.4802 0.48,0.2398 0.72,0.2398 0.7196,0.2398 h 0.72 l 0.72,0.2404 H 948.5607 l 0.72,-0.2404 h 0.72 l 0.4796,-0.2398 0.72,-0.2398 0.72,-0.2398 0.4796,-0.4802 1.1996,-0.72 0.72,-1.1996 0.4802,-0.4796 0.2398,-0.72 0.2398,-0.4802 0.2398,-0.72 v -0.7194 -0.72 -28.795 -0.72 -0.72 l -0.2398,-0.7194 -0.2398,-0.4802 -0.2398,-0.72 -0.4802,-0.4796 -0.72,-1.1996 -1.1996,-0.9598 -0.4796,-0.2404 -0.72,-0.2398 -0.72,-0.2398 -0.4796,-0.2404 h -0.72 l -0.72,-0.2398 z"
     inkscape:connector-curvature="0" />
  <path
     id="path20"
     style="fill:none;stroke:#000000;stroke-width:1.43939996;stroke-linecap:butt;stroke-linejoin:miter;stroke-dasharray:none"
     d="m 739.31809,120.51056 -0.72,0.2398 h -0.72 l -0.7196,0.2404 -0.72,0.2398 -0.48,0.2398 -0.72,0.2404 -0.9598,0.9598 -0.96,1.1996 -0.2398,0.4796 -0.4796,0.72 -0.2404,0.4802 v 0.7194 l -0.2398,0.72 v 0.72 28.795 0.72 l 0.2398,0.7194 v 0.72 l 0.2404,0.4802 0.4796,0.72 0.2398,0.4796 0.96,1.1996 0.9598,0.72 0.72,0.4802 0.48,0.2398 0.72,0.2398 0.7196,0.2398 h 0.72 l 0.72,0.2404 H 948.5607 l 0.72,-0.2404 h 0.72 l 0.4796,-0.2398 0.72,-0.2398 0.72,-0.2398 0.4796,-0.4802 1.1996,-0.72 0.72,-1.1996 0.4802,-0.4796 0.2398,-0.72 0.2398,-0.4802 0.2398,-0.72 v -0.7194 -0.72 -28.795 -0.72 -0.72 l -0.2398,-0.7194 -0.2398,-0.4802 -0.2398,-0.72 -0.4802,-0.4796 -0.72,-1.1996 -1.1996,-0.9598 -0.4796,-0.2404 -0.72,-0.2398 -0.72,-0.2398 -0.4796,-0.2404 h -0.72 l -0.72,-0.2398 z"
     inkscape:connector-curvature="0" />
  <text
     id="text24"
     y="153.73779"
     x="749.39606"
     style="font-size:24px;stroke-width:2">
    <tspan
       style="font-size:20px;font-family:Arial;fill:#ffffff;stroke-width:2"
       id="tspan22"
       font-size="10.0000">Glutamyl</tspan>
  </text>
  <text
     id="text28"
     y="149.54529"
     x="834.58069"
     style="font-size:24px;stroke-width:2">
    <tspan
       style="font-size:20px;font-family:Arial;fill:#ffffff;stroke-width:2"
       id="tspan26"
       font-size="10.0000">-</tspan>
  </text>
  <text
     id="text32"
     y="153.73779"
     x="841.29987"
     style="font-size:24px;stroke-width:2">
    <tspan
       style="font-size:20px;font-family:Arial;fill:#ffffff;stroke-width:2"
       id="tspan30"
       font-size="10.0000">tRNA(Glu</tspan>
  </text>
  <text
     id="text36"
     y="153.73779"
     x="931.28345"
     style="font-size:24px;stroke-width:2">
    <tspan
       style="font-size:20px;font-family:Arial;fill:#ffffff;stroke-width:2"
       id="tspan34"
       font-size="10.0000">)</tspan>
  </text>
  <path
     id="path38"
     style="fill:#336699;fill-rule:evenodd;stroke-width:2"
     d="m 731.63949,324.71436 -0.72,0.2398 h -0.72 l -0.72,0.2398 -0.7194,0.2404 -0.4802,0.2398 -0.72,0.2398 -0.9598,0.9598 -0.9598,1.1996 -0.2398,0.4802 -0.4802,0.72 -0.2398,0.4796 v 0.72 l -0.2398,0.72 v 0.72 28.795 0.7194 l 0.2398,0.72 v 0.72 l 0.2398,0.4796 0.4802,0.72 0.2398,0.4802 0.9598,1.1996 0.9598,0.9598 0.72,0.2398 0.4802,0.2404 0.7194,0.2398 0.72,0.2398 h 0.72 l 0.72,0.2398 H 956.4789 l 0.72,-0.2398 h 0.72 l 0.72,-0.2398 0.72,-0.2398 0.4796,-0.2404 0.72,-0.2398 0.96,-0.9598 0.9598,-1.1996 0.2398,-0.4802 0.2398,-0.72 0.2404,-0.4796 0.2398,-0.72 0.2398,-0.72 v -0.7194 -28.795 -0.72 l -0.2398,-0.72 -0.2398,-0.72 -0.2404,-0.4796 -0.2398,-0.72 -0.2398,-0.4802 -0.9598,-1.1996 -0.96,-0.9598 -0.72,-0.2398 -0.4796,-0.2398 -0.72,-0.2404 -0.72,-0.2398 h -0.72 l -0.72,-0.2398 z"
     inkscape:connector-curvature="0" />
  <path
     id="path40"
     style="fill:none;stroke:#000000;stroke-width:1.43939996;stroke-linecap:butt;stroke-linejoin:miter;stroke-dasharray:none"
     d="m 731.63949,324.71436 -0.72,0.2398 h -0.72 l -0.72,0.2398 -0.7194,0.2404 -0.4802,0.2398 -0.72,0.2398 -0.9598,0.9598 -0.9598,1.1996 -0.2398,0.4802 -0.4802,0.72 -0.2398,0.4796 v 0.72 l -0.2398,0.72 v 0.72 28.795 0.7194 l 0.2398,0.72 v 0.72 l 0.2398,0.4796 0.4802,0.72 0.2398,0.4802 0.9598,1.1996 0.9598,0.9598 0.72,0.2398 0.4802,0.2404 0.7194,0.2398 0.72,0.2398 h 0.72 l 0.72,0.2398 H 956.4789 l 0.72,-0.2398 h 0.72 l 0.72,-0.2398 0.72,-0.2398 0.4796,-0.2404 0.72,-0.2398 0.96,-0.9598 0.9598,-1.1996 0.2398,-0.4802 0.2398,-0.72 0.2404,-0.4796 0.2398,-0.72 0.2398,-0.72 v -0.7194 -28.795 -0.72 l -0.2398,-0.72 -0.2398,-0.72 -0.2404,-0.4796 -0.2398,-0.72 -0.2398,-0.4802 -0.9598,-1.1996 -0.96,-0.9598 -0.72,-0.2398 -0.4796,-0.2398 -0.72,-0.2404 -0.72,-0.2398 h -0.72 l -0.72,-0.2398 z"
     inkscape:connector-curvature="0" />
  <text
     id="text44"
     y="353.99133"
     x="741.71704"
     style="font-size:24px;stroke-width:2">
    <tspan
       style="font-size:20px;font-family:Arial;fill:#ffffff;stroke-width:2"
       id="tspan42"
       font-size="10.0000">5</tspan>
  </text>
  <text
     id="text48"
     y="353.74915"
     x="752.75525"
     style="font-size:24px;stroke-width:2">
    <tspan
       style="font-size:20px;font-family:Arial;fill:#ffffff;stroke-width:2"
       id="tspan46"
       font-size="10.0000">-</tspan>
  </text>
  <text
     id="text52"
     y="353.98169"
     x="759.71429"
     style="font-size:24px;stroke-width:2">
    <tspan
       style="font-size:20px;font-family:Arial;fill:#ffffff;stroke-width:2"
       id="tspan50"
       font-size="10.0000">Aminolevulinic acid</tspan>
  </text>
  <path
     id="path54"
     style="fill:#969696;fill-rule:evenodd;stroke:#969696;stroke-width:0.23980001;stroke-linecap:butt;stroke-linejoin:miter;stroke-dasharray:none"
     d="m 698.52529,963.00021 h -34.0742 v -5.9986 h 34.0742 z m -30.9544,5.9992 -17.9972,-9.1184 17.9972,-8.8783 z"
     inkscape:connector-curvature="0" />
  <path
     id="path56"
     style="fill:#336699;fill-rule:evenodd;stroke-width:2"
     d="m 754.67489,426.69636 -0.9598,0.2398 h -0.7194 l -0.4802,0.2398 -0.72,0.2398 -0.7194,0.2404 -0.4802,0.2398 -1.1996,0.9598 -0.72,1.1996 -0.4802,0.4802 -0.2398,0.7194 -0.2398,0.4802 -0.2398,0.72 v 0.72 0.7194 28.795 0.72 0.72 l 0.2398,0.72 0.2398,0.4796 0.2398,0.72 0.4802,0.4796 0.72,1.2002 1.1996,0.9598 0.4802,0.2398 0.7194,0.2398 0.72,0.2404 0.4802,0.2398 h 0.7194 l 0.9598,0.2398 h 178.7686 l 0.7194,-0.2398 h 0.72 l 0.72,-0.2398 0.72,-0.2404 0.4796,-0.2398 0.72,-0.2398 0.9598,-0.9598 0.9598,-1.2002 0.24,-0.4796 0.48001,-0.72 0.24,-0.4796 v -0.72 l 0.2398,-0.72 v -0.72 -28.795 -0.7194 l -0.2398,-0.72 v -0.72 l -0.24,-0.4802 -0.48001,-0.7194 -0.24,-0.4802 -0.9598,-1.1996 -0.9598,-0.9598 -0.72,-0.2398 -0.4796,-0.2404 -0.72,-0.2398 -0.72,-0.2398 h -0.72 l -0.7194,-0.2398 z"
     inkscape:connector-curvature="0" />
  <path
     id="path58"
     style="fill:none;stroke:#000000;stroke-width:1.43939996;stroke-linecap:butt;stroke-linejoin:miter;stroke-dasharray:none"
     d="m 754.67489,426.69636 -0.9598,0.2398 h -0.7194 l -0.4802,0.2398 -0.72,0.2398 -0.7194,0.2404 -0.4802,0.2398 -1.1996,0.9598 -0.72,1.1996 -0.4802,0.4802 -0.2398,0.7194 -0.2398,0.4802 -0.2398,0.72 v 0.72 0.7194 28.795 0.72 0.72 l 0.2398,0.72 0.2398,0.4796 0.2398,0.72 0.4802,0.4796 0.72,1.2002 1.1996,0.9598 0.4802,0.2398 0.7194,0.2398 0.72,0.2404 0.4802,0.2398 h 0.7194 l 0.9598,0.2398 h 178.7686 l 0.7194,-0.2398 h 0.72 l 0.72,-0.2398 0.72,-0.2404 0.4796,-0.2398 0.72,-0.2398 0.9598,-0.9598 0.9598,-1.2002 0.24,-0.4796 0.48001,-0.72 0.24,-0.4796 v -0.72 l 0.2398,-0.72 v -0.72 -28.795 -0.7194 l -0.2398,-0.72 v -0.72 l -0.24,-0.4802 -0.48001,-0.7194 -0.24,-0.4802 -0.9598,-1.1996 -0.9598,-0.9598 -0.72,-0.2398 -0.4796,-0.2404 -0.72,-0.2398 -0.72,-0.2398 h -0.72 l -0.7194,-0.2398 z"
     inkscape:connector-curvature="0" />
  <text
     id="text62"
     y="459.92371"
     x="764.75305"
     style="font-size:24px;stroke-width:2">
    <tspan
       style="font-size:20px;font-family:Arial;fill:#ffffff;stroke-width:2"
       id="tspan60"
       font-size="10.0000">Porphobilinogen</tspan>
  </text>
  <path
     id="path64"
     style="fill:#969696;fill-rule:evenodd;stroke:#969696;stroke-width:0.23980001;stroke-linecap:butt;stroke-linejoin:miter;stroke-dasharray:none"
     d="m 961.1202,955.8272 72.707,-0.2398 v 5.9985 l -72.707,0.2404 z m 69.5876,-6.2386 17.9966,8.8782 -17.9966,9.1184 z"
     inkscape:connector-curvature="0" />
  <path
     id="path66"
     style="fill:#336699;fill-rule:evenodd;stroke-width:2"
     d="m 707.88349,222.49256 -0.72,0.2398 h -0.7194 l -0.72,0.2398 -0.72,0.2404 -0.4802,0.2398 -0.7194,0.2398 -0.9598,0.9598 -0.9598,1.2002 -0.2404,0.4796 -0.4796,0.72 -0.2398,0.4796 v 0.72 l -0.2404,0.72 v 0.72 28.795 0.7194 l 0.2404,0.72 v 0.72 l 0.2398,0.4796 0.4796,0.72 0.2404,0.4802 0.9598,1.1996 0.9598,0.72 0.7194,0.4796 0.4802,0.2404 0.72,0.2398 0.72,0.2398 h 0.7194 l 0.72,0.2398 H 980.2349 l 0.72,-0.2398 h 0.72 l 0.7196,-0.2398 0.72,-0.2398 0.4802,-0.2404 0.7194,-0.4796 0.9598,-0.72 0.9598,-1.1996 0.2404,-0.4802 0.2398,-0.72 0.2398,-0.4796 0.2404,-0.72 v -0.72 l 0.2398,-0.7194 v -28.795 l -0.2398,-0.72 v -0.72 l -0.2404,-0.72 -0.2398,-0.4796 -0.2398,-0.72 -0.2404,-0.4796 -0.9598,-1.2002 -0.9598,-0.9598 -0.7194,-0.2398 -0.4802,-0.2398 -0.72,-0.2404 -0.7196,-0.2398 h -0.72 l -0.72,-0.2398 z"
     inkscape:connector-curvature="0" />
  <path
     id="path68"
     style="fill:none;stroke:#000000;stroke-width:1.43939996;stroke-linecap:butt;stroke-linejoin:miter;stroke-dasharray:none"
     d="m 707.88349,222.49256 -0.72,0.2398 h -0.7194 l -0.72,0.2398 -0.72,0.2404 -0.4802,0.2398 -0.7194,0.2398 -0.9598,0.9598 -0.9598,1.2002 -0.2404,0.4796 -0.4796,0.72 -0.2398,0.4796 v 0.72 l -0.2404,0.72 v 0.72 28.795 0.7194 l 0.2404,0.72 v 0.72 l 0.2398,0.4796 0.4796,0.72 0.2404,0.4802 0.9598,1.1996 0.9598,0.72 0.7194,0.4796 0.4802,0.2404 0.72,0.2398 0.72,0.2398 h 0.7194 l 0.72,0.2398 H 980.2349 l 0.72,-0.2398 h 0.72 l 0.7196,-0.2398 0.72,-0.2398 0.4802,-0.2404 0.7194,-0.4796 0.9598,-0.72 0.9598,-1.1996 0.2404,-0.4802 0.2398,-0.72 0.2398,-0.4796 0.2404,-0.72 v -0.72 l 0.2398,-0.7194 v -28.795 l -0.2398,-0.72 v -0.72 l -0.2404,-0.72 -0.2398,-0.4796 -0.2398,-0.72 -0.2404,-0.4796 -0.9598,-1.2002 -0.9598,-0.9598 -0.7194,-0.2398 -0.4802,-0.2398 -0.72,-0.2404 -0.7196,-0.2398 h -0.72 l -0.72,-0.2398 z"
     inkscape:connector-curvature="0" />
  <text
     id="text72"
     y="251.76929"
     x="717.96167"
     style="font-size:24px;stroke-width:2">
    <tspan
       style="font-size:20px;font-family:Arial;fill:#ffffff;stroke-width:2"
       id="tspan70"
       font-size="10.0000">Glutamate 1</tspan>
  </text>
  <text
     id="text76"
     y="251.52734"
     x="832.18146"
     style="font-size:24px;stroke-width:2">
    <tspan
       style="font-size:20px;font-family:Arial;fill:#ffffff;stroke-width:2"
       id="tspan74"
       font-size="10.0000">-</tspan>
  </text>
  <text
     id="text80"
     y="250.06287"
     x="841.72852"
     style="font-size:24px;stroke-width:2">
    <tspan
       style="font-size:20px;font-family:Arial;fill:#ffffff;stroke-width:2"
       id="tspan78"
       font-size="10.0000">semialdehyde</tspan>
  </text>
  <path
     id="path82"
     style="fill:#969696;fill-rule:evenodd;stroke:#969696;stroke-width:0.23980001;stroke-linecap:butt;stroke-linejoin:miter;stroke-dasharray:none"
     d="m 846.33889,175.22096 v 28.0748 h -5.9986 v -28.0748 z m 5.9986,25.1954 -8.878,17.9972 -9.1186,-17.9972 z"
     inkscape:connector-curvature="0" />
  <path
     id="path84"
     style="fill:#969696;fill-rule:evenodd;stroke:#969696;stroke-width:0.23980001;stroke-linecap:butt;stroke-linejoin:miter;stroke-dasharray:none"
     d="m 1384.3231,453.57096 55.91,-31.914 3.1192,5.2792 -56.1498,31.6742 z m 50.391,-35.7534 20.1566,-0.9598 -11.2786,16.797 z"
     inkscape:connector-curvature="0" />
  <path
     id="path86"
     style="fill:#336699;fill-rule:evenodd;stroke-width:2"
     d="m 724.44069,529.15796 h -0.9598 -0.72 l -0.4796,0.2398 -0.72,0.2398 -0.72,0.2404 -0.4802,0.4796 -1.1996,0.72 -0.72,1.1996 -0.4796,0.4802 -0.2398,0.7194 -0.2404,0.72 -0.2398,0.4802 v 0.72 0.7194 28.795 0.72 0.72 l 0.2398,0.72 0.2404,0.4796 0.2398,0.72 0.4796,0.4796 0.72,1.2002 1.1996,0.9598 0.4802,0.2398 0.72,0.2398 0.72,0.2398 0.4796,0.2404 h 0.72 l 0.9598,0.2398 H 963.6779 l 0.72,-0.2398 h 0.72 l 0.72,-0.2404 0.7194,-0.2398 0.4802,-0.2398 0.72,-0.2398 0.9598,-0.9598 0.9598,-1.2002 0.2398,-0.4796 0.4796,-0.72 0.2404,-0.4796 v -0.72 l 0.2398,-0.72 v -0.72 -28.795 -0.7194 l -0.2398,-0.72 v -0.4802 l -0.2404,-0.72 -0.4796,-0.7194 -0.2398,-0.4802 -0.9598,-1.1996 -0.9598,-0.72 -0.72,-0.4796 -0.4802,-0.2404 -0.7194,-0.2398 -0.72,-0.2398 h -0.72 -0.72 z"
     inkscape:connector-curvature="0" />
  <path
     id="path88"
     style="fill:none;stroke:#000000;stroke-width:1.43939996;stroke-linecap:butt;stroke-linejoin:miter;stroke-dasharray:none"
     d="m 724.44069,529.15796 h -0.9598 -0.72 l -0.4796,0.2398 -0.72,0.2398 -0.72,0.2404 -0.4802,0.4796 -1.1996,0.72 -0.72,1.1996 -0.4796,0.4802 -0.2398,0.7194 -0.2404,0.72 -0.2398,0.4802 v 0.72 0.7194 28.795 0.72 0.72 l 0.2398,0.72 0.2404,0.4796 0.2398,0.72 0.4796,0.4796 0.72,1.2002 1.1996,0.9598 0.4802,0.2398 0.72,0.2398 0.72,0.2398 0.4796,0.2404 h 0.72 l 0.9598,0.2398 H 963.6779 l 0.72,-0.2398 h 0.72 l 0.72,-0.2404 0.7194,-0.2398 0.4802,-0.2398 0.72,-0.2398 0.9598,-0.9598 0.9598,-1.2002 0.2398,-0.4796 0.4796,-0.72 0.2404,-0.4796 v -0.72 l 0.2398,-0.72 v -0.72 -28.795 -0.7194 l -0.2398,-0.72 v -0.4802 l -0.2404,-0.72 -0.4796,-0.7194 -0.2398,-0.4802 -0.9598,-1.1996 -0.9598,-0.72 -0.72,-0.4796 -0.4802,-0.2404 -0.7194,-0.2398 -0.72,-0.2398 h -0.72 -0.72 z"
     inkscape:connector-curvature="0" />
  <text
     id="text92"
     y="558.19238"
     x="734.51868"
     style="font-size:24px;stroke-width:2">
    <tspan
       style="font-size:20px;font-family:Arial;fill:#ffffff;stroke-width:2"
       id="tspan90"
       font-size="10.0000">1</tspan>
  </text>
  <text
     id="text96"
     y="558.19238"
     x="745.55688"
     style="font-size:24px;stroke-width:2">
    <tspan
       style="font-size:20px;font-family:Arial;fill:#ffffff;stroke-width:2"
       id="tspan94"
       font-size="10.0000">-</tspan>
  </text>
  <text
     id="text100"
     y="562.38477"
     x="752.27545"
     style="font-size:24px;stroke-width:2">
    <tspan
       style="font-size:20px;font-family:Arial;fill:#ffffff;stroke-width:2"
       id="tspan98"
       font-size="10.0000">Hydroxymethylbilane</tspan>
  </text>
  <path
     id="path102"
     style="fill:#336699;fill-rule:evenodd;stroke-width:2"
     d="m 735.23849,631.13936 h -0.7196 -0.72 l -0.4802,0.2404 -0.7194,0.2398 -0.72,0.2398 -0.4802,0.4802 -1.1996,0.72 -0.72,1.1996 -0.4796,0.4796 -0.2398,0.72 -0.2404,0.72 -0.2398,0.4796 v 0.72 0.72 28.795 0.72 0.7194 l 0.2398,0.72 0.2404,0.4802 0.2398,0.72 0.4796,0.4796 0.72,1.1996 1.1996,0.9598 0.4802,0.2404 0.72,0.2398 0.7194,0.2398 0.4802,0.2398 h 0.72 l 0.7196,0.2404 H 952.8801 l 0.7194,-0.2404 h 0.72 l 0.72,-0.2398 0.72,-0.2398 0.7194,-0.2398 0.4802,-0.2404 0.9598,-0.9598 0.9598,-1.1996 0.4802,-0.4796 0.2398,-0.72 0.2398,-0.4802 0.24,-0.72 v -0.7194 -0.72 -28.795 -0.72 -0.72 l -0.24,-0.4796 -0.2398,-0.72 -0.2398,-0.72 -0.4802,-0.4796 -0.9598,-1.1996 -0.9598,-0.72 -0.4802,-0.4802 -0.7194,-0.2398 -0.72,-0.2398 -0.72,-0.2404 h -0.72 -0.7194 z"
     inkscape:connector-curvature="0" />
  <path
     id="path104"
     style="fill:none;stroke:#000000;stroke-width:1.43939996;stroke-linecap:butt;stroke-linejoin:miter;stroke-dasharray:none"
     d="m 735.23849,631.13936 h -0.7196 -0.72 l -0.4802,0.2404 -0.7194,0.2398 -0.72,0.2398 -0.4802,0.4802 -1.1996,0.72 -0.72,1.1996 -0.4796,0.4796 -0.2398,0.72 -0.2404,0.72 -0.2398,0.4796 v 0.72 0.72 28.795 0.72 0.7194 l 0.2398,0.72 0.2404,0.4802 0.2398,0.72 0.4796,0.4796 0.72,1.1996 1.1996,0.9598 0.4802,0.2404 0.72,0.2398 0.7194,0.2398 0.4802,0.2398 h 0.72 l 0.7196,0.2404 H 952.8801 l 0.7194,-0.2404 h 0.72 l 0.72,-0.2398 0.72,-0.2398 0.7194,-0.2398 0.4802,-0.2404 0.9598,-0.9598 0.9598,-1.1996 0.4802,-0.4796 0.2398,-0.72 0.2398,-0.4802 0.24,-0.72 v -0.7194 -0.72 -28.795 -0.72 -0.72 l -0.24,-0.4796 -0.2398,-0.72 -0.2398,-0.72 -0.4802,-0.4796 -0.9598,-1.1996 -0.9598,-0.72 -0.4802,-0.4802 -0.7194,-0.2398 -0.72,-0.2398 -0.72,-0.2404 h -0.72 -0.7194 z"
     inkscape:connector-curvature="0" />
  <text
     id="text108"
     y="664.36694"
     x="745.55688"
     style="font-size:24px;stroke-width:2">
    <tspan
       style="font-size:20px;font-family:Arial;fill:#ffffff;stroke-width:2"
       id="tspan106"
       font-size="10.0000">Uroporphyrinogen</tspan>
  </text>
  <text
     id="text112"
     y="663.00269"
     x="919.1734"
     style="font-size:24px;stroke-width:2">
    <tspan
       style="font-size:20px;font-family:Arial;fill:#ffffff;stroke-width:2"
       id="tspan110"
       font-size="10.0000">III</tspan>
  </text>
  <path
     id="path114"
     style="fill:#336699;fill-rule:evenodd;stroke-width:2"
     d="m 723.00069,733.36116 h -0.7194 -0.72 l -0.72,0.2404 -0.4802,0.2398 -0.7194,0.2398 -0.4802,0.4802 -1.1996,0.72 -0.9598,1.1996 -0.2398,0.4796 -0.2404,0.72 -0.2398,0.72 -0.2398,0.4796 v 0.72 l -0.24,0.72 v 28.79505 l 0.24,0.72 v 0.7194 l 0.2398,0.72 0.2398,0.4802 0.2404,0.72 0.2398,0.7194 0.9598,0.9598 1.1996,0.9598 0.4802,0.2404 0.7194,0.2398 0.4802,0.2398 0.72,0.2398 h 0.72 l 0.7194,0.2404 H 965.1179 l 0.72,-0.2404 h 0.7194 l 0.72,-0.2398 0.72,-0.2398 0.72,-0.2398 0.4796,-0.2404 0.9598,-0.9598 0.9598,-0.9598 0.4802,-0.7194 0.2398,-0.72 0.2398,-0.4802 0.2404,-0.72 v -0.7194 -0.72 -28.79505 -0.72 -0.72 l -0.2404,-0.4796 -0.2398,-0.72 -0.2398,-0.72 -0.4802,-0.4796 -0.9598,-1.1996 -0.9598,-0.72 -0.4796,-0.4802 -0.72,-0.2398 -0.72,-0.2398 -0.72,-0.2404 h -0.7194 -0.72 z"
     inkscape:connector-curvature="0" />
  <path
     id="path116"
     style="fill:none;stroke:#000000;stroke-width:1.43939996;stroke-linecap:butt;stroke-linejoin:miter;stroke-dasharray:none"
     d="m 723.00069,733.36116 h -0.7194 -0.72 l -0.72,0.2404 -0.4802,0.2398 -0.7194,0.2398 -0.4802,0.4802 -1.1996,0.72 -0.9598,1.1996 -0.2398,0.4796 -0.2404,0.72 -0.2398,0.72 -0.2398,0.4796 v 0.72 l -0.24,0.72 v 28.79505 l 0.24,0.72 v 0.7194 l 0.2398,0.72 0.2398,0.4802 0.2404,0.72 0.2398,0.7194 0.9598,0.9598 1.1996,0.9598 0.4802,0.2404 0.7194,0.2398 0.4802,0.2398 0.72,0.2398 h 0.72 l 0.7194,0.2404 H 965.1179 l 0.72,-0.2404 h 0.7194 l 0.72,-0.2398 0.72,-0.2398 0.72,-0.2398 0.4796,-0.2404 0.9598,-0.9598 0.9598,-0.9598 0.4802,-0.7194 0.2398,-0.72 0.2398,-0.4802 0.2404,-0.72 v -0.7194 -0.72 -28.79505 -0.72 -0.72 l -0.2404,-0.4796 -0.2398,-0.72 -0.2398,-0.72 -0.4802,-0.4796 -0.9598,-1.1996 -0.9598,-0.72 -0.4796,-0.4802 -0.72,-0.2398 -0.72,-0.2398 -0.72,-0.2404 h -0.7194 -0.72 z"
     inkscape:connector-curvature="0" />
  <text
     id="text120"
     y="766.58875"
     x="733.31866"
     style="font-size:24px;stroke-width:2">
    <tspan
       style="font-size:20px;font-family:Arial;fill:#ffffff;stroke-width:2"
       id="tspan118"
       font-size="10.0000">Coproporphyrinogen</tspan>
  </text>
  <text
     id="text124"
     y="765.22467"
     x="928.58282"
     style="font-size:24px;stroke-width:2">
    <tspan
       style="font-size:20px;font-family:Arial;fill:#ffffff;stroke-width:2"
       id="tspan122"
       font-size="10.0000">III</tspan>
  </text>
  <path
     id="path126"
     style="fill:#336699;fill-rule:evenodd;stroke-width:2"
     d="m 746.84849,939.17621 h -0.7194 -0.72 l -0.72,0.2398 -0.72,0.2404 -0.7194,0.2398 -0.4802,0.4796 -0.9598,0.72 -0.9598,1.2002 -0.4802,0.4795 -0.2398,0.72 -0.2398,0.72 -0.2398,0.4796 v 0.72 0.72 28.7951 0.7193 0.72 l 0.2398,0.7201 0.2398,0.4795 0.2398,0.72 0.4802,0.72 0.9598,0.9599 0.9598,0.9598 0.4802,0.2398 0.7194,0.2404 0.72,0.2398 0.72,0.2398 h 0.72 l 0.7194,0.2398 h 189.8066 l 0.7196,-0.2398 h 0.72 l 0.72,-0.2398 0.72,-0.2398 0.47961,-0.2404 0.72,-0.2398 0.9598,-0.9598 0.9598,-0.9599 0.2398,-0.72 0.2404,-0.72 0.2398,-0.4795 0.2398,-0.7201 0.2398,-0.72 v -0.7193 -28.7951 -0.72 l -0.2398,-0.72 -0.2398,-0.4796 -0.2398,-0.72 -0.2404,-0.72 -0.2398,-0.4795 -0.9598,-1.2002 -0.9598,-0.72 -0.72,-0.4796 -0.47961,-0.2398 -0.72,-0.2404 -0.72,-0.2398 h -0.72 -0.7196 z"
     inkscape:connector-curvature="0" />
  <path
     id="path128"
     style="fill:none;stroke:#000000;stroke-width:1.43939996;stroke-linecap:butt;stroke-linejoin:miter;stroke-dasharray:none"
     d="m 746.84849,939.17621 h -0.7194 -0.72 l -0.72,0.2398 -0.72,0.2404 -0.7194,0.2398 -0.4802,0.4796 -0.9598,0.72 -0.9598,1.2002 -0.4802,0.4795 -0.2398,0.72 -0.2398,0.72 -0.2398,0.4796 v 0.72 0.72 28.7951 0.7193 0.72 l 0.2398,0.7201 0.2398,0.4795 0.2398,0.72 0.4802,0.72 0.9598,0.9599 0.9598,0.9598 0.4802,0.2398 0.7194,0.2404 0.72,0.2398 0.72,0.2398 h 0.72 l 0.7194,0.2398 h 189.8066 l 0.7196,-0.2398 h 0.72 l 0.72,-0.2398 0.72,-0.2398 0.47961,-0.2404 0.72,-0.2398 0.9598,-0.9598 0.9598,-0.9599 0.2398,-0.72 0.2404,-0.72 0.2398,-0.4795 0.2398,-0.7201 0.2398,-0.72 v -0.7193 -28.7951 -0.72 l -0.2398,-0.72 -0.2398,-0.4796 -0.2398,-0.72 -0.2404,-0.72 -0.2398,-0.4795 -0.9598,-1.2002 -0.9598,-0.72 -0.72,-0.4796 -0.47961,-0.2398 -0.72,-0.2404 -0.72,-0.2398 h -0.72 -0.7196 z"
     inkscape:connector-curvature="0" />
  <text
     id="text132"
     y="972.40332"
     x="756.9267"
     style="font-size:24px;stroke-width:2">
    <tspan
       style="font-size:20px;font-family:Arial;fill:#ffffff;stroke-width:2"
       id="tspan130"
       font-size="10.0000">Protoporphyrin</tspan>
  </text>
  <text
     id="text136"
     y="969.62488"
     x="899.13458"
     style="font-size:24px;stroke-width:2">
    <tspan
       style="font-size:20px;font-family:Arial;fill:#ffffff;stroke-width:2"
       id="tspan134"
       font-size="10.0000">IX</tspan>
  </text>
  <path
     id="path138"
     style="fill:#336699;fill-rule:evenodd;stroke-width:2"
     d="m 725.40049,836.03941 h -0.72 -0.72 l -0.7194,0.2398 -0.72,0.2402 -0.4802,0.24 -0.7194,0.4796 -0.9604,0.72 -0.9598,1.1995 -0.4796,0.4802 -0.2398,0.72 -0.2404,0.7201 -0.2398,0.4795 v 0.72 0.9599 28.555 0.7194 0.72 l 0.2398,0.72 0.2404,0.72 0.2398,0.4795 0.4796,0.7201 0.9598,0.9598 0.9604,0.96 0.7194,0.2398 0.4802,0.2402 0.72,0.24 0.7194,0.2398 0.72,0.2398 h 0.72 237.55741 0.72 l 0.72,-0.2398 0.72,-0.2398 0.72,-0.24 0.4796,-0.2402 0.72,-0.2398 0.9598,-0.96 0.9598,-0.9598 0.2398,-0.7201 0.2398,-0.4795 0.2404,-0.72 0.2398,-0.72 0.2398,-0.72 v -0.7194 -28.555 -0.9599 l -0.2398,-0.72 -0.2398,-0.4795 -0.2404,-0.7201 -0.2398,-0.72 -0.2398,-0.4802 -0.9598,-1.1995 -0.9598,-0.72 -0.72,-0.4796 -0.4796,-0.24 -0.72,-0.2402 -0.72,-0.2398 h -0.72 -0.72 z"
     inkscape:connector-curvature="0" />
  <path
     id="path140"
     style="fill:none;stroke:#000000;stroke-width:1.43939996;stroke-linecap:butt;stroke-linejoin:miter;stroke-dasharray:none"
     d="m 725.40049,836.03941 h -0.72 -0.72 l -0.7194,0.2398 -0.72,0.2402 -0.4802,0.24 -0.7194,0.4796 -0.9604,0.72 -0.9598,1.1995 -0.4796,0.4802 -0.2398,0.72 -0.2404,0.7201 -0.2398,0.4795 v 0.72 0.9599 28.555 0.7194 0.72 l 0.2398,0.72 0.2404,0.72 0.2398,0.4795 0.4796,0.7201 0.9598,0.9598 0.9604,0.96 0.7194,0.2398 0.4802,0.2402 0.72,0.24 0.7194,0.2398 0.72,0.2398 h 0.72 237.55741 0.72 l 0.72,-0.2398 0.72,-0.2398 0.72,-0.24 0.4796,-0.2402 0.72,-0.2398 0.9598,-0.96 0.9598,-0.9598 0.2398,-0.7201 0.2398,-0.4795 0.2404,-0.72 0.2398,-0.72 0.2398,-0.72 v -0.7194 -28.555 -0.9599 l -0.2398,-0.72 -0.2398,-0.4795 -0.2404,-0.7201 -0.2398,-0.72 -0.2398,-0.4802 -0.9598,-1.1995 -0.9598,-0.72 -0.72,-0.4796 -0.4796,-0.24 -0.72,-0.2402 -0.72,-0.2398 h -0.72 -0.72 z"
     inkscape:connector-curvature="0" />
  <text
     id="text144"
     y="869.26636"
     x="735.4787"
     style="font-size:24px;stroke-width:2">
    <tspan
       style="font-size:20px;font-family:Arial;fill:#ffffff;stroke-width:2"
       id="tspan142"
       font-size="10.0000">Protoporphyrinogen</tspan>
  </text>
  <text
     id="text148"
     y="867.90234"
     x="922.60938"
     style="font-size:24px;stroke-width:2">
    <tspan
       style="font-size:20px;font-family:Arial;fill:#ffffff;stroke-width:2"
       id="tspan146"
       font-size="10.0000">IX</tspan>
  </text>
  <path
     id="path150"
     style="fill:#336699;fill-rule:evenodd;stroke-width:2"
     d="m 1232.4299,469.64856 h -0.7194 -0.72 l -0.72,0.2398 -0.4802,0.2398 -0.7194,0.2404 -0.4802,0.4796 -1.1998,0.72 -0.7198,1.1996 -0.4798,0.4802 -0.2402,0.7194 -0.24,0.72 -0.2398,0.4802 v 0.7194 0.9604 28.5546 0.72 0.72 l 0.2398,0.72 0.24,0.7194 0.2402,0.4802 0.4798,0.72 0.7198,0.9598 1.1998,0.9598 0.4802,0.2398 0.7194,0.2398 0.4802,0.2398 0.72,0.2404 0.72,0.2398 h 0.7194 180.4478 0.72 l 0.72,-0.2398 0.72,-0.2404 0.72,-0.2398 0.4796,-0.2398 0.72,-0.2398 0.9598,-0.9598 0.9598,-0.9598 0.2398,-0.72 0.2398,-0.4802 0.2404,-0.7194 0.2398,-0.72 0.2398,-0.72 v -0.72 -28.5546 -0.9604 l -0.2398,-0.7194 -0.2398,-0.4802 -0.2404,-0.72 -0.2398,-0.7194 -0.2398,-0.4802 -0.9598,-1.1996 -0.9598,-0.72 -0.72,-0.4796 -0.4796,-0.2404 -0.72,-0.2398 -0.72,-0.2398 h -0.72 -0.72 z"
     inkscape:connector-curvature="0" />
  <path
     id="path152"
     style="fill:none;stroke:#000000;stroke-width:1.43939996;stroke-linecap:butt;stroke-linejoin:miter;stroke-dasharray:none"
     d="m 1232.4299,469.64856 h -0.7194 -0.72 l -0.72,0.2398 -0.4802,0.2398 -0.7194,0.2404 -0.4802,0.4796 -1.1998,0.72 -0.7198,1.1996 -0.4798,0.4802 -0.2402,0.7194 -0.24,0.72 -0.2398,0.4802 v 0.7194 0.9604 28.5546 0.72 0.72 l 0.2398,0.72 0.24,0.7194 0.2402,0.4802 0.4798,0.72 0.7198,0.9598 1.1998,0.9598 0.4802,0.2398 0.7194,0.2398 0.4802,0.2398 0.72,0.2404 0.72,0.2398 h 0.7194 180.4478 0.72 l 0.72,-0.2398 0.72,-0.2404 0.72,-0.2398 0.4796,-0.2398 0.72,-0.2398 0.9598,-0.9598 0.9598,-0.9598 0.2398,-0.72 0.2398,-0.4802 0.2404,-0.7194 0.2398,-0.72 0.2398,-0.72 v -0.72 -28.5546 -0.9604 l -0.2398,-0.7194 -0.2398,-0.4802 -0.2404,-0.72 -0.2398,-0.7194 -0.2398,-0.4802 -0.9598,-1.1996 -0.9598,-0.72 -0.72,-0.4796 -0.4796,-0.2404 -0.72,-0.2398 -0.72,-0.2398 h -0.72 -0.72 z"
     inkscape:connector-curvature="0" />
  <text
     id="text156"
     y="502.87524"
     x="1242.5083"
     style="font-size:24px;stroke-width:2">
    <tspan
       style="font-size:20px;font-family:Arial;fill:#ffffff;stroke-width:2"
       id="tspan154"
       font-size="10.0000">Sirohydrochlorin</tspan>
  </text>
  <path
     id="path158"
     style="fill:#336699;fill-rule:evenodd;stroke-width:2"
     d="m 1467.3481,367.90636 h -0.9598 -0.72 l -0.4796,0.2404 -0.72,0.2398 -0.72,0.2398 -0.4796,0.4802 -1.2002,0.7194 -0.7194,1.2002 -0.4802,0.4796 -0.2398,0.72 -0.2398,0.72 -0.2404,0.72 v 0.4796 0.9598 28.5552 0.72 0.7194 l 0.2404,0.72 0.2398,0.72 0.2398,0.4796 0.4802,0.72 0.7194,0.9598 1.2002,0.9598 0.4796,0.2404 0.72,0.2398 0.72,0.2398 0.4796,0.2398 0.72,0.2404 h 0.9598 110.8602 0.72 l 0.72,-0.2404 0.4796,-0.2398 0.72,-0.2398 0.72,-0.2398 0.4796,-0.2404 1.2002,-0.9598 0.7194,-0.9598 0.4802,-0.72 0.2398,-0.4796 0.2398,-0.72 0.2404,-0.72 v -0.7194 l 0.2398,-0.72 v -28.5552 l -0.2398,-0.9598 v -0.4796 l -0.2404,-0.72 -0.2398,-0.72 -0.2398,-0.72 -0.4802,-0.4796 -0.7194,-1.2002 -1.2002,-0.7194 -0.4796,-0.4802 -0.72,-0.2398 -0.72,-0.2398 -0.4796,-0.2404 h -0.72 -0.72 z"
     inkscape:connector-curvature="0" />
  <path
     id="path160"
     style="fill:none;stroke:#000000;stroke-width:1.43939996;stroke-linecap:butt;stroke-linejoin:miter;stroke-dasharray:none"
     d="m 1467.3481,367.90636 h -0.9598 -0.72 l -0.4796,0.2404 -0.72,0.2398 -0.72,0.2398 -0.4796,0.4802 -1.2002,0.7194 -0.7194,1.2002 -0.4802,0.4796 -0.2398,0.72 -0.2398,0.72 -0.2404,0.72 v 0.4796 0.9598 28.5552 0.72 0.7194 l 0.2404,0.72 0.2398,0.72 0.2398,0.4796 0.4802,0.72 0.7194,0.9598 1.2002,0.9598 0.4796,0.2404 0.72,0.2398 0.72,0.2398 0.4796,0.2398 0.72,0.2404 h 0.9598 110.8602 0.72 l 0.72,-0.2404 0.4796,-0.2398 0.72,-0.2398 0.72,-0.2398 0.4796,-0.2404 1.2002,-0.9598 0.7194,-0.9598 0.4802,-0.72 0.2398,-0.4796 0.2398,-0.72 0.2404,-0.72 v -0.7194 l 0.2398,-0.72 v -28.5552 l -0.2398,-0.9598 v -0.4796 l -0.2404,-0.72 -0.2398,-0.72 -0.2398,-0.72 -0.4802,-0.4796 -0.7194,-1.2002 -1.2002,-0.7194 -0.4796,-0.4802 -0.72,-0.2398 -0.72,-0.2398 -0.4796,-0.2404 h -0.72 -0.72 z"
     inkscape:connector-curvature="0" />
  <text
     id="text164"
     y="397.19409"
     x="1477.4268"
     style="font-size:24px;stroke-width:2">
    <tspan
       style="font-size:20px;font-family:Arial;fill:#ffffff;stroke-width:2"
       id="tspan162"
       font-size="10.0000">Siroheme</tspan>
  </text>
  <path
     id="path166"
     style="fill:#969696;fill-rule:evenodd;stroke:#969696;stroke-width:0.23980001;stroke-linecap:butt;stroke-linejoin:miter;stroke-dasharray:none"
     d="M 844.89889,70.839557 V 99.15436 h -5.9986 V 70.839557 Z m 5.9992,25.1956 -9.1184,17.996603 -8.8782,-17.996603 z"
     inkscape:connector-curvature="0" />
  <path
     id="path168"
     style="fill:#969696;fill-rule:evenodd;stroke:#969696;stroke-width:0.23980001;stroke-linecap:butt;stroke-linejoin:miter;stroke-dasharray:none"
     d="m 844.41929,271.68376 v 28.075 h -5.9992 v -28.075 z m 5.9986,25.1956 -9.1178,17.9964 -8.8788,-17.9964 z"
     inkscape:connector-curvature="0" />
  <path
     id="path170"
     style="fill:#969696;fill-rule:evenodd;stroke:#969696;stroke-width:0.23980001;stroke-linecap:butt;stroke-linejoin:miter;stroke-dasharray:none"
     d="m 842.73949,380.14416 v 28.0754 h -5.9988 v -28.0754 z m 5.9992,25.196 -9.1184,17.9966 -8.8788,-17.9966 z"
     inkscape:connector-curvature="0" />
  <path
     id="path172"
     style="fill:#969696;fill-rule:evenodd;stroke:#969696;stroke-width:0.23980001;stroke-linecap:butt;stroke-linejoin:miter;stroke-dasharray:none"
     d="m 840.58009,484.76576 v 28.3146 h -5.9994 v -28.3146 z m 5.9986,25.1954 -8.8782,17.9972 -9.1184,-17.9972 z"
     inkscape:connector-curvature="0" />
  <path
     id="path174"
     style="fill:#969696;fill-rule:evenodd;stroke:#969696;stroke-width:0.23980001;stroke-linecap:butt;stroke-linejoin:miter;stroke-dasharray:none"
     d="m 842.49969,579.30896 v 28.3148 h -5.9994 v -28.3148 z m 5.9986,25.1956 -9.118,17.9964 -8.8786,-17.9964 z"
     inkscape:connector-curvature="0" />
  <path
     id="path176"
     style="fill:#969696;fill-rule:evenodd;stroke:#969696;stroke-width:0.23980001;stroke-linecap:butt;stroke-linejoin:miter;stroke-dasharray:none"
     d="m 840.34029,685.84976 v 28.0754 h -5.9994 v -28.0754 z m 5.9986,25.1954 -8.8786,17.9972 -9.118,-17.9972 z"
     inkscape:connector-curvature="0" />
  <path
     id="path178"
     style="fill:#969696;fill-rule:evenodd;stroke:#969696;stroke-width:0.23980001;stroke-linecap:butt;stroke-linejoin:miter;stroke-dasharray:none"
     d="m 840.58009,788.55181 v 28.0748 h -5.9994 v -28.0748 z m 5.9986,25.1954 -8.8782,17.9966 -9.1184,-17.9966 z"
     inkscape:connector-curvature="0" />
  <path
     id="path180"
     style="fill:#969696;fill-rule:evenodd;stroke:#969696;stroke-width:0.23980001;stroke-linecap:butt;stroke-linejoin:miter;stroke-dasharray:none"
     d="m 842.73949,889.09361 v 28.075 h -5.9988 v -28.075 z m 5.9992,25.1956 -9.1184,17.9966 -8.8788,-17.9966 z"
     inkscape:connector-curvature="0" />
  <path
     id="path182"
     style="fill:#336699;fill-rule:evenodd;stroke-width:2"
     d="m 341.22909,933.96561 h -0.72 l -0.72,0.2398 h -0.72 l -0.7194,0.2404 -0.4802,0.4796 -0.72,0.2403 -0.9598,0.9599 -0.9598,0.9598 -0.4796,0.7194 -0.2404,0.4802 -0.2398,0.72 -0.2398,0.7194 v 0.72 0.72 28.555 0.7196 0.72 l 0.2398,0.72 0.2398,0.72 0.2404,0.72 0.4796,0.4796 0.9598,0.9598 0.9598,0.9598 0.72,0.4802 0.4802,0.2398 0.7194,0.2398 0.72,0.2398 h 0.72 0.72 273.3114 0.7194 0.72 l 0.72,-0.2398 0.72,-0.2398 0.4796,-0.2398 0.72,-0.4802 0.9598,-0.9598 0.9598,-0.9598 0.2398,-0.4796 0.2404,-0.72 0.2398,-0.72 0.2398,-0.72 0.2398,-0.72 v -0.7196 -28.555 -0.72 l -0.2398,-0.72 -0.2398,-0.7194 -0.2398,-0.72 -0.2404,-0.4802 -0.2398,-0.7194 -0.9598,-0.9598 -0.9598,-0.9599 -0.72,-0.2403 -0.4796,-0.4796 -0.72,-0.2404 h -0.72 l -0.72,-0.2398 h -0.7194 z"
     inkscape:connector-curvature="0" />
  <path
     id="path184"
     style="fill:none;stroke:#000000;stroke-width:1.43939996;stroke-linecap:butt;stroke-linejoin:miter;stroke-dasharray:none"
     d="m 341.22909,933.96561 h -0.72 l -0.72,0.2398 h -0.72 l -0.7194,0.2404 -0.4802,0.4796 -0.72,0.2403 -0.9598,0.9599 -0.9598,0.9598 -0.4796,0.7194 -0.2404,0.4802 -0.2398,0.72 -0.2398,0.7194 v 0.72 0.72 28.555 0.7196 0.72 l 0.2398,0.72 0.2398,0.72 0.2404,0.72 0.4796,0.4796 0.9598,0.9598 0.9598,0.9598 0.72,0.4802 0.4802,0.2398 0.7194,0.2398 0.72,0.2398 h 0.72 0.72 273.3114 0.7194 0.72 l 0.72,-0.2398 0.72,-0.2398 0.4796,-0.2398 0.72,-0.4802 0.9598,-0.9598 0.9598,-0.9598 0.2398,-0.4796 0.2404,-0.72 0.2398,-0.72 0.2398,-0.72 0.2398,-0.72 v -0.7196 -28.555 -0.72 l -0.2398,-0.72 -0.2398,-0.7194 -0.2398,-0.72 -0.2404,-0.4802 -0.2398,-0.7194 -0.9598,-0.9598 -0.9598,-0.9599 -0.72,-0.2403 -0.4796,-0.4796 -0.72,-0.2404 h -0.72 l -0.72,-0.2398 h -0.7194 z"
     inkscape:connector-curvature="0" />
  <text
     id="text188"
     y="967.1925"
     x="351.3075"
     style="font-size:24px;stroke-width:2">
    <tspan
       style="font-size:20px;font-family:Arial;fill:#ffffff;stroke-width:2"
       id="tspan186"
       font-size="10.0000">Mg</tspan>
  </text>
  <text
     id="text192"
     y="963.00012"
     x="380.58209"
     style="font-size:24px;stroke-width:2">
    <tspan
       style="font-size:20px;font-family:Arial;fill:#ffffff;stroke-width:2"
       id="tspan190"
       font-size="10.0000">-</tspan>
  </text>
  <text
     id="text196"
     y="967.1925"
     x="387.30069"
     style="font-size:24px;stroke-width:2">
    <tspan
       style="font-size:20px;font-family:Arial;fill:#ffffff;stroke-width:2"
       id="tspan194"
       font-size="10.0000">Protoporphyrinogen</tspan>
  </text>
  <text
     id="text200"
     y="967.2428"
     x="574.19116"
     style="font-size:24px;stroke-width:2">
    <tspan
       style="font-size:20px;font-family:Arial;fill:#ffffff;stroke-width:2"
       id="tspan198"
       font-size="10.0000">IX</tspan>
  </text>
  <path
     id="path202"
     style="fill:#336699;fill-rule:evenodd;stroke-width:2"
     d="m 305.47529,796.95021 h -1.1998 l -0.9598,0.2398 -1.1996,0.2398 -0.9598,0.4802 -1.2002,0.4796 -0.9598,0.4802 -0.72,0.72 -0.9598,0.7194 -0.7194,0.9598 -0.72,0.72 -0.4802,0.9598 -0.4796,1.2002 -0.4802,0.9598 -0.2398,1.1996 -0.2398,0.9598 v 1.1998 46.5516 0.9598 l 0.2398,1.2002 0.2398,1.1996 0.4802,0.9598 0.4796,1.1996 0.4802,0.72 0.72,0.9598 0.7194,0.9598 0.9598,0.72 0.72,0.72 0.9598,0.4796 1.2002,0.4802 0.9598,0.4796 1.1996,0.2398 0.9598,0.2404 h 1.1998 272.5912 1.2002 l 1.1996,-0.2404 0.9598,-0.2398 1.1996,-0.4796 0.9598,-0.4802 0.9598,-0.4796 0.9598,-0.72 0.72,-0.72 0.72,-0.9598 0.72,-0.9598 0.72,-0.72 0.4796,-1.1996 0.2398,-0.9598 0.2404,-1.1996 0.2398,-1.2002 v -0.9598 -46.5516 -1.1998 l -0.2398,-0.9598 -0.2404,-1.1996 -0.2398,-0.9598 -0.4796,-1.2002 -0.72,-0.9598 -0.72,-0.72 -0.72,-0.9598 -0.72,-0.7194 -0.9598,-0.72 -0.9598,-0.4802 -0.9598,-0.4796 -1.1996,-0.4802 -0.9598,-0.2398 -1.1996,-0.2398 h -1.2002 z"
     inkscape:connector-curvature="0" />
  <path
     id="path204"
     style="fill:none;stroke:#000000;stroke-width:1.43939996;stroke-linecap:butt;stroke-linejoin:miter;stroke-dasharray:none"
     d="m 305.47529,796.95021 h -1.1998 l -0.9598,0.2398 -1.1996,0.2398 -0.9598,0.4802 -1.2002,0.4796 -0.9598,0.4802 -0.72,0.72 -0.9598,0.7194 -0.7194,0.9598 -0.72,0.72 -0.4802,0.9598 -0.4796,1.2002 -0.4802,0.9598 -0.2398,1.1996 -0.2398,0.9598 v 1.1998 46.5516 0.9598 l 0.2398,1.2002 0.2398,1.1996 0.4802,0.9598 0.4796,1.1996 0.4802,0.72 0.72,0.9598 0.7194,0.9598 0.9598,0.72 0.72,0.72 0.9598,0.4796 1.2002,0.4802 0.9598,0.4796 1.1996,0.2398 0.9598,0.2404 h 1.1998 272.5912 1.2002 l 1.1996,-0.2404 0.9598,-0.2398 1.1996,-0.4796 0.9598,-0.4802 0.9598,-0.4796 0.9598,-0.72 0.72,-0.72 0.72,-0.9598 0.72,-0.9598 0.72,-0.72 0.4796,-1.1996 0.2398,-0.9598 0.2404,-1.1996 0.2398,-1.2002 v -0.9598 -46.5516 -1.1998 l -0.2398,-0.9598 -0.2404,-1.1996 -0.2398,-0.9598 -0.4796,-1.2002 -0.72,-0.9598 -0.72,-0.72 -0.72,-0.9598 -0.72,-0.7194 -0.9598,-0.72 -0.9598,-0.4802 -0.9598,-0.4796 -1.1996,-0.4802 -0.9598,-0.2398 -1.1996,-0.2398 h -1.2002 z"
     inkscape:connector-curvature="0" />
  <text
     id="text208"
     y="831.37671"
     x="312.6741"
     style="font-size:24px;stroke-width:2">
    <tspan
       style="font-size:20px;font-family:Arial;fill:#ffffff;stroke-width:2"
       id="tspan206"
       font-size="10.0000">Mg</tspan>
  </text>
  <text
     id="text212"
     y="827.18433"
     x="341.9487"
     style="font-size:24px;stroke-width:2">
    <tspan
       style="font-size:20px;font-family:Arial;fill:#ffffff;stroke-width:2"
       id="tspan210"
       font-size="10.0000">-</tspan>
  </text>
  <text
     id="text216"
     y="831.37671"
     x="348.66791"
     style="font-size:24px;stroke-width:2">
    <tspan
       style="font-size:20px;font-family:Arial;fill:#ffffff;stroke-width:2"
       id="tspan214"
       font-size="10.0000">Protoporphyrinogen</tspan>
  </text>
  <text
     id="text220"
     y="830.0127"
     x="529.90216"
     style="font-size:24px;stroke-width:2">
    <tspan
       style="font-size:20px;font-family:Arial;fill:#ffffff;stroke-width:2"
       id="tspan218"
       font-size="10.0000">IX</tspan>
  </text>
  <text
     id="text224"
     y="855.3728"
     x="358.74631"
     style="font-size:24px;stroke-width:2">
    <tspan
       style="font-size:20px;font-family:Arial;fill:#ffffff;stroke-width:2"
       id="tspan222"
       font-size="10.0000">monomethylester</tspan>
  </text>
  <path
     id="path226"
     style="fill:#336699;fill-rule:evenodd;stroke-width:2"
     d="m 202.17369,589.68036 -0.74,0.2398 h -0.7402 l -0.74,0.2398 -0.493,0.2398 -0.74,0.2404 -0.74,0.2398 -0.9866,0.9598 -0.9864,1.1996 -0.2466,0.4802 -0.2464,0.72 -0.2472,0.4796 -0.2464,0.72 -0.2466,0.72 v 0.7194 28.795 0.72 l 0.2466,0.72 0.2464,0.72 0.2472,0.4796 0.2464,0.72 0.2466,0.4802 0.9864,1.1996 0.9866,0.72 0.74,0.4796 0.74,0.2398 0.493,0.2404 0.74,0.2398 h 0.7402 l 0.74,0.2398 h 284.8658 l 0.7394,-0.2398 h 0.7402 l 0.74,-0.2398 0.74,-0.2404 0.493,-0.2398 0.74,-0.4796 0.9866,-0.72 0.9864,-1.1996 0.2466,-0.4802 0.4936,-0.72 0.2464,-0.4796 v -0.72 l 0.2464,-0.72 v -0.72 -28.795 -0.7194 l -0.2464,-0.72 v -0.72 l -0.2464,-0.4796 -0.4936,-0.72 -0.2466,-0.4802 -0.9864,-1.1996 -0.9866,-0.9598 -0.74,-0.2398 -0.493,-0.2404 -0.74,-0.2398 -0.74,-0.2398 h -0.7402 l -0.7394,-0.2398 z"
     inkscape:connector-curvature="0" />
  <path
     id="path228"
     style="fill:none;stroke:#000000;stroke-width:1.47959995;stroke-linecap:butt;stroke-linejoin:miter;stroke-dasharray:none"
     d="m 202.17369,589.68036 -0.74,0.2398 h -0.7402 l -0.74,0.2398 -0.493,0.2398 -0.74,0.2404 -0.74,0.2398 -0.9866,0.9598 -0.9864,1.1996 -0.2466,0.4802 -0.2464,0.72 -0.2472,0.4796 -0.2464,0.72 -0.2466,0.72 v 0.7194 28.795 0.72 l 0.2466,0.72 0.2464,0.72 0.2472,0.4796 0.2464,0.72 0.2466,0.4802 0.9864,1.1996 0.9866,0.72 0.74,0.4796 0.74,0.2398 0.493,0.2404 0.74,0.2398 h 0.7402 l 0.74,0.2398 h 284.8658 l 0.7394,-0.2398 h 0.7402 l 0.74,-0.2398 0.74,-0.2404 0.493,-0.2398 0.74,-0.4796 0.9866,-0.72 0.9864,-1.1996 0.2466,-0.4802 0.4936,-0.72 0.2464,-0.4796 v -0.72 l 0.2466,-0.72 v -0.72 -28.795 -0.7194 l -0.2466,-0.72 v -0.72 l -0.2464,-0.4796 -0.4936,-0.72 -0.2466,-0.4802 -0.9864,-1.1996 -0.9866,-0.9598 -0.74,-0.2398 -0.493,-0.2404 -0.74,-0.2398 -0.74,-0.2398 h -0.7402 l -0.7394,-0.2398 z"
     inkscape:connector-curvature="0" />
  <text
     id="text232"
     y="624.34949"
     x="197.86868"
     style="font-size:24px;stroke-width:2">
    <tspan
       style="font-size:20px;font-family:Arial;fill:#ffffff;stroke-width:2"
       id="tspan230"
       font-size="10.0000">Monovinylprotochlorphyllide a</tspan>
  </text>
  <path
     id="path234"
     style="fill:#336699;fill-rule:evenodd;stroke-width:2"
     d="m 150.68089,495.89116 -0.72,0.2402 h -0.72 l -0.72,0.2398 -0.7194,0.24 -0.4802,0.2398 -0.72,0.2402 -0.9598,0.96 -0.9598,1.1996 -0.2398,0.4796 -0.4802,0.72 -0.2398,0.4802 v 0.7194 l -0.2398,0.72 v 0.72 28.7948 0.72 l 0.2398,0.72 v 0.7194 l 0.2398,0.4802 0.4802,0.72 0.2398,0.4796 0.9598,1.1998 0.9598,0.72 0.72,0.48 0.4802,0.24 0.7194,0.2398 0.72,0.2398 h 0.72 l 0.72,0.2404 h 164.1304 l 0.72,-0.2404 h 0.72 l 0.72,-0.2398 0.7194,-0.2398 0.4802,-0.24 0.72,-0.48 0.9598,-0.72 0.9598,-1.1998 0.2398,-0.4796 0.24,-0.72 0.2398,-0.4802 0.2402,-0.7194 v -0.72 l 0.24,-0.72 v -28.7948 l -0.24,-0.72 v -0.72 l -0.2402,-0.7194 -0.2398,-0.4802 -0.24,-0.72 -0.2398,-0.4796 -0.9598,-1.1996 -0.9598,-0.96 -0.72,-0.2402 -0.4802,-0.2398 -0.7194,-0.24 -0.72,-0.2398 h -0.72 l -0.72,-0.2402 z"
     inkscape:connector-curvature="0" />
  <path
     id="path236"
     style="fill:none;stroke:#000000;stroke-width:1.43939996;stroke-linecap:butt;stroke-linejoin:miter;stroke-dasharray:none"
     d="m 150.68089,495.89116 -0.72,0.2402 h -0.72 l -0.72,0.2398 -0.7194,0.24 -0.4802,0.2398 -0.72,0.2402 -0.9598,0.96 -0.9598,1.1996 -0.2398,0.4796 -0.4802,0.72 -0.2398,0.4802 v 0.7194 l -0.2398,0.72 v 0.72 28.7948 0.72 l 0.2398,0.72 v 0.7194 l 0.2398,0.4802 0.4802,0.72 0.2398,0.4796 0.9598,1.1998 0.9598,0.72 0.72,0.48 0.4802,0.24 0.7194,0.2398 0.72,0.2398 h 0.72 l 0.72,0.2404 h 164.1304 l 0.72,-0.2404 h 0.72 l 0.72,-0.2398 0.7194,-0.2398 0.4802,-0.24 0.72,-0.48 0.9598,-0.72 0.9598,-1.1998 0.2398,-0.4796 0.24,-0.72 0.2398,-0.4802 0.2402,-0.7194 v -0.72 l 0.24,-0.72 v -28.7948 l -0.24,-0.72 v -0.72 l -0.2402,-0.7194 -0.2398,-0.4802 -0.24,-0.72 -0.2398,-0.4796 -0.9598,-1.1996 -0.9598,-0.96 -0.72,-0.2402 -0.4802,-0.2398 -0.7194,-0.24 -0.72,-0.2398 h -0.72 l -0.72,-0.2402 z"
     inkscape:connector-curvature="0" />
  <text
     id="text240"
     y="529.11853"
     x="160.75868"
     style="font-size:24px;stroke-width:2">
    <tspan
       style="font-size:20px;font-family:Arial;fill:#ffffff;stroke-width:2"
       id="tspan238"
       font-size="10.0000">Chlorphyllide</tspan>
  </text>
  <text
     id="text244"
     y="526.58228"
     x="285.20981"
     style="font-size:24px;stroke-width:2">
    <tspan
       style="font-size:20px;font-family:Arial;fill:#ffffff;stroke-width:2"
       id="tspan242"
       font-size="10.0000">a</tspan>
  </text>
  <path
     id="path246"
     style="fill:#336699;fill-rule:evenodd;stroke-width:2"
     d="m 102.68929,392.22976 h -0.72 l -0.72,0.2398 h -0.7194 l -0.719998,0.2398 -0.4802,0.4802 -0.7194,0.2398 -0.9598,0.96 -0.96,0.9598 -0.2402,0.72 -0.4798,0.4796 -0.2398,0.72 v 0.72 l -0.2402,0.72 v 0.72 28.5544 0.72 l 0.2402,0.72 v 0.72 l 0.2398,0.7194 0.4798,0.72 0.2402,0.4802 0.96,1.1996 0.9598,0.72 0.7194,0.4796 0.4802,0.24 0.719998,0.2402 0.7194,0.2398 h 0.72 0.72 147.5738 0.72 0.7194 l 0.72,-0.2398 0.72,-0.2402 0.4796,-0.24 0.72,-0.4796 0.9598,-0.72 0.9598,-1.1996 0.2398,-0.4802 0.4802,-0.72 0.2398,-0.7194 v -0.72 l 0.2404,-0.72 v -0.72 -28.5544 -0.72 l -0.2404,-0.72 v -0.72 l -0.2398,-0.72 -0.4802,-0.4796 -0.2398,-0.72 -0.9598,-0.9598 -0.9598,-0.96 -0.72,-0.2398 -0.4796,-0.4802 -0.72,-0.2398 h -0.72 l -0.7194,-0.2398 h -0.72 z"
     inkscape:connector-curvature="0" />
  <path
     id="path248"
     style="fill:none;stroke:#000000;stroke-width:1.43939996;stroke-linecap:butt;stroke-linejoin:miter;stroke-dasharray:none"
     d="m 102.68929,392.22976 h -0.72 l -0.72,0.2398 h -0.7194 l -0.719998,0.2398 -0.4802,0.4802 -0.7194,0.2398 -0.9598,0.96 -0.96,0.9598 -0.2402,0.72 -0.4798,0.4796 -0.2398,0.72 v 0.72 l -0.2402,0.72 v 0.72 28.5544 0.72 l 0.2402,0.72 v 0.72 l 0.2398,0.7194 0.4798,0.72 0.2402,0.4802 0.96,1.1996 0.9598,0.72 0.7194,0.4796 0.4802,0.24 0.719998,0.2402 0.7194,0.2398 h 0.72 0.72 147.5738 0.72 0.7194 l 0.72,-0.2398 0.72,-0.2402 0.4796,-0.24 0.72,-0.4796 0.9598,-0.72 0.9598,-1.1996 0.2398,-0.4802 0.4802,-0.72 0.2398,-0.7194 v -0.72 l 0.2404,-0.72 v -0.72 -28.5544 -0.72 l -0.2404,-0.72 v -0.72 l -0.2398,-0.72 -0.4802,-0.4796 -0.2398,-0.72 -0.9598,-0.9598 -0.9598,-0.96 -0.72,-0.2398 -0.4796,-0.4802 -0.72,-0.2398 h -0.72 l -0.7194,-0.2398 h -0.72 z"
     inkscape:connector-curvature="0" />
  <text
     id="text252"
     y="425.45679"
     x="112.76768"
     style="font-size:24px;stroke-width:2">
    <tspan
       style="font-size:20px;font-family:Arial;fill:#ffffff;stroke-width:2"
       id="tspan250"
       font-size="10.0000">Chlorophyll</tspan>
  </text>
  <text
     id="text256"
     y="422.92041"
     x="224.90424"
     style="font-size:24px;stroke-width:2">
    <tspan
       style="font-size:20px;font-family:Arial;fill:#ffffff;stroke-width:2"
       id="tspan254"
       font-size="10.0000">a</tspan>
  </text>
  <path
     id="path258"
     style="fill:#336699;fill-rule:evenodd;stroke-width:2"
     d="m 28.302489,291.68776 h -0.72 l -0.72,0.2398 -0.4796,0.24 -0.72,0.2398 -0.72,0.2402 -0.4796,0.24 -1.1996,0.9598 -0.72,0.9598 -0.4802,0.72 -0.2398,0.72 -0.2398,0.4796 -0.2398,0.72 v 0.72 0.7194 28.7948 0.72 0.72 l 0.2398,0.4796 0.2398,0.72 0.2398,0.72 0.4802,0.4798 0.72,1.2 1.1996,0.72 0.4796,0.4798 0.72,0.2398 0.72,0.2404 0.4796,0.2398 h 0.72 0.72 148.533601 0.72 0.7196 l 0.72,-0.2398 0.4802,-0.2404 0.7194,-0.2398 0.72,-0.4798 0.9598,-0.72 0.9598,-1.2 0.2398,-0.4798 0.2404,-0.72 0.2398,-0.72 0.2398,-0.4796 v -0.72 l 0.2404,-0.72 v -28.7948 l -0.2404,-0.7194 v -0.72 l -0.2398,-0.72 -0.2398,-0.4796 -0.2404,-0.72 -0.2398,-0.72 -0.9598,-0.9598 -0.9598,-0.9598 -0.72,-0.24 -0.7194,-0.2402 -0.4802,-0.2398 -0.72,-0.24 -0.7196,-0.2398 h -0.72 z"
     inkscape:connector-curvature="0" />
  <path
     id="path260"
     style="fill:none;stroke:#000000;stroke-width:1.43939996;stroke-linecap:butt;stroke-linejoin:miter;stroke-dasharray:none"
     d="m 28.302489,291.68776 h -0.72 l -0.72,0.2398 -0.4796,0.24 -0.72,0.2398 -0.72,0.2402 -0.4796,0.24 -1.1996,0.9598 -0.72,0.9598 -0.4802,0.72 -0.2398,0.72 -0.2398,0.4796 -0.2398,0.72 v 0.72 0.7194 28.7948 0.72 0.72 l 0.2398,0.4796 0.2398,0.72 0.2398,0.72 0.4802,0.4798 0.72,1.2 1.1996,0.72 0.4796,0.4798 0.72,0.2398 0.72,0.2404 0.4796,0.2398 h 0.72 0.72 148.533601 0.72 0.7196 l 0.72,-0.2398 0.4802,-0.2404 0.7194,-0.2398 0.72,-0.4798 0.9598,-0.72 0.9598,-1.2 0.2398,-0.4798 0.2404,-0.72 0.2398,-0.72 0.2398,-0.4796 v -0.72 l 0.2404,-0.72 v -28.7948 l -0.2404,-0.7194 v -0.72 l -0.2398,-0.72 -0.2398,-0.4796 -0.2404,-0.72 -0.2398,-0.72 -0.9598,-0.9598 -0.9598,-0.9598 -0.72,-0.24 -0.7194,-0.2402 -0.4802,-0.2398 -0.72,-0.24 -0.7196,-0.2398 h -0.72 z"
     inkscape:connector-curvature="0" />
  <text
     id="text264"
     y="324.91504"
     x="38.380875"
     style="font-size:24px;stroke-width:2">
    <tspan
       style="font-size:20px;font-family:Arial;fill:#ffffff;stroke-width:2"
       id="tspan262"
       font-size="10.0000">Chlorophyll</tspan>
  </text>
  <text
     id="text268"
     y="320.96472"
     x="154.76009"
     style="font-size:24px;stroke-width:2">
    <tspan
       style="font-size:20px;font-family:Arial;fill:#ffffff;stroke-width:2"
       id="tspan266"
       font-size="10.0000">b</tspan>
  </text>
  <path
     id="path270"
     style="fill:#969696;fill-rule:evenodd;stroke:#969696;stroke-width:0.23980001;stroke-linecap:butt;stroke-linejoin:miter;stroke-dasharray:none"
     d="m 480.64429,919.80821 -21.1164,-29.2746 4.799,-3.3596 21.1164,29.0348 z m -24.2356,-23.2758 -3.1198,-19.9162 17.7568,9.3582 z"
     inkscape:connector-curvature="0" />
  <path
     id="path272"
     style="fill:#969696;fill-rule:evenodd;stroke:#969696;stroke-width:0.23980001;stroke-linecap:butt;stroke-linejoin:miter;stroke-dasharray:none"
     d="m 407.93689,789.99121 -20.8762,-29.0348 4.7992,-3.5994 21.1164,29.0348 z m -23.9954,-23.0356 -3.1198,-19.9166 17.7568,9.3581 z"
     inkscape:connector-curvature="0" />
  <path
     id="path274"
     style="fill:#969696;fill-rule:evenodd;stroke:#969696;stroke-width:0.23980001;stroke-linecap:butt;stroke-linejoin:miter;stroke-dasharray:none"
     d="m 349.62469,685.60996 -20.876,-29.2746 4.7992,-3.3596 20.876,29.0346 z m -23.9958,-23.276 -3.359,-19.9162 17.7568,9.3584 z"
     inkscape:connector-curvature="0" />
  <path
     id="path276"
     style="fill:#969696;fill-rule:evenodd;stroke:#969696;stroke-width:0.23980001;stroke-linecap:butt;stroke-linejoin:miter;stroke-dasharray:none"
     d="m 216.18889,488.69276 -20.876,-29.0352 4.7992,-3.5994 21.1164,29.275 z m -23.9958,-23.036 -3.1192,-19.9168 17.7568,9.3584 z"
     inkscape:connector-curvature="0" />
  <path
     id="path278"
     style="fill:#969696;fill-rule:evenodd;stroke:#969696;stroke-width:0.23980001;stroke-linecap:butt;stroke-linejoin:miter;stroke-dasharray:none"
     d="m 151.16049,387.91036 -21.1164,-29.0346 4.7996,-3.3596 21.1158,29.0352 z m -24.2356,-23.036 -3.1192,-19.9162 17.7568,9.3584 z"
     inkscape:connector-curvature="0" />
  <path
     id="path280"
     style="fill:#336699;fill-rule:evenodd;stroke-width:2"
     d="m 1061.7112,939.72441 h -0.9598 l -0.72,0.2404 h -0.4796 l -0.72,0.2398 -0.72,0.4796 -0.4798,0.2404 -1.2002,0.9598 -0.7194,0.9598 -0.4802,0.72 -0.2398,0.4796 -0.2398,0.72 -0.2404,0.72 v 0.7194 0.72 28.5552 0.72 0.7194 l 0.2404,0.72 0.2398,0.72 0.2398,0.72 0.4802,0.4796 0.7194,0.9598 1.2002,0.9598 0.4798,0.4802 0.72,0.2398 0.72,0.2398 0.4796,0.2404 h 0.72 0.9598 73.907 0.7194 0.72 l 0.4802,-0.2404 0.7194,-0.2398 0.72,-0.2398 0.4802,-0.4802 1.1998,-0.9598 0.72,-0.9598 0.4796,-0.4796 0.2404,-0.72 0.2398,-0.72 0.2398,-0.72 v -0.7194 -0.72 -28.5552 -0.72 -0.7194 l -0.2398,-0.72 -0.2398,-0.72 -0.2404,-0.4796 -0.4796,-0.72 -0.72,-0.9598 -1.1998,-0.9598 -0.4802,-0.2404 -0.72,-0.4796 -0.7194,-0.2398 h -0.4802 l -0.72,-0.2404 h -0.7194 z"
     inkscape:connector-curvature="0" />
  <path
     id="path282"
     style="fill:none;stroke:#000000;stroke-width:1.43939996;stroke-linecap:butt;stroke-linejoin:miter;stroke-dasharray:none"
     d="m 1061.7112,939.72441 h -0.9598 l -0.72,0.2404 h -0.4796 l -0.72,0.2398 -0.72,0.4796 -0.4798,0.2404 -1.2002,0.9598 -0.7194,0.9598 -0.4802,0.72 -0.2398,0.4796 -0.2398,0.72 -0.2404,0.72 v 0.7194 0.72 28.5552 0.72 0.7194 l 0.2404,0.72 0.2398,0.72 0.2398,0.72 0.4802,0.4796 0.7194,0.9598 1.2002,0.9598 0.4798,0.4802 0.72,0.2398 0.72,0.2398 0.4796,0.2404 h 0.72 0.9598 73.907 0.7194 0.72 l 0.4802,-0.2404 0.7194,-0.2398 0.72,-0.2398 0.4802,-0.4802 1.1998,-0.9598 0.72,-0.9598 0.4796,-0.4796 0.2404,-0.72 0.2398,-0.72 0.2398,-0.72 v -0.7194 -0.72 -28.5552 -0.72 -0.7194 l -0.2398,-0.72 -0.2398,-0.72 -0.2404,-0.4796 -0.4796,-0.72 -0.72,-0.9598 -1.1998,-0.9598 -0.4802,-0.2404 -0.72,-0.4796 -0.7194,-0.2398 h -0.4802 l -0.72,-0.2404 h -0.7194 z"
     inkscape:connector-curvature="0" />
  <text
     id="text286"
     y="968.99207"
     x="1071.5496"
     style="font-size:24px;stroke-width:2">
    <tspan
       style="font-size:20px;font-family:Arial;fill:#ffffff;stroke-width:2"
       id="tspan284"
       font-size="10.0000">Heme</tspan>
  </text>
  <path
     id="path288"
     style="fill:#336699;fill-rule:evenodd;stroke-width:2"
     d="m 1091.0951,572.59036 h -0.7194 -0.72 l -0.72,0.2398 -0.72,0.2398 -0.4796,0.2398 -0.72,0.4802 -0.9598,0.9598 -0.9598,0.9598 -0.4802,0.72 -0.2398,0.4796 -0.24,0.72 -0.2398,0.72 v 0.7194 0.72 28.5552 0.72 0.72 l 0.2398,0.7194 0.24,0.72 0.2398,0.4802 0.4802,0.7194 0.9598,0.9598 0.9598,0.9598 0.72,0.2404 0.4796,0.4796 0.72,0.2398 h 0.72 l 0.72,0.2404 h 0.7194 126.4574 0.72 l 0.72,-0.2404 h 0.4796 l 0.72,-0.2398 0.72,-0.4796 0.4796,-0.2404 1.2002,-0.9598 0.72,-0.9598 0.4796,-0.7194 0.2398,-0.4802 0.2404,-0.72 0.2398,-0.7194 v -0.72 -0.72 -28.5552 -0.72 -0.7194 l -0.2398,-0.72 -0.2404,-0.72 -0.2398,-0.4796 -0.4796,-0.72 -0.72,-0.9598 -1.2002,-0.9598 -0.4796,-0.4802 -0.72,-0.2398 -0.72,-0.2398 -0.4796,-0.2398 h -0.72 -0.72 z"
     inkscape:connector-curvature="0" />
  <path
     id="path290"
     style="fill:none;stroke:#000000;stroke-width:1.43939996;stroke-linecap:butt;stroke-linejoin:miter;stroke-dasharray:none"
     d="m 1091.0951,572.59036 h -0.7194 -0.72 l -0.72,0.2398 -0.72,0.2398 -0.4796,0.2398 -0.72,0.4802 -0.9598,0.9598 -0.9598,0.9598 -0.4802,0.72 -0.2398,0.4796 -0.24,0.72 -0.2398,0.72 v 0.7194 0.72 28.5552 0.72 0.72 l 0.2398,0.7194 0.24,0.72 0.2398,0.4802 0.4802,0.7194 0.9598,0.9598 0.9598,0.9598 0.72,0.2404 0.4796,0.4796 0.72,0.2398 h 0.72 l 0.72,0.2404 h 0.7194 126.4574 0.72 l 0.72,-0.2404 h 0.4796 l 0.72,-0.2398 0.72,-0.4796 0.4796,-0.2404 1.2002,-0.9598 0.72,-0.9598 0.4796,-0.7194 0.2398,-0.4802 0.2404,-0.72 0.2398,-0.7194 v -0.72 -0.72 -28.5552 -0.72 -0.7194 l -0.2398,-0.72 -0.2404,-0.72 -0.2398,-0.4796 -0.4796,-0.72 -0.72,-0.9598 -1.2002,-0.9598 -0.4796,-0.4802 -0.72,-0.2398 -0.72,-0.2398 -0.4796,-0.2398 h -0.72 -0.72 z"
     inkscape:connector-curvature="0" />
  <text
     id="text294"
     y="601.8573"
     x="1101.1736"
     style="font-size:24px;stroke-width:2">
    <tspan
       style="font-size:20px;font-family:Arial;fill:#ffffff;stroke-width:2"
       id="tspan292"
       font-size="10.0000">Precorrin</tspan>
  </text>
  <text
     id="text298"
     y="601.62476"
     x="1189.4778"
     style="font-size:24px;stroke-width:2">
    <tspan
       style="font-size:20px;font-family:Arial;fill:#ffffff;stroke-width:2"
       id="tspan296"
       font-size="10.0000">-</tspan>
  </text>
  <text
     id="text302"
     y="601.62476"
     x="1196.1965"
     style="font-size:24px;stroke-width:2">
    <tspan
       style="font-size:20px;font-family:Arial;fill:#ffffff;stroke-width:2"
       id="tspan300"
       font-size="10.0000">2</tspan>
  </text>
  <path
     id="path304"
     style="fill:#969696;fill-rule:evenodd;stroke:#969696;stroke-width:0.23980001;stroke-linecap:butt;stroke-linejoin:miter;stroke-dasharray:none"
     d="m 1211.3141,554.35336 67.1878,-32.6342 2.6396,5.2788 -67.1884,32.8744 z m 61.9086,-36.7138 20.1566,0.2404 -12.2378,15.8372 z"
     inkscape:connector-curvature="0" />
  <path
     id="path306"
     style="fill:#969696;fill-rule:evenodd;stroke:#969696;stroke-width:0.23980001;stroke-linecap:butt;stroke-linejoin:miter;stroke-dasharray:none"
     d="m 979.5149,649.37636 72.4672,-24.4754 1.9196,5.519 -72.467,24.7152 z m 67.6682,-29.2746 19.9162,2.6392 -14.1574,14.3976 z"
     inkscape:connector-curvature="0" />
  <path
     id="path308"
     style="fill:#336699;fill-rule:evenodd;stroke-width:2"
     d="m 248.12589,696.40816 -0.72,0.2398 h -0.72 l -0.72,0.2398 -0.4798,0.2398 -0.72,0.2404 -0.7198,0.2398 -0.96,0.9598 -0.9598,1.1996 -0.2398,0.4802 -0.2398,0.72 -0.2404,0.4796 -0.2398,0.72 -0.2398,0.72 v 0.7194 28.795 0.72 l 0.2398,0.72 0.2398,0.72 0.2404,0.4796 0.2398,0.72 0.2398,0.4802 0.9598,1.1996 0.96,0.72 0.7198,0.4796 0.72,0.2398 0.4798,0.2404 0.72,0.2398 h 0.72 l 0.72,0.2398 h 277.1504 l 0.7194,-0.2398 h 0.72 l 0.72,-0.2398 0.72,-0.2404 0.4796,-0.2398 0.72,-0.4796 0.9598,-0.72 0.96,-1.1996 0.2398,-0.4802 0.4802,-0.72 0.2398,-0.4796 v -0.72 l 0.2398,-0.72 v -0.72 -28.795 -0.7194 l -0.2398,-0.72 v -0.72 l -0.2398,-0.4796 -0.4802,-0.72 -0.2398,-0.4802 -0.96,-1.1996 -0.9598,-0.9598 -0.72,-0.2398 -0.4796,-0.2404 -0.72,-0.2398 -0.72,-0.2398 h -0.72 l -0.7194,-0.2398 z"
     inkscape:connector-curvature="0" />
  <path
     id="path310"
     style="fill:none;stroke:#000000;stroke-width:1.43939996;stroke-linecap:butt;stroke-linejoin:miter;stroke-dasharray:none"
     d="m 248.12589,696.40816 -0.72,0.2398 h -0.72 l -0.72,0.2398 -0.4798,0.2398 -0.72,0.2404 -0.7198,0.2398 -0.96,0.9598 -0.9598,1.1996 -0.2398,0.4802 -0.2398,0.72 -0.2404,0.4796 -0.2398,0.72 -0.2398,0.72 v 0.7194 28.795 0.72 l 0.2398,0.72 0.2398,0.72 0.2404,0.4796 0.2398,0.72 0.2398,0.4802 0.9598,1.1996 0.96,0.72 0.7198,0.4796 0.72,0.2398 0.4798,0.2404 0.72,0.2398 h 0.72 l 0.72,0.2398 h 277.1504 l 0.7194,-0.2398 h 0.72 l 0.72,-0.2398 0.72,-0.2404 0.4796,-0.2398 0.72,-0.4796 0.9598,-0.72 0.96,-1.1996 0.2398,-0.4802 0.4802,-0.72 0.2398,-0.4796 v -0.72 l 0.2398,-0.72 v -0.72 -28.795 -0.7194 l -0.2398,-0.72 v -0.72 l -0.2398,-0.4796 -0.4802,-0.72 -0.2398,-0.4802 -0.96,-1.1996 -0.9598,-0.9598 -0.72,-0.2398 -0.4796,-0.2404 -0.72,-0.2398 -0.72,-0.2398 h -0.72 l -0.7194,-0.2398 z"
     inkscape:connector-curvature="0" />
  <text
     id="text314"
     y="729.63513"
     x="258.44409"
     style="font-size:24px;stroke-width:2">
    <tspan
       style="font-size:20px;font-family:Arial;fill:#ffffff;stroke-width:2"
       id="tspan312"
       font-size="10.0000">Divinylprotochlorphyllide</tspan>
  </text>
  <text
     id="text318"
     y="725.68469"
     x="504.3999"
     style="font-size:24px;stroke-width:2">
    <tspan
       style="font-size:20px;font-family:Arial;fill:#ffffff;stroke-width:2"
       id="tspan316"
       font-size="10.0000">a</tspan>
  </text>
  <path
     id="path320"
     style="fill:#969696;fill-rule:evenodd;stroke:#969696;stroke-width:0.23980001;stroke-linecap:butt;stroke-linejoin:miter;stroke-dasharray:none"
     d="m 286.16509,586.09336 -20.8762,-29.2744 4.7992,-3.3596 20.876,29.0346 z m -23.996,-23.2758 -3.359,-19.9162 17.7568,9.3582 z"
     inkscape:connector-curvature="0" />
  <path
     id="path280-9"
     style="fill:#336699;fill-rule:evenodd;stroke-width:2.18335557"
     d="m 1224.606,936.5236 h -1.1438 l -0.858,0.2404 h -0.5716 l -0.8581,0.2398 -0.858,0.4796 -0.5718,0.2404 -1.4304,0.9598 -0.8573,0.9598 -0.5724,0.72 -0.2857,0.4796 -0.2858,0.72 -0.2865,0.72 v 0.7194 0.72 28.5552 0.72 0.7194 l 0.2865,0.72 0.2858,0.72 0.2857,0.72 0.5724,0.4796 0.8573,0.9598 1.4304,0.9598 0.5718,0.4802 0.858,0.2398 0.8581,0.2398 0.5716,0.2404 h 0.858 1.1438 88.0795 0.8574 0.858 l 0.5723,-0.2404 0.8574,-0.2398 0.858,-0.2398 0.5724,-0.4802 1.4298,-0.9598 0.8581,-0.9598 0.5716,-0.4796 0.2864,-0.72 0.2858,-0.72 0.2858,-0.72 v -0.7194 -0.72 -28.5552 -0.72 -0.7194 l -0.2858,-0.72 -0.2858,-0.72 -0.2864,-0.4796 -0.5716,-0.72 -0.8581,-0.9598 -1.4298,-0.9598 -0.5724,-0.2404 -0.858,-0.4796 -0.8574,-0.2398 h -0.5723 l -0.858,-0.2404 h -0.8574 z"
     inkscape:connector-curvature="0" />
  <path
     id="path282-4"
     style="fill:none;stroke:#000000;stroke-width:1.57859552;stroke-linecap:butt;stroke-linejoin:miter;stroke-dasharray:none"
     d="m 1224.9336,936.70018 h -1.1639 l -0.8732,0.23842 h -0.5816 l -0.8732,0.23783 -0.8731,0.47566 -0.5819,0.23842 -1.4555,0.95191 -0.8725,0.95191 -0.5823,0.71408 -0.2909,0.47565 -0.2908,0.71408 -0.2915,0.71408 v 0.71349 0.71408 28.32042 0.71408 0.71349 l 0.2915,0.71408 0.2908,0.71408 0.2909,0.71408 0.5823,0.47565 0.8725,0.95191 1.4555,0.95191 0.5819,0.47625 0.8731,0.23783 0.8732,0.23783 0.5816,0.23842 h 0.8732 1.1639 89.6293 0.8724 0.8732 l 0.5824,-0.23842 0.8724,-0.23783 0.8731,-0.23783 0.5824,-0.47625 1.455,-0.95191 0.8732,-0.95191 0.5816,-0.47565 0.2916,-0.71408 0.2908,-0.71408 0.2908,-0.71408 v -0.71349 -0.71408 -28.32042 -0.71408 -0.71349 l -0.2908,-0.71408 -0.2908,-0.71408 -0.2916,-0.47565 -0.5816,-0.71408 -0.8732,-0.95191 -1.455,-0.95191 -0.5824,-0.23842 -0.8731,-0.47566 -0.8724,-0.23783 h -0.5824 l -0.8732,-0.23842 h -0.8724 z"
     inkscape:connector-curvature="0" />
  <text
     id="text286-9"
     y="965.79126"
     x="1229.064"
     style="font-size:24px;stroke-width:2">
    <tspan
       style="font-size:20px;font-family:Arial;fill:#ffffff;stroke-width:2"
       id="tspan284-1"
       font-size="10.0000">Biliverdin</tspan>
  </text>
  <path
     id="path150-4"
     style="fill:#336699;fill-rule:evenodd;stroke-width:2"
     d="m 1374.7813,934.68328 h -0.7194 -0.72 l -0.72,0.2398 -0.4802,0.2398 -0.7194,0.2404 -0.4802,0.4796 -1.1998,0.72 -0.7198,1.1996 -0.4798,0.4802 -0.2402,0.7194 -0.24,0.72 -0.2398,0.4802 v 0.7194 0.9604 28.5546 0.72 0.72 l 0.2398,0.72 0.24,0.7194 0.2402,0.4802 0.4798,0.72 0.7198,0.9598 1.1998,0.9598 0.4802,0.2398 0.7194,0.2398 0.4802,0.2398 0.72,0.2404 0.72,0.2398 h 0.7194 180.4478 0.72 l 0.72,-0.2398 0.72,-0.2404 0.72,-0.2398 0.4796,-0.2398 0.72,-0.2398 0.9598,-0.9598 0.9598,-0.9598 0.2398,-0.72 0.2398,-0.4802 0.2404,-0.7194 0.2398,-0.72 0.2398,-0.72 v -0.72 -28.5546 -0.9604 l -0.2398,-0.7194 -0.2398,-0.4802 -0.2404,-0.72 -0.2398,-0.7194 -0.2398,-0.4802 -0.9598,-1.1996 -0.9598,-0.72 -0.72,-0.4796 -0.4796,-0.2404 -0.72,-0.2398 -0.72,-0.2398 h -0.72 -0.72 z"
     inkscape:connector-curvature="0" />
  <path
     id="path152-6"
     style="fill:none;stroke:#000000;stroke-width:1.43939996;stroke-linecap:butt;stroke-linejoin:miter;stroke-dasharray:none"
     d="m 1374.7813,934.68328 h -0.7194 -0.72 l -0.72,0.2398 -0.4802,0.2398 -0.7194,0.2404 -0.4802,0.4796 -1.1998,0.72 -0.7198,1.1996 -0.4798,0.4802 -0.2402,0.7194 -0.24,0.72 -0.2398,0.4802 v 0.7194 0.9604 28.5546 0.72 0.72 l 0.2398,0.72 0.24,0.7194 0.2402,0.4802 0.4798,0.72 0.7198,0.9598 1.1998,0.9598 0.4802,0.2398 0.7194,0.2398 0.4802,0.2398 0.72,0.2404 0.72,0.2398 h 0.7194 180.4478 0.72 l 0.72,-0.2398 0.72,-0.2404 0.72,-0.2398 0.4796,-0.2398 0.72,-0.2398 0.9598,-0.9598 0.9598,-0.9598 0.2398,-0.72 0.2398,-0.4802 0.2404,-0.7194 0.2398,-0.72 0.2398,-0.72 v -0.72 -28.5546 -0.9604 l -0.2398,-0.7194 -0.2398,-0.4802 -0.2404,-0.72 -0.2398,-0.7194 -0.2398,-0.4802 -0.9598,-1.1996 -0.9598,-0.72 -0.72,-0.4796 -0.4796,-0.2404 -0.72,-0.2398 -0.72,-0.2398 h -0.72 -0.72 z"
     inkscape:connector-curvature="0" />
  <text
     id="text156-9"
     y="967.90997"
     x="1384.8596"
     style="font-size:24px;stroke-width:2">
    <tspan
       style="font-size:20px;font-family:Arial;fill:#ffffff;stroke-width:2"
       id="tspan154-9"
       font-size="10.0000">Phytochromobilin</tspan>
  </text>
  <path
     id="path64-8"
     style="fill:#969696;fill-rule:evenodd;stroke:#969696;stroke-width:0.19780192;stroke-linecap:butt;stroke-linejoin:miter;stroke-dasharray:none"
     d="m 1151.7484,955.33971 49.2836,-0.24071 v 6.02115 l -49.2836,0.24131 z m 47.1691,-6.26216 12.1988,8.91172 -12.1988,9.15283 z"
     inkscape:connector-curvature="0" />
  <path
     id="path64-7"
     style="fill:#969696;fill-rule:evenodd;stroke:#969696;stroke-width:0.15851386;stroke-linecap:butt;stroke-linejoin:miter;stroke-dasharray:none"
     d="m 1326.4254,957.635 31.699,-0.24033 v 6.01187 l -31.699,0.24094 z m 30.339,-6.25251 7.8462,8.898 -7.8462,9.13873 z"
     inkscape:connector-curvature="0" />
  <path
     style="fill:none;stroke:#000000;stroke-width:1px;stroke-linecap:butt;stroke-linejoin:miter;stroke-opacity:1;marker-start:url(#Tail)"
     d="m 906.51087,196.72672 c 103.23753,0 104.65173,0 104.65173,0"
     id="path179"
     inkscape:connector-curvature="0" />
</svg>
