<svg
  xmlns="http://www.w3.org/2000/svg"
  xmlns:xlink="http://www.w3.org/1999/xlink"
>

  <symbol id="annotation" fill="none" stroke="currentColor" class="w-6 h-6" viewBox="0 0 24 24">
    <title>Annotation</title>
    <path stroke-linecap="round" stroke-linejoin="round" stroke-width="2" d="M7 8h10M7 12h4m1 8l-4-4H5a2 2 0 01-2-2V6a2 2 0 012-2h14a2 2 0 012 2v8a2 2 0 01-2 2h-3l-4 4z"/>
  </symbol>

  <symbol id="book" fill="none" stroke="currentColor" class="w-6 h-6" viewBox="0 0 24 24">
    <path stroke-linecap="round" stroke-linejoin="round" stroke-width="2" d="M12 6.253v13m0-13C10.832 5.477 9.246 5 7.5 5S4.168 5.477 3 6.253v13C4.168 18.477 5.754 18 7.5 18s3.332.477 4.5 1.253m0-13C13.168 5.477 14.754 5 16.5 5c1.747 0 3.332.477 4.5 1.253v13C19.832 18.477 18.247 18 16.5 18c-1.746 0-3.332.477-4.5 1.253"/>
  </symbol>

  <symbol id="chart-square-bar" fill="none" stroke="currentColor" class="w-6 h-6" viewBox="0 0 24 24">
    <path stroke-linecap="round" stroke-linejoin="round" stroke-width="2" d="M16 8v8m-4-5v5m-4-2v2m-2 4h12a2 2 0 002-2V6a2 2 0 00-2-2H6a2 2 0 00-2 2v12a2 2 0 002 2z"/>
  </symbol>

  <symbol id="chevron-left" fill="currentColor" viewBox="0 0 20 20">
    <path clip-rule="evenodd" fill-rule="evenodd" d="M12.707 5.293a1 1 0 010 1.414L9.414 10l3.293 3.293a1 1 0 01-1.414 1.414l-4-4a1 1 0 010-1.414l4-4a1 1 0 011.414 0z"/>
  </symbol>

  <symbol id="close" fill="currentColor" viewBox="0 0 20 20">
    <path clip-rule="evenodd" fill-rule="evenodd" d="M4.293 4.293a1 1 0 011.414 0L10 8.586l4.293-4.293a1 1 0 111.414 1.414L11.414 10l4.293 4.293a1 1 0 01-1.414 1.414L10 11.414l-4.293 4.293a1 1 0 01-1.414-1.414L8.586 10 4.293 5.707a1 1 0 010-1.414z"/>
  </symbol>

  <symbol id="code" fill="none" stroke="currentColor" class="w-6 h-6" viewBox="0 0 24 24">
    <path stroke-linecap="round" stroke-linejoin="round" stroke-width="2" d="M10 20l4-16m4 4l4 4-4 4M6 16l-4-4 4-4"/>
  </symbol>

  <symbol id="collection" fill="currentColor" viewBox="0 0 20 20">
    <path d="M7 3a1 1 0 000 2h6a1 1 0 100-2H7zM4 7a1 1 0 011-1h10a1 1 0 110 2H5a1 1 0 01-1-1zm-2 4a2 2 0 012-2h12a2 2 0 012 2v4a2 2 0 01-2 2H4a2 2 0 01-2-2v-4z"/>
  </symbol>

  <symbol id="database" fill="currentColor" viewBox="0 0 20 20">
    <path d="M3 12v3c0 1.657 3.134 3 7 3s7-1.343 7-3v-3c0 1.657-3.134 3-7 3s-7-1.343-7-3z"/>
    <path d="M3 7v3c0 1.657 3.134 3 7 3s7-1.343 7-3V7c0 1.657-3.134 3-7 3S3 8.657 3 7z"/>
    <path d="M17 5c0 1.657-3.134 3-7 3S3 6.657 3 5s3.134-3 7-3 7 1.343 7 3z"/>
  </symbol>

  <symbol id="document" fill="currentColor" viewBox="0 0 20 20">
    <path clip-rule="evenodd" fill-rule="evenodd" d="M4 4a2 2 0 012-2h4.586A2 2 0 0112 2.586L15.414 6A2 2 0 0116 7.414V16a2 2 0 01-2 2H6a2 2 0 01-2-2V4zm2 6a1 1 0 011-1h6a1 1 0 110 2H7a1 1 0 01-1-1zm1 3a1 1 0 100 2h6a1 1 0 100-2H7z"/>
  </symbol>

  <symbol id="download" fill="none" stroke="currentColor" viewBox="0 0 24 24">
    <path stroke-linecap="round" stroke-linejoin="round" stroke-width="2" d="M4 16v1a3 3 0 003 3h10a3 3 0 003-3v-1m-4-4l-4 4m0 0l-4-4m4 4V4"/>
  </symbol>

  <symbol id="eye" fill="none" stroke="currentColor" viewBox="0 0 24 24">
    <path stroke-linecap="round" stroke-linejoin="round" stroke-width="2" d="M15 12a3 3 0 11-6 0 3 3 0 016 0z"/>
    <path stroke-linecap="round" stroke-linejoin="round" stroke-width="2" d="M2.458 12C3.732 7.943 7.523 5 12 5c4.478 0 8.268 2.943 9.542 7-1.274 4.057-5.064 7-9.542 7-4.477 0-8.268-2.943-9.542-7z"/>
  </symbol>

  <symbol id="home" fill="currentColor" viewBox="0 0 20 20">
    <path d="M10.707 2.293a1 1 0 00-1.414 0l-7 7a1 1 0 001.414 1.414L4 10.414V17a1 1 0 001 1h2a1 1 0 001-1v-2a1 1 0 011-1h2a1 1 0 011 1v2a1 1 0 001 1h2a1 1 0 001-1v-6.586l.293.293a1 1 0 001.414-1.414l-7-7z"/>
  </symbol>

  <symbol id="minus" fill="none" stroke="currentColor" viewBox="0 0 24 24">
    <path stroke-linecap="round" stroke-linejoin="round" stroke-width="2" d="M20 12H4"/>
  </symbol>

  <symbol id="menu" fill="currentColor" viewBox="0 0 20 20">
    <path clip-rule="evenodd" fill-rule="evenodd" d="M3 5a1 1 0 011-1h12a1 1 0 110 2H4a1 1 0 01-1-1zm0 5a1 1 0 011-1h12a1 1 0 110 2H4a1 1 0 01-1-1zm0 5a1 1 0 011-1h12a1 1 0 110 2H4a1 1 0 01-1-1z"/>
  </symbol>

  <symbol id="pencil" fill="currentColor" viewBox="0 0 20 20">
    <path d="M13.586 3.586a2 2 0 112.828 2.828l-.793.793-2.828-2.828.793-.793zm-2.207 2.207L3 14.172V17h2.828l8.38-8.379-2.83-2.828z"/>
  </symbol>

  <symbol id="photograph" fill="none" stroke="currentColor" class="w-6 h-6" viewBox="0 0 24 24">
    <path stroke-linecap="round" stroke-linejoin="round" stroke-width="2" d="M4 16l4.586-4.586a2 2 0 012.828 0L16 16m-2-2l1.586-1.586a2 2 0 012.828 0L20 14m-6-6h.01M6 20h12a2 2 0 002-2V6a2 2 0 00-2-2H6a2 2 0 00-2 2v12a2 2 0 002 2z"/>
  </symbol>

  <symbol id="plus" fill="none" stroke="currentColor" viewBox="0 0 24 24">
    <path stroke-linecap="round" stroke-linejoin="round" stroke-width="2" d="M12 6v6m0 0v6m0-6h6m-6 0H6"/>
  </symbol>

  <symbol id="plus-circle" fill="none" stroke="currentColor" viewBox="0 0 24 24">
    <path stroke-linecap="round" stroke-linejoin="round" stroke-width="2" d="M12 9v3m0 0v3m0-3h3m-3 0H9m12 0a9 9 0 11-18 0 9 9 0 0118 0z"/>
  </symbol>

 <symbol id="search" fill="none" stroke="currentColor" viewBox="0 0 24 24">
  <path stroke-linecap="round" stroke-linejoin="round" stroke-width="2" d="M21 21l-6-6m2-5a7 7 0 11-14 0 7 7 0 0114 0z"/>
</symbol>

  <symbol id="table" fill="none" stroke="currentColor" viewBox="0 0 24 24">
    <title>Annotation</title>
    <path stroke-linecap="round" stroke-linejoin="round" stroke-width="2" d="M3 10h18M3 14h18m-9-4v8m-7 0h14a2 2 0 002-2V8a2 2 0 00-2-2H5a2 2 0 00-2 2v8a2 2 0 002 2z"/>
  </symbol>

  <symbol id="trash" fill="none" stroke="currentColor" class="w-6 h-6" viewBox="0 0 24 24">
    <path stroke-linecap="round" stroke-linejoin="round" stroke-width="2" d="M19 7l-.867 12.142A2 2 0 0116.138 21H7.862a2 2 0 01-1.995-1.858L5 7m5 4v6m4-6v6m1-10V4a1 1 0 00-1-1h-4a1 1 0 00-1 1v3M4 7h16"/>
  </symbol>

  <symbol id="upload" fill="none" stroke="currentColor" viewBox="0 0 24 24">
    <path stroke-linecap="round" stroke-linejoin="round" stroke-width="2" d="M4 16v1a3 3 0 003 3h10a3 3 0 003-3v-1m-4-8l-4-4m0 0L8 8m4-4v12"/>
  </symbol>

  <symbol id="warning" fill="currentColor" viewBox="0 0 20 20">
    <path clip-rule="evenodd" fill-rule="evenodd" d="M8.257 3.099c.765-1.36 2.722-1.36 3.486 0l5.58 9.92c.75 1.334-.213 2.98-1.742 2.98H4.42c-1.53 0-2.493-1.646-1.743-2.98l5.58-9.92zM11 13a1 1 0 11-2 0 1 1 0 012 0zm-1-8a1 1 0 00-1 1v3a1 1 0 002 0V6a1 1 0 00-1-1z"/>
  </symbol>

</svg>