<svg
  xmlns="http://www.w3.org/2000/svg"
  xmlns:xlink="http://www.w3.org/1999/xlink"
>

  <symbol id="book" fill="currentColor" viewBox="0 0 20 20">
    <title>Book</title>
    <desc>Book icon</desc>
    <path d="M9 4.804A7.968 7.968 0 005.5 4c-1.255 0-2.443.29-3.5.804v10A7.969 7.969 0 015.5 14c1.669 0 3.218.51 4.5 1.385A7.962 7.962 0 0114.5 14c1.255 0 2.443.29 3.5.804v-10A7.968 7.968 0 0014.5 4c-1.255 0-2.443.29-3.5.804V12a1 1 0 11-2 0V4.804z"/>
  </symbol>

  <symbol id="chart-square-bar" fill="currentColor" viewBox="0 0 20 20">
    <path clip-rule="evenodd" fill-rule="evenodd" d="M5 3a2 2 0 00-2 2v10a2 2 0 002 2h10a2 2 0 002-2V5a2 2 0 00-2-2H5zm9 4a1 1 0 10-2 0v6a1 1 0 102 0V7zm-3 2a1 1 0 10-2 0v4a1 1 0 102 0V9zm-3 3a1 1 0 10-2 0v1a1 1 0 102 0v-1z"/>
  </symbol>

  <symbol id="chevron-left" fill="currentColor" viewBox="0 0 20 20">
    <path clip-rule="evenodd" fill-rule="evenodd" d="M12.707 5.293a1 1 0 010 1.414L9.414 10l3.293 3.293a1 1 0 01-1.414 1.414l-4-4a1 1 0 010-1.414l4-4a1 1 0 011.414 0z"/>
  </symbol>

  <symbol id="close" fill="currentColor" viewBox="0 0 20 20">
    <path clip-rule="evenodd" fill-rule="evenodd" d="M4.293 4.293a1 1 0 011.414 0L10 8.586l4.293-4.293a1 1 0 111.414 1.414L11.414 10l4.293 4.293a1 1 0 01-1.414 1.414L10 11.414l-4.293 4.293a1 1 0 01-1.414-1.414L8.586 10 4.293 5.707a1 1 0 010-1.414z"/>
  </symbol>

  <symbol id="code" fill="currentColor" viewBox="0 0 20 20">
    <path clip-rule="evenodd" fill-rule="evenodd" d="M12.316 3.051a1 1 0 01.633 1.265l-4 12a1 1 0 11-1.898-.632l4-12a1 1 0 011.265-.633zM5.707 6.293a1 1 0 010 1.414L3.414 10l2.293 2.293a1 1 0 11-1.414 1.414l-3-3a1 1 0 010-1.414l3-3a1 1 0 011.414 0zm8.586 0a1 1 0 011.414 0l3 3a1 1 0 010 1.414l-3 3a1 1 0 11-1.414-1.414L16.586 10l-2.293-2.293a1 1 0 010-1.414z"/>
  </symbol>

  <symbol id="collection" fill="currentColor" viewBox="0 0 20 20">
    <path d="M7 3a1 1 0 000 2h6a1 1 0 100-2H7zM4 7a1 1 0 011-1h10a1 1 0 110 2H5a1 1 0 01-1-1zm-2 4a2 2 0 012-2h12a2 2 0 012 2v4a2 2 0 01-2 2H4a2 2 0 01-2-2v-4z"/>
  </symbol>

  <symbol id="database" fill="currentColor" viewBox="0 0 20 20">
    <path d="M3 12v3c0 1.657 3.134 3 7 3s7-1.343 7-3v-3c0 1.657-3.134 3-7 3s-7-1.343-7-3z"/>
    <path d="M3 7v3c0 1.657 3.134 3 7 3s7-1.343 7-3V7c0 1.657-3.134 3-7 3S3 8.657 3 7z"/>
    <path d="M17 5c0 1.657-3.134 3-7 3S3 6.657 3 5s3.134-3 7-3 7 1.343 7 3z"/>
  </symbol>

  <symbol id="document" fill="currentColor" viewBox="0 0 20 20">
    <path clip-rule="evenodd" fill-rule="evenodd" d="M4 4a2 2 0 012-2h4.586A2 2 0 0112 2.586L15.414 6A2 2 0 0116 7.414V16a2 2 0 01-2 2H6a2 2 0 01-2-2V4zm2 6a1 1 0 011-1h6a1 1 0 110 2H7a1 1 0 01-1-1zm1 3a1 1 0 100 2h6a1 1 0 100-2H7z"/>
  </symbol>

  <symbol id="download" fill="currentColor" viewBox="0 0 20 20">
    <path clip-rule="evenodd" fill-rule="evenodd" d="M3 17a1 1 0 011-1h12a1 1 0 110 2H4a1 1 0 01-1-1zm3.293-7.707a1 1 0 011.414 0L9 10.586V3a1 1 0 112 0v7.586l1.293-1.293a1 1 0 111.414 1.414l-3 3a1 1 0 01-1.414 0l-3-3a1 1 0 010-1.414z"/>
  </symbol>

  <symbol id="home" fill="currentColor" viewBox="0 0 20 20">
    <path d="M10.707 2.293a1 1 0 00-1.414 0l-7 7a1 1 0 001.414 1.414L4 10.414V17a1 1 0 001 1h2a1 1 0 001-1v-2a1 1 0 011-1h2a1 1 0 011 1v2a1 1 0 001 1h2a1 1 0 001-1v-6.586l.293.293a1 1 0 001.414-1.414l-7-7z"/>
  </symbol>

  <symbol id="menu" fill="currentColor" viewBox="0 0 20 20">
    <path clip-rule="evenodd" fill-rule="evenodd" d="M3 5a1 1 0 011-1h12a1 1 0 110 2H4a1 1 0 01-1-1zm0 5a1 1 0 011-1h12a1 1 0 110 2H4a1 1 0 01-1-1zm0 5a1 1 0 011-1h12a1 1 0 110 2H4a1 1 0 01-1-1z"/>
  </symbol>

  <symbol id="pencil" fill="currentColor" viewBox="0 0 20 20">
    <path d="M13.586 3.586a2 2 0 112.828 2.828l-.793.793-2.828-2.828.793-.793zm-2.207 2.207L3 14.172V17h2.828l8.38-8.379-2.83-2.828z"/>
  </symbol>

  <symbol id="plus" fill="currentColor" viewBox="0 0 20 20">
    <path clip-rule="evenodd" fill-rule="evenodd" d="M10 5a1 1 0 011 1v3h3a1 1 0 110 2h-3v3a1 1 0 11-2 0v-3H6a1 1 0 110-2h3V6a1 1 0 011-1z"/>
  </symbol>

  <symbol id="trash" fill="currentColor" viewBox="0 0 20 20">
    <path clip-rule="evenodd" fill-rule="evenodd" d="M9 2a1 1 0 00-.894.553L7.382 4H4a1 1 0 000 2v10a2 2 0 002 2h8a2 2 0 002-2V6a1 1 0 100-2h-3.382l-.724-1.447A1 1 0 0011 2H9zM7 8a1 1 0 012 0v6a1 1 0 11-2 0V8zm5-1a1 1 0 00-1 1v6a1 1 0 102 0V8a1 1 0 00-1-1z"/>
  </symbol>

  <symbol id="upload" fill="currentColor" viewBox="0 0 20 20">
    <path clip-rule="evenodd" fill-rule="evenodd" d="M3 17a1 1 0 011-1h12a1 1 0 110 2H4a1 1 0 01-1-1zM6.293 6.707a1 1 0 010-1.414l3-3a1 1 0 011.414 0l3 3a1 1 0 01-1.414 1.414L11 5.414V13a1 1 0 11-2 0V5.414L7.707 6.707a1 1 0 01-1.414 0z"/>
  </symbol>

  <symbol id="warning" fill="currentColor" viewBox="0 0 20 20">
    <path clip-rule="evenodd" fill-rule="evenodd" d="M8.257 3.099c.765-1.36 2.722-1.36 3.486 0l5.58 9.92c.75 1.334-.213 2.98-1.742 2.98H4.42c-1.53 0-2.493-1.646-1.743-2.98l5.58-9.92zM11 13a1 1 0 11-2 0 1 1 0 012 0zm-1-8a1 1 0 00-1 1v3a1 1 0 002 0V6a1 1 0 00-1-1z"/>
  </symbol>

</svg>