<svg class="main-svg" xmlns="http://www.w3.org/2000/svg" xmlns:xlink="http://www.w3.org/1999/xlink" width="1794" height="576.067" style="" viewBox="0 0 1794 576.067"><rect x="0" y="0" width="1794" height="576.067" style="fill: rgb(255, 255, 255); fill-opacity: 1;"/><defs id="defs-f2765a"><g class="clips"><clipPath id="clipf2765axyplot" class="plotclip"><rect width="1634" height="335"/></clipPath><clipPath class="axesclip" id="clipf2765ax"><rect x="80" y="0" width="1634" height="576.067"/></clipPath><clipPath class="axesclip" id="clipf2765ay"><rect x="0" y="100" width="1794" height="335"/></clipPath><clipPath class="axesclip" id="clipf2765axy"><rect x="80" y="100" width="1634" height="335"/></clipPath></g><g class="gradients"/><g class="patterns"/></defs><g class="bglayer"/><g class="layer-below"><g class="imagelayer"/><g class="shapelayer"/></g><g class="cartesianlayer"><g class="subplot xy"><g class="layer-subplot"><g class="shapelayer"/><g class="imagelayer"/></g><g class="gridlayer"><g class="x"><path class="xgrid crisp" transform="translate(165.45,0)" d="M0,100v335" style="stroke: rgb(238, 238, 238); stroke-opacity: 1; stroke-width: 1px;"/><path class="xgrid crisp" transform="translate(897,0)" d="M0,100v335" style="stroke: rgb(238, 238, 238); stroke-opacity: 1; stroke-width: 1px;"/><path class="xgrid crisp" transform="translate(1628.55,0)" d="M0,100v335" style="stroke: rgb(238, 238, 238); stroke-opacity: 1; stroke-width: 1px;"/></g><g class="y"><path class="ygrid crisp" transform="translate(0,411.25)" d="M80,0h1634" style="stroke: rgb(238, 238, 238); stroke-opacity: 1; stroke-width: 1px;"/><path class="ygrid crisp" transform="translate(0,370.57)" d="M80,0h1634" style="stroke: rgb(238, 238, 238); stroke-opacity: 1; stroke-width: 1px;"/><path class="ygrid crisp" transform="translate(0,329.9)" d="M80,0h1634" style="stroke: rgb(238, 238, 238); stroke-opacity: 1; stroke-width: 1px;"/><path class="ygrid crisp" transform="translate(0,289.22)" d="M80,0h1634" style="stroke: rgb(238, 238, 238); stroke-opacity: 1; stroke-width: 1px;"/><path class="ygrid crisp" transform="translate(0,248.54)" d="M80,0h1634" style="stroke: rgb(238, 238, 238); stroke-opacity: 1; stroke-width: 1px;"/><path class="ygrid crisp" transform="translate(0,207.87)" d="M80,0h1634" style="stroke: rgb(238, 238, 238); stroke-opacity: 1; stroke-width: 1px;"/><path class="ygrid crisp" transform="translate(0,167.19)" d="M80,0h1634" style="stroke: rgb(238, 238, 238); stroke-opacity: 1; stroke-width: 1px;"/><path class="ygrid crisp" transform="translate(0,126.51)" d="M80,0h1634" style="stroke: rgb(238, 238, 238); stroke-opacity: 1; stroke-width: 1px;"/></g></g><g class="zerolinelayer"/><path class="xlines-below"/><path class="ylines-below"/><g class="overlines-below"/><g class="xaxislayer-below"/><g class="yaxislayer-below"/><g class="overaxes-below"/><g class="plot" transform="translate(80,100)" clip-path="url(#clipf2765axyplot)"><g class="scatterlayer mlayer"><g class="trace scatter trace5db82d" style="stroke-miterlimit: 2; opacity: 1;"><g class="fills"/><g class="errorbars"><g class="errorbar"><path style="vector-effect: non-scaling-stroke; stroke-width: 2px; stroke: rgb(199, 86, 111); stroke-opacity: 1;" class="yerror" d="M81.45,292.28h8m-4,0V307.85m-4,0h8"/></g><g class="errorbar"><path style="vector-effect: non-scaling-stroke; stroke-width: 2px; stroke: rgb(199, 86, 111); stroke-opacity: 1;" class="yerror" d="M813,281.84h8m-4,0V306.53m-4,0h8"/></g><g class="errorbar"><path style="vector-effect: non-scaling-stroke; stroke-width: 2px; stroke: rgb(199, 86, 111); stroke-opacity: 1;" class="yerror" d="M1544.55,223.23h8m-4,0V282.35m-4,0h8"/></g></g><g class="lines"><path class="js-line" style="vector-effect: non-scaling-stroke; fill: none; stroke: rgb(199, 86, 111); stroke-opacity: 1; stroke-width: 2px; opacity: 1;" d="M85.45,300.06L817,294.19L1548.55,252.79"/></g><g class="points"><path class="point" transform="translate(85.45,300.06)" style="opacity: 1; stroke-width: 0px; fill: rgb(199, 86, 111); fill-opacity: 1;" d="M3,0A3,3 0 1,1 0,-3A3,3 0 0,1 3,0Z"/><path class="point" transform="translate(817,294.19)" style="opacity: 1; stroke-width: 0px; fill: rgb(199, 86, 111); fill-opacity: 1;" d="M3,0A3,3 0 1,1 0,-3A3,3 0 0,1 3,0Z"/><path class="point" transform="translate(1548.55,252.79)" style="opacity: 1; stroke-width: 0px; fill: rgb(199, 86, 111); fill-opacity: 1;" d="M3,0A3,3 0 1,1 0,-3A3,3 0 0,1 3,0Z"/></g><g class="text"/></g><g class="trace scatter traceb2b7b0" style="stroke-miterlimit: 2; opacity: 1;"><g class="fills"/><g class="errorbars"><g class="errorbar"><path style="vector-effect: non-scaling-stroke; stroke-width: 2px; stroke: rgb(87, 191, 103); stroke-opacity: 1;" class="yerror" d="M81.45,150.25h8m-4,0V167.04m-4,0h8"/></g><g class="errorbar"><path style="vector-effect: non-scaling-stroke; stroke-width: 2px; stroke: rgb(87, 191, 103); stroke-opacity: 1;" class="yerror" d="M813,77.81h8m-4,0V90.45m-4,0h8"/></g><g class="errorbar"><path style="vector-effect: non-scaling-stroke; stroke-width: 2px; stroke: rgb(87, 191, 103); stroke-opacity: 1;" class="yerror" d="M1544.55,22.42h8m-4,0V79.78m-4,0h8"/></g></g><g class="lines"><path class="js-line" style="vector-effect: non-scaling-stroke; fill: none; stroke: rgb(87, 191, 103); stroke-opacity: 1; stroke-width: 2px; opacity: 1;" d="M85.45,158.64L817,84.13L1548.55,51.1"/></g><g class="points"><path class="point" transform="translate(85.45,158.64)" style="opacity: 1; stroke-width: 0px; fill: rgb(87, 191, 103); fill-opacity: 1;" d="M3,0A3,3 0 1,1 0,-3A3,3 0 0,1 3,0Z"/><path class="point" transform="translate(817,84.13)" style="opacity: 1; stroke-width: 0px; fill: rgb(87, 191, 103); fill-opacity: 1;" d="M3,0A3,3 0 1,1 0,-3A3,3 0 0,1 3,0Z"/><path class="point" transform="translate(1548.55,51.1)" style="opacity: 1; stroke-width: 0px; fill: rgb(87, 191, 103); fill-opacity: 1;" d="M3,0A3,3 0 1,1 0,-3A3,3 0 0,1 3,0Z"/></g><g class="text"/></g><g class="trace scatter traceb1e208" style="stroke-miterlimit: 2; opacity: 1;"><g class="fills"/><g class="errorbars"><g class="errorbar"><path style="vector-effect: non-scaling-stroke; stroke-width: 2px; stroke: rgb(132, 94, 201); stroke-opacity: 1;" class="yerror" d="M81.45,306.73h8m-4,0V318.25m-4,0h8"/></g><g class="errorbar"><path style="vector-effect: non-scaling-stroke; stroke-width: 2px; stroke: rgb(132, 94, 201); stroke-opacity: 1;" class="yerror" d="M813,277.68h8m-4,0V295.87m-4,0h8"/></g><g class="errorbar"><path style="vector-effect: non-scaling-stroke; stroke-width: 2px; stroke: rgb(132, 94, 201); stroke-opacity: 1;" class="yerror" d="M1544.55,224.06h8m-4,0V255.79m-4,0h8"/></g></g><g class="lines"><path class="js-line" style="vector-effect: non-scaling-stroke; fill: none; stroke: rgb(132, 94, 201); stroke-opacity: 1; stroke-width: 2px; opacity: 1;" d="M85.45,312.49L817,286.77L1548.55,239.92"/></g><g class="points"><path class="point" transform="translate(85.45,312.49)" style="opacity: 1; stroke-width: 0px; fill: rgb(132, 94, 201); fill-opacity: 1;" d="M3,0A3,3 0 1,1 0,-3A3,3 0 0,1 3,0Z"/><path class="point" transform="translate(817,286.77)" style="opacity: 1; stroke-width: 0px; fill: rgb(132, 94, 201); fill-opacity: 1;" d="M3,0A3,3 0 1,1 0,-3A3,3 0 0,1 3,0Z"/><path class="point" transform="translate(1548.55,239.92)" style="opacity: 1; stroke-width: 0px; fill: rgb(132, 94, 201); fill-opacity: 1;" d="M3,0A3,3 0 1,1 0,-3A3,3 0 0,1 3,0Z"/></g><g class="text"/></g><g class="trace scatter trace3cb78a" style="stroke-miterlimit: 2; opacity: 1;"><g class="fills"/><g class="errorbars"><g class="errorbar"><path style="vector-effect: non-scaling-stroke; stroke-width: 2px; stroke: rgb(144, 184, 61); stroke-opacity: 1;" class="yerror" d="M81.45,303.19h8m-4,0V312.37m-4,0h8"/></g><g class="errorbar"><path style="vector-effect: non-scaling-stroke; stroke-width: 2px; stroke: rgb(144, 184, 61); stroke-opacity: 1;" class="yerror" d="M813,253.56h8m-4,0V293.62m-4,0h8"/></g><g class="errorbar"><path style="vector-effect: non-scaling-stroke; stroke-width: 2px; stroke: rgb(144, 184, 61); stroke-opacity: 1;" class="yerror" d="M1544.55,209.96h8m-4,0V302.84m-4,0h8"/></g></g><g class="lines"><path class="js-line" style="vector-effect: non-scaling-stroke; fill: none; stroke: rgb(144, 184, 61); stroke-opacity: 1; stroke-width: 2px; opacity: 1;" d="M85.45,307.78L817,273.59L1548.55,256.4"/></g><g class="points"><path class="point" transform="translate(85.45,307.78)" style="opacity: 1; stroke-width: 0px; fill: rgb(144, 184, 61); fill-opacity: 1;" d="M3,0A3,3 0 1,1 0,-3A3,3 0 0,1 3,0Z"/><path class="point" transform="translate(817,273.59)" style="opacity: 1; stroke-width: 0px; fill: rgb(144, 184, 61); fill-opacity: 1;" d="M3,0A3,3 0 1,1 0,-3A3,3 0 0,1 3,0Z"/><path class="point" transform="translate(1548.55,256.4)" style="opacity: 1; stroke-width: 0px; fill: rgb(144, 184, 61); fill-opacity: 1;" d="M3,0A3,3 0 1,1 0,-3A3,3 0 0,1 3,0Z"/></g><g class="text"/></g><g class="trace scatter tracecc4056" style="stroke-miterlimit: 2; opacity: 1;"><g class="fills"/><g class="errorbars"><g class="errorbar"><path style="vector-effect: non-scaling-stroke; stroke-width: 2px; stroke: rgb(211, 163, 51); stroke-opacity: 1;" class="yerror" d="M81.45,129.61h8m-4,0V180.62m-4,0h8"/></g><g class="errorbar"><path style="vector-effect: non-scaling-stroke; stroke-width: 2px; stroke: rgb(211, 163, 51); stroke-opacity: 1;" class="yerror" d="M813,68.58h8m-4,0V143.08m-4,0h8"/></g><g class="errorbar"><path style="vector-effect: non-scaling-stroke; stroke-width: 2px; stroke: rgb(211, 163, 51); stroke-opacity: 1;" class="yerror" d="M1544.55,16.75h8m-4,0V46.38m-4,0h8"/></g></g><g class="lines"><path class="js-line" style="vector-effect: non-scaling-stroke; fill: none; stroke: rgb(211, 163, 51); stroke-opacity: 1; stroke-width: 2px; opacity: 1;" d="M85.45,155.11L817,105.83L1548.55,31.56"/></g><g class="points"><path class="point" transform="translate(85.45,155.11)" style="opacity: 1; stroke-width: 0px; fill: rgb(211, 163, 51); fill-opacity: 1;" d="M3,0A3,3 0 1,1 0,-3A3,3 0 0,1 3,0Z"/><path class="point" transform="translate(817,105.83)" style="opacity: 1; stroke-width: 0px; fill: rgb(211, 163, 51); fill-opacity: 1;" d="M3,0A3,3 0 1,1 0,-3A3,3 0 0,1 3,0Z"/><path class="point" transform="translate(1548.55,31.56)" style="opacity: 1; stroke-width: 0px; fill: rgb(211, 163, 51); fill-opacity: 1;" d="M3,0A3,3 0 1,1 0,-3A3,3 0 0,1 3,0Z"/></g><g class="text"/></g><g class="trace scatter traced2659c" style="stroke-miterlimit: 2; opacity: 1;"><g class="fills"/><g class="errorbars"><g class="errorbar"><path style="vector-effect: non-scaling-stroke; stroke-width: 2px; stroke: rgb(195, 99, 171); stroke-opacity: 1;" class="yerror" d="M81.45,75.71h8m-4,0V153.42m-4,0h8"/></g><g class="errorbar"><path style="vector-effect: non-scaling-stroke; stroke-width: 2px; stroke: rgb(195, 99, 171); stroke-opacity: 1;" class="yerror" d="M813,80.17h8m-4,0V132.23m-4,0h8"/></g><g class="errorbar"><path style="vector-effect: non-scaling-stroke; stroke-width: 2px; stroke: rgb(195, 99, 171); stroke-opacity: 1;" class="yerror" d="M1544.55,44.54h8m-4,0V87.56m-4,0h8"/></g></g><g class="lines"><path class="js-line" style="vector-effect: non-scaling-stroke; fill: none; stroke: rgb(195, 99, 171); stroke-opacity: 1; stroke-width: 2px; opacity: 1;" d="M85.45,114.57L817,106.2L1548.55,66.05"/></g><g class="points"><path class="point" transform="translate(85.45,114.57)" style="opacity: 1; stroke-width: 0px; fill: rgb(195, 99, 171); fill-opacity: 1;" d="M3,0A3,3 0 1,1 0,-3A3,3 0 0,1 3,0Z"/><path class="point" transform="translate(817,106.2)" style="opacity: 1; stroke-width: 0px; fill: rgb(195, 99, 171); fill-opacity: 1;" d="M3,0A3,3 0 1,1 0,-3A3,3 0 0,1 3,0Z"/><path class="point" transform="translate(1548.55,66.05)" style="opacity: 1; stroke-width: 0px; fill: rgb(195, 99, 171); fill-opacity: 1;" d="M3,0A3,3 0 1,1 0,-3A3,3 0 0,1 3,0Z"/></g><g class="text"/></g></g></g><g class="overplot"/><path class="xlines-above crisp" style="fill: none;" d="M0,0"/><path class="ylines-above crisp" style="fill: none;" d="M0,0"/><g class="overlines-above"/><g class="xaxislayer-above"><g class="xtick"><text text-anchor="middle" x="0" y="448" style="font-family: TOBESTRIPPEDOpen SansTOBESTRIPPED, verdana, arial, sans-serif; font-size: 12px; fill: rgb(68, 68, 68); fill-opacity: 1; white-space: pre; opacity: 1;" transform="translate(165.45,0)">23DAT</text></g><g class="xtick"><text text-anchor="middle" x="0" y="448" style="font-family: TOBESTRIPPEDOpen SansTOBESTRIPPED, verdana, arial, sans-serif; font-size: 12px; fill: rgb(68, 68, 68); fill-opacity: 1; white-space: pre; opacity: 1;" transform="translate(897,0)">16DAT</text></g><g class="xtick"><text text-anchor="middle" x="0" y="448" style="font-family: TOBESTRIPPEDOpen SansTOBESTRIPPED, verdana, arial, sans-serif; font-size: 12px; fill: rgb(68, 68, 68); fill-opacity: 1; white-space: pre; opacity: 1;" transform="translate(1628.55,0)">11DAT</text></g></g><g class="yaxislayer-above"><g class="ytick"><text text-anchor="end" x="79" y="4.199999999999999" style="font-family: TOBESTRIPPEDOpen SansTOBESTRIPPED, verdana, arial, sans-serif; font-size: 12px; fill: rgb(68, 68, 68); fill-opacity: 1; white-space: pre; opacity: 1;" transform="translate(0,411.25)">5</text></g><g class="ytick"><text text-anchor="end" x="79" y="4.199999999999999" style="font-family: TOBESTRIPPEDOpen SansTOBESTRIPPED, verdana, arial, sans-serif; font-size: 12px; fill: rgb(68, 68, 68); fill-opacity: 1; white-space: pre; opacity: 1;" transform="translate(0,370.57)">10</text></g><g class="ytick"><text text-anchor="end" x="79" y="4.199999999999999" style="font-family: TOBESTRIPPEDOpen SansTOBESTRIPPED, verdana, arial, sans-serif; font-size: 12px; fill: rgb(68, 68, 68); fill-opacity: 1; white-space: pre; opacity: 1;" transform="translate(0,329.9)">15</text></g><g class="ytick"><text text-anchor="end" x="79" y="4.199999999999999" style="font-family: TOBESTRIPPEDOpen SansTOBESTRIPPED, verdana, arial, sans-serif; font-size: 12px; fill: rgb(68, 68, 68); fill-opacity: 1; white-space: pre; opacity: 1;" transform="translate(0,289.22)">20</text></g><g class="ytick"><text text-anchor="end" x="79" y="4.199999999999999" style="font-family: TOBESTRIPPEDOpen SansTOBESTRIPPED, verdana, arial, sans-serif; font-size: 12px; fill: rgb(68, 68, 68); fill-opacity: 1; white-space: pre; opacity: 1;" transform="translate(0,248.54)">25</text></g><g class="ytick"><text text-anchor="end" x="79" y="4.199999999999999" style="font-family: TOBESTRIPPEDOpen SansTOBESTRIPPED, verdana, arial, sans-serif; font-size: 12px; fill: rgb(68, 68, 68); fill-opacity: 1; white-space: pre; opacity: 1;" transform="translate(0,207.87)">30</text></g><g class="ytick"><text text-anchor="end" x="79" y="4.199999999999999" style="font-family: TOBESTRIPPEDOpen SansTOBESTRIPPED, verdana, arial, sans-serif; font-size: 12px; fill: rgb(68, 68, 68); fill-opacity: 1; white-space: pre; opacity: 1;" transform="translate(0,167.19)">35</text></g><g class="ytick"><text text-anchor="end" x="79" y="4.199999999999999" style="font-family: TOBESTRIPPEDOpen SansTOBESTRIPPED, verdana, arial, sans-serif; font-size: 12px; fill: rgb(68, 68, 68); fill-opacity: 1; white-space: pre; opacity: 1;" transform="translate(0,126.51)">40</text></g></g><g class="overaxes-above"/></g></g><g class="polarlayer"/><g class="smithlayer"/><g class="ternarylayer"/><g class="geolayer"/><g class="funnelarealayer"/><g class="pielayer"/><g class="iciclelayer"/><g class="treemaplayer"/><g class="sunburstlayer"/><g class="glimages"/><defs id="topdefs-f2765a"><g class="clips"/><clipPath id="legendf2765a"><rect width="754" height="29" x="0" y="0"/></clipPath></defs><g class="layer-above"><g class="imagelayer"/><g class="shapelayer"/></g><g class="infolayer"><g class="legend" pointer-events="all" transform="translate(80,535.5)"><rect class="bg" shape-rendering="crispEdges" style="stroke: rgb(68, 68, 68); stroke-opacity: 1; fill: rgb(255, 255, 255); fill-opacity: 1; stroke-width: 0px;" width="754" height="29" x="0" y="0"/><g class="scrollbox" transform="" clip-path="url(#legendf2765a)"><g class="groups"><g class="traces" style="opacity: 1;" transform="translate(0,14.5)"><text class="legendtext" text-anchor="start" style="font-family: TOBESTRIPPEDOpen SansTOBESTRIPPED, verdana, arial, sans-serif; font-size: 12px; fill: rgb(68, 68, 68); fill-opacity: 1; white-space: pre;" x="40" y="4.680000000000001">Mutant-2-Leaf_1</text><g class="layers" style="opacity: 1;"><g class="legendfill"/><g class="legendlines"><path class="js-line" d="M5,0h30" style="fill: none; stroke: rgb(199, 86, 111); stroke-opacity: 1; stroke-width: 2px;"/></g><g class="legendsymbols"><g class="legendpoints"><path class="scatterpts" transform="translate(20,0)" style="opacity: 1; stroke-width: 0px; fill: rgb(199, 86, 111); fill-opacity: 1;" d="M3,0A3,3 0 1,1 0,-3A3,3 0 0,1 3,0Z"/></g></g></g><rect class="legendtoggle" style="fill: rgb(0, 0, 0); fill-opacity: 0;" x="0" y="-9.5" width="132.85000610351562" height="19"/></g><g class="traces" style="opacity: 1;" transform="translate(135.35000610351562,14.5)"><text class="legendtext" text-anchor="start" style="font-family: TOBESTRIPPEDOpen SansTOBESTRIPPED, verdana, arial, sans-serif; font-size: 12px; fill: rgb(68, 68, 68); fill-opacity: 1; white-space: pre;" x="40" y="4.680000000000001">Mutant-1-Leaf_2</text><g class="layers" style="opacity: 1;"><g class="legendfill"/><g class="legendlines"><path class="js-line" d="M5,0h30" style="fill: none; stroke: rgb(87, 191, 103); stroke-opacity: 1; stroke-width: 2px;"/></g><g class="legendsymbols"><g class="legendpoints"><path class="scatterpts" transform="translate(20,0)" style="opacity: 1; stroke-width: 0px; fill: rgb(87, 191, 103); fill-opacity: 1;" d="M3,0A3,3 0 1,1 0,-3A3,3 0 0,1 3,0Z"/></g></g></g><rect class="legendtoggle" style="fill: rgb(0, 0, 0); fill-opacity: 0;" x="0" y="-9.5" width="132.85000610351562" height="19"/></g><g class="traces" style="opacity: 1;" transform="translate(270.70001220703125,14.5)"><text class="legendtext" text-anchor="start" style="font-family: TOBESTRIPPEDOpen SansTOBESTRIPPED, verdana, arial, sans-serif; font-size: 12px; fill: rgb(68, 68, 68); fill-opacity: 1; white-space: pre;" x="40" y="4.680000000000001">WT-Leaf_1</text><g class="layers" style="opacity: 1;"><g class="legendfill"/><g class="legendlines"><path class="js-line" d="M5,0h30" style="fill: none; stroke: rgb(132, 94, 201); stroke-opacity: 1; stroke-width: 2px;"/></g><g class="legendsymbols"><g class="legendpoints"><path class="scatterpts" transform="translate(20,0)" style="opacity: 1; stroke-width: 0px; fill: rgb(132, 94, 201); fill-opacity: 1;" d="M3,0A3,3 0 1,1 0,-3A3,3 0 0,1 3,0Z"/></g></g></g><rect class="legendtoggle" style="fill: rgb(0, 0, 0); fill-opacity: 0;" x="0" y="-9.5" width="103.5" height="19"/></g><g class="traces" style="opacity: 1;" transform="translate(376.70001220703125,14.5)"><text class="legendtext" text-anchor="start" style="font-family: TOBESTRIPPEDOpen SansTOBESTRIPPED, verdana, arial, sans-serif; font-size: 12px; fill: rgb(68, 68, 68); fill-opacity: 1; white-space: pre;" x="40" y="4.680000000000001">Mutant-1-Leaf_1</text><g class="layers" style="opacity: 1;"><g class="legendfill"/><g class="legendlines"><path class="js-line" d="M5,0h30" style="fill: none; stroke: rgb(144, 184, 61); stroke-opacity: 1; stroke-width: 2px;"/></g><g class="legendsymbols"><g class="legendpoints"><path class="scatterpts" transform="translate(20,0)" style="opacity: 1; stroke-width: 0px; fill: rgb(144, 184, 61); fill-opacity: 1;" d="M3,0A3,3 0 1,1 0,-3A3,3 0 0,1 3,0Z"/></g></g></g><rect class="legendtoggle" style="fill: rgb(0, 0, 0); fill-opacity: 0;" x="0" y="-9.5" width="132.85000610351562" height="19"/></g><g class="traces" style="opacity: 1;" transform="translate(512.0500183105469,14.5)"><text class="legendtext" text-anchor="start" style="font-family: TOBESTRIPPEDOpen SansTOBESTRIPPED, verdana, arial, sans-serif; font-size: 12px; fill: rgb(68, 68, 68); fill-opacity: 1; white-space: pre;" x="40" y="4.680000000000001">WT-Leaf_2</text><g class="layers" style="opacity: 1;"><g class="legendfill"/><g class="legendlines"><path class="js-line" d="M5,0h30" style="fill: none; stroke: rgb(211, 163, 51); stroke-opacity: 1; stroke-width: 2px;"/></g><g class="legendsymbols"><g class="legendpoints"><path class="scatterpts" transform="translate(20,0)" style="opacity: 1; stroke-width: 0px; fill: rgb(211, 163, 51); fill-opacity: 1;" d="M3,0A3,3 0 1,1 0,-3A3,3 0 0,1 3,0Z"/></g></g></g><rect class="legendtoggle" style="fill: rgb(0, 0, 0); fill-opacity: 0;" x="0" y="-9.5" width="103.5" height="19"/></g><g class="traces" style="opacity: 1;" transform="translate(618.0500183105469,14.5)"><text class="legendtext" text-anchor="start" style="font-family: TOBESTRIPPEDOpen SansTOBESTRIPPED, verdana, arial, sans-serif; font-size: 12px; fill: rgb(68, 68, 68); fill-opacity: 1; white-space: pre;" x="40" y="4.680000000000001">Mutant-2-Leaf_2</text><g class="layers" style="opacity: 1;"><g class="legendfill"/><g class="legendlines"><path class="js-line" d="M5,0h30" style="fill: none; stroke: rgb(195, 99, 171); stroke-opacity: 1; stroke-width: 2px;"/></g><g class="legendsymbols"><g class="legendpoints"><path class="scatterpts" transform="translate(20,0)" style="opacity: 1; stroke-width: 0px; fill: rgb(195, 99, 171); fill-opacity: 1;" d="M3,0A3,3 0 1,1 0,-3A3,3 0 0,1 3,0Z"/></g></g></g><rect class="legendtoggle" style="fill: rgb(0, 0, 0); fill-opacity: 0;" x="0" y="-9.5" width="132.85000610351562" height="19"/></g></g></g><rect class="scrollbar" rx="20" ry="3" width="0" height="0" style="fill: rgb(128, 139, 164); fill-opacity: 1;" x="0" y="0"/></g><g class="g-gtitle"><text class="gtitle" style="font-family: TOBESTRIPPEDOpen SansTOBESTRIPPED, verdana, arial, sans-serif; font-size: 20px; fill: rgb(68, 68, 68); opacity: 1; font-weight: normal; white-space: pre;" x="897" y="57.60669999999993" text-anchor="middle" dy="0.7em">Gene expression stacked lines plot of selected gene</text></g><g class="g-xtitle"/><g class="g-ytitle"><text class="ytitle" transform="rotate(-90,42,267.5)" style="font-family: TOBESTRIPPEDOpen SansTOBESTRIPPED, verdana, arial, sans-serif; font-size: 14px; fill: rgb(68, 68, 68); opacity: 1; font-weight: normal; white-space: pre;" x="42" y="267.5" text-anchor="middle">count [Raw]</text></g></g></svg>