<svg class="main-svg" xmlns="http://www.w3.org/2000/svg" xmlns:xlink="http://www.w3.org/1999/xlink" width="1794" height="298.733" style="" viewBox="0 0 1794 298.733"><rect x="0" y="0" width="1794" height="298.733" style="fill: rgb(255, 255, 255); fill-opacity: 1;"/><defs id="defs-48426a"><g class="clips"><clipPath id="clip48426axyplot" class="plotclip"><rect width="1634" height="119"/></clipPath><clipPath class="axesclip" id="clip48426ax"><rect x="80" y="0" width="1634" height="298.733"/></clipPath><clipPath class="axesclip" id="clip48426ay"><rect x="0" y="100" width="1794" height="119"/></clipPath><clipPath class="axesclip" id="clip48426axy"><rect x="80" y="100" width="1634" height="119"/></clipPath></g><g class="gradients"/><g class="patterns"/></defs><g class="bglayer"/><g class="layer-below"><g class="imagelayer"/><g class="shapelayer"/></g><g class="cartesianlayer"><g class="subplot xy"><g class="layer-subplot"><g class="shapelayer"/><g class="imagelayer"/></g><g class="gridlayer"><g class="x"><path class="xgrid crisp" transform="translate(130.61,0)" d="M0,100v119" style="stroke: rgb(238, 238, 238); stroke-opacity: 1; stroke-width: 1px;"/><path class="xgrid crisp" transform="translate(200.29000000000002,0)" d="M0,100v119" style="stroke: rgb(238, 238, 238); stroke-opacity: 1; stroke-width: 1px;"/><path class="xgrid crisp" transform="translate(269.96000000000004,0)" d="M0,100v119" style="stroke: rgb(238, 238, 238); stroke-opacity: 1; stroke-width: 1px;"/><path class="xgrid crisp" transform="translate(339.63,0)" d="M0,100v119" style="stroke: rgb(238, 238, 238); stroke-opacity: 1; stroke-width: 1px;"/><path class="xgrid crisp" transform="translate(409.3,0)" d="M0,100v119" style="stroke: rgb(238, 238, 238); stroke-opacity: 1; stroke-width: 1px;"/><path class="xgrid crisp" transform="translate(478.97,0)" d="M0,100v119" style="stroke: rgb(238, 238, 238); stroke-opacity: 1; stroke-width: 1px;"/><path class="xgrid crisp" transform="translate(548.64,0)" d="M0,100v119" style="stroke: rgb(238, 238, 238); stroke-opacity: 1; stroke-width: 1px;"/><path class="xgrid crisp" transform="translate(618.31,0)" d="M0,100v119" style="stroke: rgb(238, 238, 238); stroke-opacity: 1; stroke-width: 1px;"/><path class="xgrid crisp" transform="translate(687.99,0)" d="M0,100v119" style="stroke: rgb(238, 238, 238); stroke-opacity: 1; stroke-width: 1px;"/><path class="xgrid crisp" transform="translate(757.66,0)" d="M0,100v119" style="stroke: rgb(238, 238, 238); stroke-opacity: 1; stroke-width: 1px;"/><path class="xgrid crisp" transform="translate(827.33,0)" d="M0,100v119" style="stroke: rgb(238, 238, 238); stroke-opacity: 1; stroke-width: 1px;"/><path class="xgrid crisp" transform="translate(897,0)" d="M0,100v119" style="stroke: rgb(238, 238, 238); stroke-opacity: 1; stroke-width: 1px;"/><path class="xgrid crisp" transform="translate(966.67,0)" d="M0,100v119" style="stroke: rgb(238, 238, 238); stroke-opacity: 1; stroke-width: 1px;"/><path class="xgrid crisp" transform="translate(1036.3400000000001,0)" d="M0,100v119" style="stroke: rgb(238, 238, 238); stroke-opacity: 1; stroke-width: 1px;"/><path class="xgrid crisp" transform="translate(1106.01,0)" d="M0,100v119" style="stroke: rgb(238, 238, 238); stroke-opacity: 1; stroke-width: 1px;"/><path class="xgrid crisp" transform="translate(1175.69,0)" d="M0,100v119" style="stroke: rgb(238, 238, 238); stroke-opacity: 1; stroke-width: 1px;"/><path class="xgrid crisp" transform="translate(1245.36,0)" d="M0,100v119" style="stroke: rgb(238, 238, 238); stroke-opacity: 1; stroke-width: 1px;"/><path class="xgrid crisp" transform="translate(1315.03,0)" d="M0,100v119" style="stroke: rgb(238, 238, 238); stroke-opacity: 1; stroke-width: 1px;"/><path class="xgrid crisp" transform="translate(1384.7,0)" d="M0,100v119" style="stroke: rgb(238, 238, 238); stroke-opacity: 1; stroke-width: 1px;"/><path class="xgrid crisp" transform="translate(1454.37,0)" d="M0,100v119" style="stroke: rgb(238, 238, 238); stroke-opacity: 1; stroke-width: 1px;"/><path class="xgrid crisp" transform="translate(1524.04,0)" d="M0,100v119" style="stroke: rgb(238, 238, 238); stroke-opacity: 1; stroke-width: 1px;"/><path class="xgrid crisp" transform="translate(1593.71,0)" d="M0,100v119" style="stroke: rgb(238, 238, 238); stroke-opacity: 1; stroke-width: 1px;"/><path class="xgrid crisp" transform="translate(1663.39,0)" d="M0,100v119" style="stroke: rgb(238, 238, 238); stroke-opacity: 1; stroke-width: 1px;"/></g><g class="y"><path class="ygrid crisp" transform="translate(0,184.2)" d="M80,0h1634" style="stroke: rgb(238, 238, 238); stroke-opacity: 1; stroke-width: 1px;"/><path class="ygrid crisp" transform="translate(0,158.53)" d="M80,0h1634" style="stroke: rgb(238, 238, 238); stroke-opacity: 1; stroke-width: 1px;"/><path class="ygrid crisp" transform="translate(0,132.86)" d="M80,0h1634" style="stroke: rgb(238, 238, 238); stroke-opacity: 1; stroke-width: 1px;"/><path class="ygrid crisp" transform="translate(0,107.19)" d="M80,0h1634" style="stroke: rgb(238, 238, 238); stroke-opacity: 1; stroke-width: 1px;"/></g></g><g class="zerolinelayer"><path class="yzl zl crisp" transform="translate(0,209.88)" d="M80,0h1634" style="stroke: rgb(68, 68, 68); stroke-opacity: 1; stroke-width: 1px;"/></g><path class="xlines-below"/><path class="ylines-below"/><g class="overlines-below"/><g class="xaxislayer-below"/><g class="yaxislayer-below"/><g class="overaxes-below"/><g class="plot" transform="translate(80,100)" clip-path="url(#clip48426axyplot)"><g class="scatterlayer mlayer"><g class="trace scatter trace809e32" style="stroke-miterlimit: 2; opacity: 1;"><g class="fills"/><g class="errorbars"><g class="errorbar"><path style="vector-effect: non-scaling-stroke; stroke-width: 2px; stroke: rgb(199, 86, 111); stroke-opacity: 1;" class="yerror" d="M81.45,107.83h8m-4,0V108.75m-4,0h8"/></g><g class="errorbar"><path style="vector-effect: non-scaling-stroke; stroke-width: 2px; stroke: rgb(199, 86, 111); stroke-opacity: 1;" class="yerror" d="M151.12,50.61h8m-4,0V69.78m-4,0h8"/></g><g class="errorbar"><path style="vector-effect: non-scaling-stroke; stroke-width: 2px; stroke: rgb(199, 86, 111); stroke-opacity: 1;" class="yerror" d="M220.79,107.31h8m-4,0V108.63m-4,0h8"/></g><g class="errorbar"><path style="vector-effect: non-scaling-stroke; stroke-width: 2px; stroke: rgb(199, 86, 111); stroke-opacity: 1;" class="yerror" d="M290.46,103.37h8m-4,0V105.64m-4,0h8"/></g><g class="errorbar"><path style="vector-effect: non-scaling-stroke; stroke-width: 2px; stroke: rgb(199, 86, 111); stroke-opacity: 1;" class="yerror" d="M360.14,32.2h8m-4,0V75.99m-4,0h8"/></g><g class="errorbar"><path style="vector-effect: non-scaling-stroke; stroke-width: 2px; stroke: rgb(199, 86, 111); stroke-opacity: 1;" class="yerror" d="M429.81,46.09h8m-4,0V60.13m-4,0h8"/></g><g class="errorbar"><path style="vector-effect: non-scaling-stroke; stroke-width: 2px; stroke: rgb(199, 86, 111); stroke-opacity: 1;" class="yerror" d="M499.48,5.95h8m-4,0V29.48m-4,0h8"/></g><g class="errorbar"><path style="vector-effect: non-scaling-stroke; stroke-width: 2px; stroke: rgb(199, 86, 111); stroke-opacity: 1;" class="yerror" d="M569.15,106.59h8m-4,0V108.44m-4,0h8"/></g><g class="errorbar"><path style="vector-effect: non-scaling-stroke; stroke-width: 2px; stroke: rgb(199, 86, 111); stroke-opacity: 1;" class="yerror" d="M638.82,108.95h8m-4,0V109.65m-4,0h8"/></g><g class="errorbar"><path style="vector-effect: non-scaling-stroke; stroke-width: 2px; stroke: rgb(199, 86, 111); stroke-opacity: 1;" class="yerror" d="M708.49,107.78h8m-4,0V109.13m-4,0h8"/></g><g class="errorbar"><path style="vector-effect: non-scaling-stroke; stroke-width: 2px; stroke: rgb(199, 86, 111); stroke-opacity: 1;" class="yerror" d="M778.16,103.03h8m-4,0V104.84m-4,0h8"/></g></g><g class="lines"><path class="js-line" style="vector-effect: non-scaling-stroke; fill: none; stroke: rgb(199, 86, 111); stroke-opacity: 1; stroke-width: 2px; opacity: 1;" d="M85.45,108.29L155.12,60.2L224.79,107.97L294.46,104.5L364.14,54.09L433.81,53.11L503.48,17.72L573.15,107.51L642.82,109.3L712.49,108.45L782.16,103.94"/></g><g class="points"><path class="point" transform="translate(85.45,108.29)" style="opacity: 1; stroke-width: 0px; fill: rgb(199, 86, 111); fill-opacity: 1;" d="M3,0A3,3 0 1,1 0,-3A3,3 0 0,1 3,0Z"/><path class="point" transform="translate(155.12,60.2)" style="opacity: 1; stroke-width: 0px; fill: rgb(199, 86, 111); fill-opacity: 1;" d="M3,0A3,3 0 1,1 0,-3A3,3 0 0,1 3,0Z"/><path class="point" transform="translate(224.79,107.97)" style="opacity: 1; stroke-width: 0px; fill: rgb(199, 86, 111); fill-opacity: 1;" d="M3,0A3,3 0 1,1 0,-3A3,3 0 0,1 3,0Z"/><path class="point" transform="translate(294.46,104.5)" style="opacity: 1; stroke-width: 0px; fill: rgb(199, 86, 111); fill-opacity: 1;" d="M3,0A3,3 0 1,1 0,-3A3,3 0 0,1 3,0Z"/><path class="point" transform="translate(364.14,54.09)" style="opacity: 1; stroke-width: 0px; fill: rgb(199, 86, 111); fill-opacity: 1;" d="M3,0A3,3 0 1,1 0,-3A3,3 0 0,1 3,0Z"/><path class="point" transform="translate(433.81,53.11)" style="opacity: 1; stroke-width: 0px; fill: rgb(199, 86, 111); fill-opacity: 1;" d="M3,0A3,3 0 1,1 0,-3A3,3 0 0,1 3,0Z"/><path class="point" transform="translate(503.48,17.72)" style="opacity: 1; stroke-width: 0px; fill: rgb(199, 86, 111); fill-opacity: 1;" d="M3,0A3,3 0 1,1 0,-3A3,3 0 0,1 3,0Z"/><path class="point" transform="translate(573.15,107.51)" style="opacity: 1; stroke-width: 0px; fill: rgb(199, 86, 111); fill-opacity: 1;" d="M3,0A3,3 0 1,1 0,-3A3,3 0 0,1 3,0Z"/><path class="point" transform="translate(642.82,109.3)" style="opacity: 1; stroke-width: 0px; fill: rgb(199, 86, 111); fill-opacity: 1;" d="M3,0A3,3 0 1,1 0,-3A3,3 0 0,1 3,0Z"/><path class="point" transform="translate(712.49,108.45)" style="opacity: 1; stroke-width: 0px; fill: rgb(199, 86, 111); fill-opacity: 1;" d="M3,0A3,3 0 1,1 0,-3A3,3 0 0,1 3,0Z"/><path class="point" transform="translate(782.16,103.94)" style="opacity: 1; stroke-width: 0px; fill: rgb(199, 86, 111); fill-opacity: 1;" d="M3,0A3,3 0 1,1 0,-3A3,3 0 0,1 3,0Z"/></g><g class="text"/></g><g class="trace scatter trace0d8ece" style="stroke-miterlimit: 2; opacity: 1;"><g class="fills"/><g class="errorbars"><g class="errorbar"><path style="vector-effect: non-scaling-stroke; stroke-width: 2px; stroke: rgb(87, 191, 103); stroke-opacity: 1;" class="yerror" d="M847.84,107.73h8m-4,0V108.71m-4,0h8"/></g><g class="errorbar"><path style="vector-effect: non-scaling-stroke; stroke-width: 2px; stroke: rgb(87, 191, 103); stroke-opacity: 1;" class="yerror" d="M917.51,105.11h8m-4,0V107.31m-4,0h8"/></g><g class="errorbar"><path style="vector-effect: non-scaling-stroke; stroke-width: 2px; stroke: rgb(87, 191, 103); stroke-opacity: 1;" class="yerror" d="M987.18,108.21h8m-4,0V108.52m-4,0h8"/></g><g class="errorbar"><path style="vector-effect: non-scaling-stroke; stroke-width: 2px; stroke: rgb(87, 191, 103); stroke-opacity: 1;" class="yerror" d="M1056.85,108.49h8m-4,0V109.23m-4,0h8"/></g><g class="errorbar"><path style="vector-effect: non-scaling-stroke; stroke-width: 2px; stroke: rgb(87, 191, 103); stroke-opacity: 1;" class="yerror" d="M1126.52,103.06h8m-4,0V107.82m-4,0h8"/></g><g class="errorbar"><path style="vector-effect: non-scaling-stroke; stroke-width: 2px; stroke: rgb(87, 191, 103); stroke-opacity: 1;" class="yerror" d="M1196.19,103.62h8m-4,0V106.37m-4,0h8"/></g><g class="errorbar"><path style="vector-effect: non-scaling-stroke; stroke-width: 2px; stroke: rgb(87, 191, 103); stroke-opacity: 1;" class="yerror" d="M1265.86,100.85h8m-4,0V106.59m-4,0h8"/></g><g class="errorbar"><path style="vector-effect: non-scaling-stroke; stroke-width: 2px; stroke: rgb(87, 191, 103); stroke-opacity: 1;" class="yerror" d="M1335.54,108.57h8m-4,0V108.87m-4,0h8"/></g><g class="errorbar"><path style="vector-effect: non-scaling-stroke; stroke-width: 2px; stroke: rgb(87, 191, 103); stroke-opacity: 1;" class="yerror" d="M1405.21,108.49h8m-4,0V108.76m-4,0h8"/></g><g class="errorbar"><path style="vector-effect: non-scaling-stroke; stroke-width: 2px; stroke: rgb(87, 191, 103); stroke-opacity: 1;" class="yerror" d="M1474.88,108.36h8m-4,0V108.8m-4,0h8"/></g><g class="errorbar"><path style="vector-effect: non-scaling-stroke; stroke-width: 2px; stroke: rgb(87, 191, 103); stroke-opacity: 1;" class="yerror" d="M1544.55,108.32h8m-4,0V108.8m-4,0h8"/></g></g><g class="lines"><path class="js-line" style="vector-effect: non-scaling-stroke; fill: none; stroke: rgb(87, 191, 103); stroke-opacity: 1; stroke-width: 2px; opacity: 1;" d="M851.84,108.22L921.51,106.21L991.18,108.36L1060.85,108.86L1130.52,105.44L1200.19,105L1269.86,103.72L1339.54,108.72L1409.21,108.63L1548.55,108.56"/></g><g class="points"><path class="point" transform="translate(851.84,108.22)" style="opacity: 1; stroke-width: 0px; fill: rgb(87, 191, 103); fill-opacity: 1;" d="M3,0A3,3 0 1,1 0,-3A3,3 0 0,1 3,0Z"/><path class="point" transform="translate(921.51,106.21)" style="opacity: 1; stroke-width: 0px; fill: rgb(87, 191, 103); fill-opacity: 1;" d="M3,0A3,3 0 1,1 0,-3A3,3 0 0,1 3,0Z"/><path class="point" transform="translate(991.18,108.36)" style="opacity: 1; stroke-width: 0px; fill: rgb(87, 191, 103); fill-opacity: 1;" d="M3,0A3,3 0 1,1 0,-3A3,3 0 0,1 3,0Z"/><path class="point" transform="translate(1060.85,108.86)" style="opacity: 1; stroke-width: 0px; fill: rgb(87, 191, 103); fill-opacity: 1;" d="M3,0A3,3 0 1,1 0,-3A3,3 0 0,1 3,0Z"/><path class="point" transform="translate(1130.52,105.44)" style="opacity: 1; stroke-width: 0px; fill: rgb(87, 191, 103); fill-opacity: 1;" d="M3,0A3,3 0 1,1 0,-3A3,3 0 0,1 3,0Z"/><path class="point" transform="translate(1200.19,105)" style="opacity: 1; stroke-width: 0px; fill: rgb(87, 191, 103); fill-opacity: 1;" d="M3,0A3,3 0 1,1 0,-3A3,3 0 0,1 3,0Z"/><path class="point" transform="translate(1269.86,103.72)" style="opacity: 1; stroke-width: 0px; fill: rgb(87, 191, 103); fill-opacity: 1;" d="M3,0A3,3 0 1,1 0,-3A3,3 0 0,1 3,0Z"/><path class="point" transform="translate(1339.54,108.72)" style="opacity: 1; stroke-width: 0px; fill: rgb(87, 191, 103); fill-opacity: 1;" d="M3,0A3,3 0 1,1 0,-3A3,3 0 0,1 3,0Z"/><path class="point" transform="translate(1409.21,108.63)" style="opacity: 1; stroke-width: 0px; fill: rgb(87, 191, 103); fill-opacity: 1;" d="M3,0A3,3 0 1,1 0,-3A3,3 0 0,1 3,0Z"/><path class="point" transform="translate(1478.88,108.58)" style="opacity: 1; stroke-width: 0px; fill: rgb(87, 191, 103); fill-opacity: 1;" d="M3,0A3,3 0 1,1 0,-3A3,3 0 0,1 3,0Z"/><path class="point" transform="translate(1548.55,108.56)" style="opacity: 1; stroke-width: 0px; fill: rgb(87, 191, 103); fill-opacity: 1;" d="M3,0A3,3 0 1,1 0,-3A3,3 0 0,1 3,0Z"/></g><g class="text"/></g></g></g><g class="overplot"/><path class="xlines-above crisp" style="fill: none;" d="M0,0"/><path class="ylines-above crisp" style="fill: none;" d="M0,0"/><g class="overlines-above"/><g class="xaxislayer-above"><path class="xdivider crisp" style="stroke: rgb(68, 68, 68); stroke-opacity: 1; stroke-width: 1px;" transform="translate(1663.39,0)" d="M0,220v34.5"/><path class="xdivider crisp" style="stroke: rgb(68, 68, 68); stroke-opacity: 1; stroke-width: 1px;" transform="translate(897,0)" d="M0,220v34.5"/><path class="xdivider crisp" style="stroke: rgb(68, 68, 68); stroke-opacity: 1; stroke-width: 1px;" transform="translate(130.61,0)" d="M0,220v34.5"/><g class="xtick"><text text-anchor="middle" x="0" y="232" style="font-family: TOBESTRIPPEDOpen SansTOBESTRIPPED, verdana, arial, sans-serif; font-size: 12px; fill: rgb(68, 68, 68); fill-opacity: 1; white-space: pre; opacity: 1;" transform="translate(165.45,0)">ctrl1</text></g><g class="xtick"><text text-anchor="middle" x="0" y="232" style="font-family: TOBESTRIPPEDOpen SansTOBESTRIPPED, verdana, arial, sans-serif; font-size: 12px; fill: rgb(68, 68, 68); fill-opacity: 1; white-space: pre; opacity: 1;" transform="translate(235.12,0)">N-</text></g><g class="xtick"><text text-anchor="middle" x="0" y="232" style="font-family: TOBESTRIPPEDOpen SansTOBESTRIPPED, verdana, arial, sans-serif; font-size: 12px; fill: rgb(68, 68, 68); fill-opacity: 1; white-space: pre; opacity: 1;" transform="translate(304.78999999999996,0)">eL</text></g><g class="xtick"><text text-anchor="middle" x="0" y="232" style="font-family: TOBESTRIPPEDOpen SansTOBESTRIPPED, verdana, arial, sans-serif; font-size: 12px; fill: rgb(68, 68, 68); fill-opacity: 1; white-space: pre; opacity: 1;" transform="translate(374.46,0)">cold</text></g><g class="xtick"><text text-anchor="middle" x="0" y="232" style="font-family: TOBESTRIPPEDOpen SansTOBESTRIPPED, verdana, arial, sans-serif; font-size: 12px; fill: rgb(68, 68, 68); fill-opacity: 1; white-space: pre; opacity: 1;" transform="translate(444.14,0)">N-eL</text></g><g class="xtick"><text text-anchor="middle" x="0" y="232" style="font-family: TOBESTRIPPEDOpen SansTOBESTRIPPED, verdana, arial, sans-serif; font-size: 12px; fill: rgb(68, 68, 68); fill-opacity: 1; white-space: pre; opacity: 1;" transform="translate(513.81,0)">N-cold</text></g><g class="xtick"><text text-anchor="middle" x="0" y="232" style="font-family: TOBESTRIPPEDOpen SansTOBESTRIPPED, verdana, arial, sans-serif; font-size: 12px; fill: rgb(68, 68, 68); fill-opacity: 1; white-space: pre; opacity: 1;" transform="translate(583.48,0)">N-eLcold</text></g><g class="xtick"><text text-anchor="middle" x="0" y="232" style="font-family: TOBESTRIPPEDOpen SansTOBESTRIPPED, verdana, arial, sans-serif; font-size: 12px; fill: rgb(68, 68, 68); fill-opacity: 1; white-space: pre; opacity: 1;" transform="translate(653.15,0)">ctrl2</text></g><g class="xtick"><text text-anchor="middle" x="0" y="232" style="font-family: TOBESTRIPPEDOpen SansTOBESTRIPPED, verdana, arial, sans-serif; font-size: 12px; fill: rgb(68, 68, 68); fill-opacity: 1; white-space: pre; opacity: 1;" transform="translate(722.82,0)">warm</text></g><g class="xtick"><text text-anchor="middle" x="0" y="232" style="font-family: TOBESTRIPPEDOpen SansTOBESTRIPPED, verdana, arial, sans-serif; font-size: 12px; fill: rgb(68, 68, 68); fill-opacity: 1; white-space: pre; opacity: 1;" transform="translate(792.49,0)">ctrl3</text></g><g class="xtick"><text text-anchor="middle" x="0" y="232" style="font-family: TOBESTRIPPEDOpen SansTOBESTRIPPED, verdana, arial, sans-serif; font-size: 12px; fill: rgb(68, 68, 68); fill-opacity: 1; white-space: pre; opacity: 1;" transform="translate(862.16,0)">eLcold</text></g><g class="xtick"><text text-anchor="middle" x="0" y="232" style="font-family: TOBESTRIPPEDOpen SansTOBESTRIPPED, verdana, arial, sans-serif; font-size: 12px; fill: rgb(68, 68, 68); fill-opacity: 1; white-space: pre; opacity: 1;" transform="translate(931.84,0)">ctrl1</text></g><g class="xtick"><text text-anchor="middle" x="0" y="232" style="font-family: TOBESTRIPPEDOpen SansTOBESTRIPPED, verdana, arial, sans-serif; font-size: 12px; fill: rgb(68, 68, 68); fill-opacity: 1; white-space: pre; opacity: 1;" transform="translate(1001.51,0)">N-</text></g><g class="xtick"><text text-anchor="middle" x="0" y="232" style="font-family: TOBESTRIPPEDOpen SansTOBESTRIPPED, verdana, arial, sans-serif; font-size: 12px; fill: rgb(68, 68, 68); fill-opacity: 1; white-space: pre; opacity: 1;" transform="translate(1071.1799999999998,0)">eL</text></g><g class="xtick"><text text-anchor="middle" x="0" y="232" style="font-family: TOBESTRIPPEDOpen SansTOBESTRIPPED, verdana, arial, sans-serif; font-size: 12px; fill: rgb(68, 68, 68); fill-opacity: 1; white-space: pre; opacity: 1;" transform="translate(1140.85,0)">cold</text></g><g class="xtick"><text text-anchor="middle" x="0" y="232" style="font-family: TOBESTRIPPEDOpen SansTOBESTRIPPED, verdana, arial, sans-serif; font-size: 12px; fill: rgb(68, 68, 68); fill-opacity: 1; white-space: pre; opacity: 1;" transform="translate(1210.52,0)">N-eL</text></g><g class="xtick"><text text-anchor="middle" x="0" y="232" style="font-family: TOBESTRIPPEDOpen SansTOBESTRIPPED, verdana, arial, sans-serif; font-size: 12px; fill: rgb(68, 68, 68); fill-opacity: 1; white-space: pre; opacity: 1;" transform="translate(1280.19,0)">N-cold</text></g><g class="xtick"><text text-anchor="middle" x="0" y="232" style="font-family: TOBESTRIPPEDOpen SansTOBESTRIPPED, verdana, arial, sans-serif; font-size: 12px; fill: rgb(68, 68, 68); fill-opacity: 1; white-space: pre; opacity: 1;" transform="translate(1349.86,0)">N-eLcold</text></g><g class="xtick"><text text-anchor="middle" x="0" y="232" style="font-family: TOBESTRIPPEDOpen SansTOBESTRIPPED, verdana, arial, sans-serif; font-size: 12px; fill: rgb(68, 68, 68); fill-opacity: 1; white-space: pre; opacity: 1;" transform="translate(1419.54,0)">ctrl2</text></g><g class="xtick"><text text-anchor="middle" x="0" y="232" style="font-family: TOBESTRIPPEDOpen SansTOBESTRIPPED, verdana, arial, sans-serif; font-size: 12px; fill: rgb(68, 68, 68); fill-opacity: 1; white-space: pre; opacity: 1;" transform="translate(1489.21,0)">warm</text></g><g class="xtick"><text text-anchor="middle" x="0" y="232" style="font-family: TOBESTRIPPEDOpen SansTOBESTRIPPED, verdana, arial, sans-serif; font-size: 12px; fill: rgb(68, 68, 68); fill-opacity: 1; white-space: pre; opacity: 1;" transform="translate(1558.88,0)">ctrl3</text></g><g class="xtick"><text text-anchor="middle" x="0" y="232" style="font-family: TOBESTRIPPEDOpen SansTOBESTRIPPED, verdana, arial, sans-serif; font-size: 12px; fill: rgb(68, 68, 68); fill-opacity: 1; white-space: pre; opacity: 1;" transform="translate(1628.55,0)">eLcold</text></g><g class="xtick2"><text text-anchor="middle" x="0" y="250" style="font-family: TOBESTRIPPEDOpen SansTOBESTRIPPED, verdana, arial, sans-serif; font-size: 12px; fill: rgb(68, 68, 68); fill-opacity: 1; white-space: pre; opacity: 1;" transform="translate(513.81,0)">S_lycopersicum</text></g><g class="xtick2"><text text-anchor="middle" x="0" y="250" style="font-family: TOBESTRIPPEDOpen SansTOBESTRIPPED, verdana, arial, sans-serif; font-size: 12px; fill: rgb(68, 68, 68); fill-opacity: 1; white-space: pre; opacity: 1;" transform="translate(1280.19,0)">S_pennellii</text></g></g><g class="yaxislayer-above"><g class="ytick"><text text-anchor="end" x="79" y="4.199999999999999" style="font-family: TOBESTRIPPEDOpen SansTOBESTRIPPED, verdana, arial, sans-serif; font-size: 12px; fill: rgb(68, 68, 68); fill-opacity: 1; white-space: pre; opacity: 1;" transform="translate(0,209.88)">0</text></g><g class="ytick"><text text-anchor="end" x="79" y="4.199999999999999" style="font-family: TOBESTRIPPEDOpen SansTOBESTRIPPED, verdana, arial, sans-serif; font-size: 12px; fill: rgb(68, 68, 68); fill-opacity: 1; white-space: pre; opacity: 1;" transform="translate(0,184.2)">200</text></g><g class="ytick"><text text-anchor="end" x="79" y="4.199999999999999" style="font-family: TOBESTRIPPEDOpen SansTOBESTRIPPED, verdana, arial, sans-serif; font-size: 12px; fill: rgb(68, 68, 68); fill-opacity: 1; white-space: pre; opacity: 1;" transform="translate(0,158.53)">400</text></g><g class="ytick"><text text-anchor="end" x="79" y="4.199999999999999" style="font-family: TOBESTRIPPEDOpen SansTOBESTRIPPED, verdana, arial, sans-serif; font-size: 12px; fill: rgb(68, 68, 68); fill-opacity: 1; white-space: pre; opacity: 1;" transform="translate(0,132.86)">600</text></g><g class="ytick"><text text-anchor="end" x="79" y="4.199999999999999" style="font-family: TOBESTRIPPEDOpen SansTOBESTRIPPED, verdana, arial, sans-serif; font-size: 12px; fill: rgb(68, 68, 68); fill-opacity: 1; white-space: pre; opacity: 1;" transform="translate(0,107.19)">800</text></g></g><g class="overaxes-above"/></g></g><g class="polarlayer"/><g class="smithlayer"/><g class="ternarylayer"/><g class="geolayer"/><g class="funnelarealayer"/><g class="pielayer"/><g class="iciclelayer"/><g class="treemaplayer"/><g class="sunburstlayer"/><g class="glimages"/><defs id="topdefs-48426a"><g class="clips"/><clipPath id="legend48426a"><rect width="238" height="29" x="0" y="0"/></clipPath></defs><g class="layer-above"><g class="imagelayer"/><g class="shapelayer"/></g><g class="infolayer"><g class="legend" pointer-events="all" transform="translate(80,254.70000000000002)"><rect class="bg" shape-rendering="crispEdges" style="stroke: rgb(68, 68, 68); stroke-opacity: 1; fill: rgb(255, 255, 255); fill-opacity: 1; stroke-width: 0px;" width="238" height="29" x="0" y="0"/><g class="scrollbox" transform="" clip-path="url(#legend48426a)"><g class="groups"><g class="traces" style="opacity: 1;" transform="translate(0,14.5)"><text class="legendtext" text-anchor="start" style="font-family: TOBESTRIPPEDOpen SansTOBESTRIPPED, verdana, arial, sans-serif; font-size: 12px; fill: rgb(68, 68, 68); fill-opacity: 1; white-space: pre;" x="40" y="4.680000000000001">S_lycopersicum</text><g class="layers" style="opacity: 1;"><g class="legendfill"/><g class="legendlines"><path class="js-line" d="M5,0h30" style="fill: none; stroke: rgb(199, 86, 111); stroke-opacity: 1; stroke-width: 2px;"/></g><g class="legendsymbols"><g class="legendpoints"><path class="scatterpts" transform="translate(20,0)" style="opacity: 1; stroke-width: 0px; fill: rgb(199, 86, 111); fill-opacity: 1;" d="M3,0A3,3 0 1,1 0,-3A3,3 0 0,1 3,0Z"/></g></g></g><rect class="legendtoggle" style="fill: rgb(0, 0, 0); fill-opacity: 0;" x="0" y="-9.5" width="129.1666717529297" height="19"/></g><g class="traces" style="opacity: 1;" transform="translate(131.6666717529297,14.5)"><text class="legendtext" text-anchor="start" style="font-family: TOBESTRIPPEDOpen SansTOBESTRIPPED, verdana, arial, sans-serif; font-size: 12px; fill: rgb(68, 68, 68); fill-opacity: 1; white-space: pre;" x="40" y="4.680000000000001">S_pennellii</text><g class="layers" style="opacity: 1;"><g class="legendfill"/><g class="legendlines"><path class="js-line" d="M5,0h30" style="fill: none; stroke: rgb(87, 191, 103); stroke-opacity: 1; stroke-width: 2px;"/></g><g class="legendsymbols"><g class="legendpoints"><path class="scatterpts" transform="translate(20,0)" style="opacity: 1; stroke-width: 0px; fill: rgb(87, 191, 103); fill-opacity: 1;" d="M3,0A3,3 0 1,1 0,-3A3,3 0 0,1 3,0Z"/></g></g></g><rect class="legendtoggle" style="fill: rgb(0, 0, 0); fill-opacity: 0;" x="0" y="-9.5" width="103.19999694824219" height="19"/></g></g></g><rect class="scrollbar" rx="20" ry="3" width="0" height="0" style="fill: rgb(128, 139, 164); fill-opacity: 1;" x="0" y="0"/></g><g class="g-gtitle"><text class="gtitle" style="font-family: TOBESTRIPPEDOpen SansTOBESTRIPPED, verdana, arial, sans-serif; font-size: 20px; fill: rgb(68, 68, 68); opacity: 1; font-weight: normal; white-space: pre;" x="897" y="29.873299999999972" text-anchor="middle" dy="0.7em">Individual lines plot of Solyc05g053550.3.1 (Chalcone synthase) expression profile</text></g><g class="g-xtitle"/><g class="g-ytitle"><text class="ytitle" transform="rotate(-90,42,159.5)" style="font-family: TOBESTRIPPEDOpen SansTOBESTRIPPED, verdana, arial, sans-serif; font-size: 14px; fill: rgb(68, 68, 68); opacity: 1; font-weight: normal; white-space: pre;" x="42" y="159.5" text-anchor="middle">count [raw]</text></g></g></svg>