<svg class="main-svg" xmlns="http://www.w3.org/2000/svg" xmlns:xlink="http://www.w3.org/1999/xlink" width="1794" height="482.717" style="" viewBox="0 0 1794 482.717"><rect x="0" y="0" width="1794" height="482.717" style="fill: rgb(255, 255, 255); fill-opacity: 1;"/><defs id="defs-cfb15f"><g class="clips"><clipPath id="clipcfb15fxyplot" class="plotclip"><rect width="1634" height="263"/></clipPath><clipPath class="axesclip" id="clipcfb15fx"><rect x="80" y="0" width="1634" height="482.717"/></clipPath><clipPath class="axesclip" id="clipcfb15fy"><rect x="0" y="100" width="1794" height="263"/></clipPath><clipPath class="axesclip" id="clipcfb15fxy"><rect x="80" y="100" width="1634" height="263"/></clipPath></g><g class="gradients"/><g class="patterns"/></defs><g class="bglayer"/><g class="layer-below"><g class="imagelayer"/><g class="shapelayer"/></g><g class="cartesianlayer"><g class="subplot xy"><g class="layer-subplot"><g class="shapelayer"/><g class="imagelayer"/></g><g class="gridlayer"><g class="x"/><g class="y"><path class="ygrid crisp" transform="translate(0,300.63)" d="M80,0h1634" style="stroke: rgb(238, 238, 238); stroke-opacity: 1; stroke-width: 1px;"/><path class="ygrid crisp" transform="translate(0,238.25)" d="M80,0h1634" style="stroke: rgb(238, 238, 238); stroke-opacity: 1; stroke-width: 1px;"/><path class="ygrid crisp" transform="translate(0,175.88)" d="M80,0h1634" style="stroke: rgb(238, 238, 238); stroke-opacity: 1; stroke-width: 1px;"/><path class="ygrid crisp" transform="translate(0,113.5)" d="M80,0h1634" style="stroke: rgb(238, 238, 238); stroke-opacity: 1; stroke-width: 1px;"/></g></g><g class="zerolinelayer"><path class="yzl zl crisp" transform="translate(0,363)" d="M80,0h1634" style="stroke: rgb(68, 68, 68); stroke-opacity: 1; stroke-width: 1px;"/></g><path class="xlines-below"/><path class="ylines-below"/><g class="overlines-below"/><g class="xaxislayer-below"/><g class="yaxislayer-below"/><g class="overaxes-below"/><g class="plot" transform="translate(80,100)" clip-path="url(#clipcfb15fxyplot)"><g class="barlayer mlayer"><g class="trace bars" style="opacity: 1;"><g class="points"><g class="point"><path style="vector-effect: non-scaling-stroke; opacity: 1; stroke-width: 0px; fill: rgb(199, 86, 111); fill-opacity: 1;" d="M9.08,263V243.12H45.39V263Z"/></g><g class="point"><path style="vector-effect: non-scaling-stroke; opacity: 1; stroke-width: 0px; fill: rgb(199, 86, 111); fill-opacity: 1;" d="M99.86,263V240.86H136.17V263Z"/></g><g class="point"><path style="vector-effect: non-scaling-stroke; opacity: 1; stroke-width: 0px; fill: rgb(199, 86, 111); fill-opacity: 1;" d="M190.63,263V225H226.94V263Z"/></g><g class="point"><path style="vector-effect: non-scaling-stroke; opacity: 1; stroke-width: 0px; fill: rgb(199, 86, 111); fill-opacity: 1;" d="M281.41,263V188.9H317.72V263Z"/></g><g class="point"><path style="vector-effect: non-scaling-stroke; opacity: 1; stroke-width: 0px; fill: rgb(199, 86, 111); fill-opacity: 1;" d="M372.19,263V160.34H408.5V263Z"/></g><g class="point"><path style="vector-effect: non-scaling-stroke; opacity: 1; stroke-width: 0px; fill: rgb(199, 86, 111); fill-opacity: 1;" d="M462.97,263V147.68H499.28V263Z"/></g><g class="point"><path style="vector-effect: non-scaling-stroke; opacity: 1; stroke-width: 0px; fill: rgb(199, 86, 111); fill-opacity: 1;" d="M553.74,263V247.88H590.06V263Z"/></g><g class="point"><path style="vector-effect: non-scaling-stroke; opacity: 1; stroke-width: 0px; fill: rgb(199, 86, 111); fill-opacity: 1;" d="M644.52,263V238.02H680.83V263Z"/></g><g class="point"><path style="vector-effect: non-scaling-stroke; opacity: 1; stroke-width: 0px; fill: rgb(199, 86, 111); fill-opacity: 1;" d="M735.3,263V220.06H771.61V263Z"/></g><g class="point"><path style="vector-effect: non-scaling-stroke; opacity: 1; stroke-width: 0px; fill: rgb(199, 86, 111); fill-opacity: 1;" d="M826.08,263V246.08H862.39V263Z"/></g><g class="point"><path style="vector-effect: non-scaling-stroke; opacity: 1; stroke-width: 0px; fill: rgb(199, 86, 111); fill-opacity: 1;" d="M916.86,263V232.97H953.17V263Z"/></g><g class="point"><path style="vector-effect: non-scaling-stroke; opacity: 1; stroke-width: 0px; fill: rgb(199, 86, 111); fill-opacity: 1;" d="M1007.63,263V226.38H1043.94V263Z"/></g><g class="point"><path style="vector-effect: non-scaling-stroke; opacity: 1; stroke-width: 0px; fill: rgb(199, 86, 111); fill-opacity: 1;" d="M1098.41,263V187.55H1134.72V263Z"/></g><g class="point"><path style="vector-effect: non-scaling-stroke; opacity: 1; stroke-width: 0px; fill: rgb(199, 86, 111); fill-opacity: 1;" d="M1189.19,263V168.66H1225.5V263Z"/></g><g class="point"><path style="vector-effect: non-scaling-stroke; opacity: 1; stroke-width: 0px; fill: rgb(199, 86, 111); fill-opacity: 1;" d="M1279.97,263V140.19H1316.28V263Z"/></g><g class="point"><path style="vector-effect: non-scaling-stroke; opacity: 1; stroke-width: 0px; fill: rgb(199, 86, 111); fill-opacity: 1;" d="M1370.74,263V172.01H1407.06V263Z"/></g><g class="point"><path style="vector-effect: non-scaling-stroke; opacity: 1; stroke-width: 0px; fill: rgb(199, 86, 111); fill-opacity: 1;" d="M1461.52,263V168.8H1497.83V263Z"/></g><g class="point"><path style="vector-effect: non-scaling-stroke; opacity: 1; stroke-width: 0px; fill: rgb(199, 86, 111); fill-opacity: 1;" d="M1552.3,263V153.41H1588.61V263Z"/></g></g><g class="errorbar"><path style="vector-effect: non-scaling-stroke; stroke-width: 2px; stroke: rgb(68, 68, 68); stroke-opacity: 1;" class="yerror" d="M23.23,240.13h8m-4,0V246.1m-4,0h8"/></g><g class="errorbar"><path style="vector-effect: non-scaling-stroke; stroke-width: 2px; stroke: rgb(68, 68, 68); stroke-opacity: 1;" class="yerror" d="M114.01,236.13h8m-4,0V245.6m-4,0h8"/></g><g class="errorbar"><path style="vector-effect: non-scaling-stroke; stroke-width: 2px; stroke: rgb(68, 68, 68); stroke-opacity: 1;" class="yerror" d="M204.79,213.66h8m-4,0V236.33m-4,0h8"/></g><g class="errorbar"><path style="vector-effect: non-scaling-stroke; stroke-width: 2px; stroke: rgb(68, 68, 68); stroke-opacity: 1;" class="yerror" d="M295.57,185.68h8m-4,0V192.12m-4,0h8"/></g><g class="errorbar"><path style="vector-effect: non-scaling-stroke; stroke-width: 2px; stroke: rgb(68, 68, 68); stroke-opacity: 1;" class="yerror" d="M386.34,157.92h8m-4,0V162.76m-4,0h8"/></g><g class="errorbar"><path style="vector-effect: non-scaling-stroke; stroke-width: 2px; stroke: rgb(68, 68, 68); stroke-opacity: 1;" class="yerror" d="M477.12,136.68h8m-4,0V158.67m-4,0h8"/></g><g class="errorbar"><path style="vector-effect: non-scaling-stroke; stroke-width: 2px; stroke: rgb(68, 68, 68); stroke-opacity: 1;" class="yerror" d="M567.9,245.67h8m-4,0V250.09m-4,0h8"/></g><g class="errorbar"><path style="vector-effect: non-scaling-stroke; stroke-width: 2px; stroke: rgb(68, 68, 68); stroke-opacity: 1;" class="yerror" d="M658.68,234.54h8m-4,0V241.51m-4,0h8"/></g><g class="errorbar"><path style="vector-effect: non-scaling-stroke; stroke-width: 2px; stroke: rgb(68, 68, 68); stroke-opacity: 1;" class="yerror" d="M749.46,213.98h8m-4,0V226.15m-4,0h8"/></g><g class="errorbar"><path style="vector-effect: non-scaling-stroke; stroke-width: 2px; stroke: rgb(68, 68, 68); stroke-opacity: 1;" class="yerror" d="M840.23,244.32h8m-4,0V247.83m-4,0h8"/></g><g class="errorbar"><path style="vector-effect: non-scaling-stroke; stroke-width: 2px; stroke: rgb(68, 68, 68); stroke-opacity: 1;" class="yerror" d="M931.01,225.29h8m-4,0V240.65m-4,0h8"/></g><g class="errorbar"><path style="vector-effect: non-scaling-stroke; stroke-width: 2px; stroke: rgb(68, 68, 68); stroke-opacity: 1;" class="yerror" d="M1021.79,208.58h8m-4,0V244.18m-4,0h8"/></g><g class="errorbar"><path style="vector-effect: non-scaling-stroke; stroke-width: 2px; stroke: rgb(68, 68, 68); stroke-opacity: 1;" class="yerror" d="M1112.57,177.77h8m-4,0V197.33m-4,0h8"/></g><g class="errorbar"><path style="vector-effect: non-scaling-stroke; stroke-width: 2px; stroke: rgb(68, 68, 68); stroke-opacity: 1;" class="yerror" d="M1203.34,154.38h8m-4,0V182.94m-4,0h8"/></g><g class="errorbar"><path style="vector-effect: non-scaling-stroke; stroke-width: 2px; stroke: rgb(68, 68, 68); stroke-opacity: 1;" class="yerror" d="M1294.12,134.51h8m-4,0V145.87m-4,0h8"/></g><g class="errorbar"><path style="vector-effect: non-scaling-stroke; stroke-width: 2px; stroke: rgb(68, 68, 68); stroke-opacity: 1;" class="yerror" d="M1384.9,157.11h8m-4,0V186.9m-4,0h8"/></g><g class="errorbar"><path style="vector-effect: non-scaling-stroke; stroke-width: 2px; stroke: rgb(68, 68, 68); stroke-opacity: 1;" class="yerror" d="M1475.68,158.82h8m-4,0V178.78m-4,0h8"/></g><g class="errorbar"><path style="vector-effect: non-scaling-stroke; stroke-width: 2px; stroke: rgb(68, 68, 68); stroke-opacity: 1;" class="yerror" d="M1566.46,145.16h8m-4,0V161.66m-4,0h8"/></g></g><g class="trace bars" style="opacity: 1;"><g class="points"><g class="point"><path style="vector-effect: non-scaling-stroke; opacity: 1; stroke-width: 0px; fill: rgb(87, 191, 103); fill-opacity: 1;" d="M45.39,263V135.47H81.7V263Z"/></g><g class="point"><path style="vector-effect: non-scaling-stroke; opacity: 1; stroke-width: 0px; fill: rgb(87, 191, 103); fill-opacity: 1;" d="M136.17,263V149.81H172.48V263Z"/></g><g class="point"><path style="vector-effect: non-scaling-stroke; opacity: 1; stroke-width: 0px; fill: rgb(87, 191, 103); fill-opacity: 1;" d="M226.94,263V151.34H263.26V263Z"/></g><g class="point"><path style="vector-effect: non-scaling-stroke; opacity: 1; stroke-width: 0px; fill: rgb(87, 191, 103); fill-opacity: 1;" d="M317.72,263V24.55H354.03V263Z"/></g><g class="point"><path style="vector-effect: non-scaling-stroke; opacity: 1; stroke-width: 0px; fill: rgb(87, 191, 103); fill-opacity: 1;" d="M408.5,263V106.81H444.81V263Z"/></g><g class="point"><path style="vector-effect: non-scaling-stroke; opacity: 1; stroke-width: 0px; fill: rgb(87, 191, 103); fill-opacity: 1;" d="M499.28,263V155.37H535.59V263Z"/></g><g class="point"><path style="vector-effect: non-scaling-stroke; opacity: 1; stroke-width: 0px; fill: rgb(87, 191, 103); fill-opacity: 1;" d="M590.06,263V140.28H626.37V263Z"/></g><g class="point"><path style="vector-effect: non-scaling-stroke; opacity: 1; stroke-width: 0px; fill: rgb(87, 191, 103); fill-opacity: 1;" d="M680.83,263V149.89H717.14V263Z"/></g><g class="point"><path style="vector-effect: non-scaling-stroke; opacity: 1; stroke-width: 0px; fill: rgb(87, 191, 103); fill-opacity: 1;" d="M771.61,263V156.14H807.92V263Z"/></g><g class="point"><path style="vector-effect: non-scaling-stroke; opacity: 1; stroke-width: 0px; fill: rgb(87, 191, 103); fill-opacity: 1;" d="M862.39,263V117.38H898.7V263Z"/></g><g class="point"><path style="vector-effect: non-scaling-stroke; opacity: 1; stroke-width: 0px; fill: rgb(87, 191, 103); fill-opacity: 1;" d="M953.17,263V129.26H989.48V263Z"/></g><g class="point"><path style="vector-effect: non-scaling-stroke; opacity: 1; stroke-width: 0px; fill: rgb(87, 191, 103); fill-opacity: 1;" d="M1043.94,263V138.22H1080.26V263Z"/></g><g class="point"><path style="vector-effect: non-scaling-stroke; opacity: 1; stroke-width: 0px; fill: rgb(87, 191, 103); fill-opacity: 1;" d="M1134.72,263V76.05H1171.03V263Z"/></g><g class="point"><path style="vector-effect: non-scaling-stroke; opacity: 1; stroke-width: 0px; fill: rgb(87, 191, 103); fill-opacity: 1;" d="M1225.5,263V140.05H1261.81V263Z"/></g><g class="point"><path style="vector-effect: non-scaling-stroke; opacity: 1; stroke-width: 0px; fill: rgb(87, 191, 103); fill-opacity: 1;" d="M1316.28,263V181.71H1352.59V263Z"/></g><g class="point"><path style="vector-effect: non-scaling-stroke; opacity: 1; stroke-width: 0px; fill: rgb(87, 191, 103); fill-opacity: 1;" d="M1407.06,263V94.68H1443.37V263Z"/></g><g class="point"><path style="vector-effect: non-scaling-stroke; opacity: 1; stroke-width: 0px; fill: rgb(87, 191, 103); fill-opacity: 1;" d="M1497.83,263V143.04H1534.14V263Z"/></g><g class="point"><path style="vector-effect: non-scaling-stroke; opacity: 1; stroke-width: 0px; fill: rgb(87, 191, 103); fill-opacity: 1;" d="M1588.61,263V183.58H1624.92V263Z"/></g></g><g class="errorbar"><path style="vector-effect: non-scaling-stroke; stroke-width: 2px; stroke: rgb(68, 68, 68); stroke-opacity: 1;" class="yerror" d="M59.54,127.14h8m-4,0V143.8m-4,0h8"/></g><g class="errorbar"><path style="vector-effect: non-scaling-stroke; stroke-width: 2px; stroke: rgb(68, 68, 68); stroke-opacity: 1;" class="yerror" d="M150.32,140.42h8m-4,0V159.19m-4,0h8"/></g><g class="errorbar"><path style="vector-effect: non-scaling-stroke; stroke-width: 2px; stroke: rgb(68, 68, 68); stroke-opacity: 1;" class="yerror" d="M241.1,144.58h8m-4,0V158.09m-4,0h8"/></g><g class="errorbar"><path style="vector-effect: non-scaling-stroke; stroke-width: 2px; stroke: rgb(68, 68, 68); stroke-opacity: 1;" class="yerror" d="M331.88,13.15h8m-4,0V35.95m-4,0h8"/></g><g class="errorbar"><path style="vector-effect: non-scaling-stroke; stroke-width: 2px; stroke: rgb(68, 68, 68); stroke-opacity: 1;" class="yerror" d="M422.66,97.03h8m-4,0V116.59m-4,0h8"/></g><g class="errorbar"><path style="vector-effect: non-scaling-stroke; stroke-width: 2px; stroke: rgb(68, 68, 68); stroke-opacity: 1;" class="yerror" d="M513.43,138.27h8m-4,0V172.47m-4,0h8"/></g><g class="errorbar"><path style="vector-effect: non-scaling-stroke; stroke-width: 2px; stroke: rgb(68, 68, 68); stroke-opacity: 1;" class="yerror" d="M604.21,135.1h8m-4,0V145.46m-4,0h8"/></g><g class="errorbar"><path style="vector-effect: non-scaling-stroke; stroke-width: 2px; stroke: rgb(68, 68, 68); stroke-opacity: 1;" class="yerror" d="M694.99,145.11h8m-4,0V154.67m-4,0h8"/></g><g class="errorbar"><path style="vector-effect: non-scaling-stroke; stroke-width: 2px; stroke: rgb(68, 68, 68); stroke-opacity: 1;" class="yerror" d="M785.77,155.88h8m-4,0V156.4m-4,0h8"/></g><g class="errorbar"><path style="vector-effect: non-scaling-stroke; stroke-width: 2px; stroke: rgb(68, 68, 68); stroke-opacity: 1;" class="yerror" d="M876.54,111.38h8m-4,0V123.38m-4,0h8"/></g><g class="errorbar"><path style="vector-effect: non-scaling-stroke; stroke-width: 2px; stroke: rgb(68, 68, 68); stroke-opacity: 1;" class="yerror" d="M967.32,122.06h8m-4,0V136.46m-4,0h8"/></g><g class="errorbar"><path style="vector-effect: non-scaling-stroke; stroke-width: 2px; stroke: rgb(68, 68, 68); stroke-opacity: 1;" class="yerror" d="M1058.1,128.75h8m-4,0V147.69m-4,0h8"/></g><g class="errorbar"><path style="vector-effect: non-scaling-stroke; stroke-width: 2px; stroke: rgb(68, 68, 68); stroke-opacity: 1;" class="yerror" d="M1148.88,71.35h8m-4,0V80.75m-4,0h8"/></g><g class="errorbar"><path style="vector-effect: non-scaling-stroke; stroke-width: 2px; stroke: rgb(68, 68, 68); stroke-opacity: 1;" class="yerror" d="M1239.66,133.19h8m-4,0V146.9m-4,0h8"/></g><g class="errorbar"><path style="vector-effect: non-scaling-stroke; stroke-width: 2px; stroke: rgb(68, 68, 68); stroke-opacity: 1;" class="yerror" d="M1330.43,175.33h8m-4,0V188.1m-4,0h8"/></g><g class="errorbar"><path style="vector-effect: non-scaling-stroke; stroke-width: 2px; stroke: rgb(68, 68, 68); stroke-opacity: 1;" class="yerror" d="M1421.21,76.59h8m-4,0V112.78m-4,0h8"/></g><g class="errorbar"><path style="vector-effect: non-scaling-stroke; stroke-width: 2px; stroke: rgb(68, 68, 68); stroke-opacity: 1;" class="yerror" d="M1511.99,142.86h8m-4,0V143.23m-4,0h8"/></g><g class="errorbar"><path style="vector-effect: non-scaling-stroke; stroke-width: 2px; stroke: rgb(68, 68, 68); stroke-opacity: 1;" class="yerror" d="M1602.77,179.59h8m-4,0V187.57m-4,0h8"/></g></g></g></g><g class="overplot"/><path class="xlines-above crisp" style="fill: none;" d="M0,0"/><path class="ylines-above crisp" style="fill: none;" d="M0,0"/><g class="overlines-above"/><g class="xaxislayer-above"><path class="xdivider crisp" style="stroke: rgb(68, 68, 68); stroke-opacity: 1; stroke-width: 1px;" transform="translate(1714,0)" d="M0,364v34.5"/><path class="xdivider crisp" style="stroke: rgb(68, 68, 68); stroke-opacity: 1; stroke-width: 1px;" transform="translate(1441.67,0)" d="M0,364v34.5"/><path class="xdivider crisp" style="stroke: rgb(68, 68, 68); stroke-opacity: 1; stroke-width: 1px;" transform="translate(1169.33,0)" d="M0,364v34.5"/><path class="xdivider crisp" style="stroke: rgb(68, 68, 68); stroke-opacity: 1; stroke-width: 1px;" transform="translate(897,0)" d="M0,364v34.5"/><path class="xdivider crisp" style="stroke: rgb(68, 68, 68); stroke-opacity: 1; stroke-width: 1px;" transform="translate(624.67,0)" d="M0,364v34.5"/><path class="xdivider crisp" style="stroke: rgb(68, 68, 68); stroke-opacity: 1; stroke-width: 1px;" transform="translate(352.33,0)" d="M0,364v34.5"/><path class="xdivider crisp" style="stroke: rgb(68, 68, 68); stroke-opacity: 1; stroke-width: 1px;" transform="translate(80,0)" d="M0,364v34.5"/><g class="xtick"><text text-anchor="middle" x="0" y="376" style="font-family: TOBESTRIPPEDOpen SansTOBESTRIPPED, verdana, arial, sans-serif; font-size: 12px; fill: rgb(68, 68, 68); fill-opacity: 1; white-space: pre; opacity: 1;" transform="translate(125.39,0)">23DAT</text></g><g class="xtick"><text text-anchor="middle" x="0" y="376" style="font-family: TOBESTRIPPEDOpen SansTOBESTRIPPED, verdana, arial, sans-serif; font-size: 12px; fill: rgb(68, 68, 68); fill-opacity: 1; white-space: pre; opacity: 1;" transform="translate(216.17,0)">16DAT</text></g><g class="xtick"><text text-anchor="middle" x="0" y="376" style="font-family: TOBESTRIPPEDOpen SansTOBESTRIPPED, verdana, arial, sans-serif; font-size: 12px; fill: rgb(68, 68, 68); fill-opacity: 1; white-space: pre; opacity: 1;" transform="translate(306.94,0)">11DAT</text></g><g class="xtick"><text text-anchor="middle" x="0" y="376" style="font-family: TOBESTRIPPEDOpen SansTOBESTRIPPED, verdana, arial, sans-serif; font-size: 12px; fill: rgb(68, 68, 68); fill-opacity: 1; white-space: pre; opacity: 1;" transform="translate(397.72,0)">23DAT</text></g><g class="xtick"><text text-anchor="middle" x="0" y="376" style="font-family: TOBESTRIPPEDOpen SansTOBESTRIPPED, verdana, arial, sans-serif; font-size: 12px; fill: rgb(68, 68, 68); fill-opacity: 1; white-space: pre; opacity: 1;" transform="translate(488.5,0)">16DAT</text></g><g class="xtick"><text text-anchor="middle" x="0" y="376" style="font-family: TOBESTRIPPEDOpen SansTOBESTRIPPED, verdana, arial, sans-serif; font-size: 12px; fill: rgb(68, 68, 68); fill-opacity: 1; white-space: pre; opacity: 1;" transform="translate(579.28,0)">11DAT</text></g><g class="xtick"><text text-anchor="middle" x="0" y="376" style="font-family: TOBESTRIPPEDOpen SansTOBESTRIPPED, verdana, arial, sans-serif; font-size: 12px; fill: rgb(68, 68, 68); fill-opacity: 1; white-space: pre; opacity: 1;" transform="translate(670.06,0)">23DAT</text></g><g class="xtick"><text text-anchor="middle" x="0" y="376" style="font-family: TOBESTRIPPEDOpen SansTOBESTRIPPED, verdana, arial, sans-serif; font-size: 12px; fill: rgb(68, 68, 68); fill-opacity: 1; white-space: pre; opacity: 1;" transform="translate(760.83,0)">16DAT</text></g><g class="xtick"><text text-anchor="middle" x="0" y="376" style="font-family: TOBESTRIPPEDOpen SansTOBESTRIPPED, verdana, arial, sans-serif; font-size: 12px; fill: rgb(68, 68, 68); fill-opacity: 1; white-space: pre; opacity: 1;" transform="translate(851.61,0)">11DAT</text></g><g class="xtick"><text text-anchor="middle" x="0" y="376" style="font-family: TOBESTRIPPEDOpen SansTOBESTRIPPED, verdana, arial, sans-serif; font-size: 12px; fill: rgb(68, 68, 68); fill-opacity: 1; white-space: pre; opacity: 1;" transform="translate(942.39,0)">23DAT</text></g><g class="xtick"><text text-anchor="middle" x="0" y="376" style="font-family: TOBESTRIPPEDOpen SansTOBESTRIPPED, verdana, arial, sans-serif; font-size: 12px; fill: rgb(68, 68, 68); fill-opacity: 1; white-space: pre; opacity: 1;" transform="translate(1033.17,0)">16DAT</text></g><g class="xtick"><text text-anchor="middle" x="0" y="376" style="font-family: TOBESTRIPPEDOpen SansTOBESTRIPPED, verdana, arial, sans-serif; font-size: 12px; fill: rgb(68, 68, 68); fill-opacity: 1; white-space: pre; opacity: 1;" transform="translate(1123.94,0)">11DAT</text></g><g class="xtick"><text text-anchor="middle" x="0" y="376" style="font-family: TOBESTRIPPEDOpen SansTOBESTRIPPED, verdana, arial, sans-serif; font-size: 12px; fill: rgb(68, 68, 68); fill-opacity: 1; white-space: pre; opacity: 1;" transform="translate(1214.72,0)">23DAT</text></g><g class="xtick"><text text-anchor="middle" x="0" y="376" style="font-family: TOBESTRIPPEDOpen SansTOBESTRIPPED, verdana, arial, sans-serif; font-size: 12px; fill: rgb(68, 68, 68); fill-opacity: 1; white-space: pre; opacity: 1;" transform="translate(1305.5,0)">16DAT</text></g><g class="xtick"><text text-anchor="middle" x="0" y="376" style="font-family: TOBESTRIPPEDOpen SansTOBESTRIPPED, verdana, arial, sans-serif; font-size: 12px; fill: rgb(68, 68, 68); fill-opacity: 1; white-space: pre; opacity: 1;" transform="translate(1396.28,0)">11DAT</text></g><g class="xtick"><text text-anchor="middle" x="0" y="376" style="font-family: TOBESTRIPPEDOpen SansTOBESTRIPPED, verdana, arial, sans-serif; font-size: 12px; fill: rgb(68, 68, 68); fill-opacity: 1; white-space: pre; opacity: 1;" transform="translate(1487.06,0)">23DAT</text></g><g class="xtick"><text text-anchor="middle" x="0" y="376" style="font-family: TOBESTRIPPEDOpen SansTOBESTRIPPED, verdana, arial, sans-serif; font-size: 12px; fill: rgb(68, 68, 68); fill-opacity: 1; white-space: pre; opacity: 1;" transform="translate(1577.83,0)">16DAT</text></g><g class="xtick"><text text-anchor="middle" x="0" y="376" style="font-family: TOBESTRIPPEDOpen SansTOBESTRIPPED, verdana, arial, sans-serif; font-size: 12px; fill: rgb(68, 68, 68); fill-opacity: 1; white-space: pre; opacity: 1;" transform="translate(1668.61,0)">11DAT</text></g><g class="xtick2"><text text-anchor="middle" x="0" y="394" style="font-family: TOBESTRIPPEDOpen SansTOBESTRIPPED, verdana, arial, sans-serif; font-size: 12px; fill: rgb(68, 68, 68); fill-opacity: 1; white-space: pre; opacity: 1;" transform="translate(216.17,0)">Mutant-2-Leaf_1</text></g><g class="xtick2"><text text-anchor="middle" x="0" y="394" style="font-family: TOBESTRIPPEDOpen SansTOBESTRIPPED, verdana, arial, sans-serif; font-size: 12px; fill: rgb(68, 68, 68); fill-opacity: 1; white-space: pre; opacity: 1;" transform="translate(488.5,0)">Mutant-1-Leaf_2</text></g><g class="xtick2"><text text-anchor="middle" x="0" y="394" style="font-family: TOBESTRIPPEDOpen SansTOBESTRIPPED, verdana, arial, sans-serif; font-size: 12px; fill: rgb(68, 68, 68); fill-opacity: 1; white-space: pre; opacity: 1;" transform="translate(760.83,0)">WT-Leaf_1</text></g><g class="xtick2"><text text-anchor="middle" x="0" y="394" style="font-family: TOBESTRIPPEDOpen SansTOBESTRIPPED, verdana, arial, sans-serif; font-size: 12px; fill: rgb(68, 68, 68); fill-opacity: 1; white-space: pre; opacity: 1;" transform="translate(1033.17,0)">Mutant-1-Leaf_1</text></g><g class="xtick2"><text text-anchor="middle" x="0" y="394" style="font-family: TOBESTRIPPEDOpen SansTOBESTRIPPED, verdana, arial, sans-serif; font-size: 12px; fill: rgb(68, 68, 68); fill-opacity: 1; white-space: pre; opacity: 1;" transform="translate(1305.5,0)">WT-Leaf_2</text></g><g class="xtick2"><text text-anchor="middle" x="0" y="394" style="font-family: TOBESTRIPPEDOpen SansTOBESTRIPPED, verdana, arial, sans-serif; font-size: 12px; fill: rgb(68, 68, 68); fill-opacity: 1; white-space: pre; opacity: 1;" transform="translate(1577.83,0)">Mutant-2-Leaf_2</text></g></g><g class="yaxislayer-above"><g class="ytick"><text text-anchor="end" x="79" y="4.199999999999999" style="font-family: TOBESTRIPPEDOpen SansTOBESTRIPPED, verdana, arial, sans-serif; font-size: 12px; fill: rgb(68, 68, 68); fill-opacity: 1; white-space: pre; opacity: 1;" transform="translate(0,363)">0</text></g><g class="ytick"><text text-anchor="end" x="79" y="4.199999999999999" style="font-family: TOBESTRIPPEDOpen SansTOBESTRIPPED, verdana, arial, sans-serif; font-size: 12px; fill: rgb(68, 68, 68); fill-opacity: 1; white-space: pre; opacity: 1;" transform="translate(0,300.63)">20</text></g><g class="ytick"><text text-anchor="end" x="79" y="4.199999999999999" style="font-family: TOBESTRIPPEDOpen SansTOBESTRIPPED, verdana, arial, sans-serif; font-size: 12px; fill: rgb(68, 68, 68); fill-opacity: 1; white-space: pre; opacity: 1;" transform="translate(0,238.25)">40</text></g><g class="ytick"><text text-anchor="end" x="79" y="4.199999999999999" style="font-family: TOBESTRIPPEDOpen SansTOBESTRIPPED, verdana, arial, sans-serif; font-size: 12px; fill: rgb(68, 68, 68); fill-opacity: 1; white-space: pre; opacity: 1;" transform="translate(0,175.88)">60</text></g><g class="ytick"><text text-anchor="end" x="79" y="4.199999999999999" style="font-family: TOBESTRIPPEDOpen SansTOBESTRIPPED, verdana, arial, sans-serif; font-size: 12px; fill: rgb(68, 68, 68); fill-opacity: 1; white-space: pre; opacity: 1;" transform="translate(0,113.5)">80</text></g></g><g class="overaxes-above"/></g></g><g class="polarlayer"/><g class="smithlayer"/><g class="ternarylayer"/><g class="geolayer"/><g class="funnelarealayer"/><g class="pielayer"/><g class="iciclelayer"/><g class="treemaplayer"/><g class="sunburstlayer"/><g class="glimages"/><defs id="topdefs-cfb15f"><g class="clips"/><clipPath id="legendcfb15f"><rect width="195" height="29" x="0" y="0"/></clipPath></defs><g class="layer-above"><g class="imagelayer"/><g class="shapelayer"/></g><g class="infolayer"><g class="legend" pointer-events="all" transform="translate(80,441.90000000000003)"><rect class="bg" shape-rendering="crispEdges" style="stroke: rgb(68, 68, 68); stroke-opacity: 1; fill: rgb(255, 255, 255); fill-opacity: 1; stroke-width: 0px;" width="195" height="29" x="0" y="0"/><g class="scrollbox" transform="" clip-path="url(#legendcfb15f)"><g class="groups"><g class="traces" style="opacity: 1;" transform="translate(0,14.5)"><text class="legendtext" text-anchor="start" style="font-family: TOBESTRIPPEDOpen SansTOBESTRIPPED, verdana, arial, sans-serif; font-size: 12px; fill: rgb(68, 68, 68); fill-opacity: 1; white-space: pre;" x="40" y="4.680000000000001">gene100</text><g class="layers" style="opacity: 1;"><g class="legendfill"/><g class="legendlines"/><g class="legendsymbols"><g class="legendpoints"><path class="legendundefined" d="M6,6H-6V-6H6Z" transform="translate(20,0)" style="stroke-width: 0px; fill: rgb(199, 86, 111); fill-opacity: 1;"/></g></g></g><rect class="legendtoggle" style="fill: rgb(0, 0, 0); fill-opacity: 0;" x="0" y="-9.5" width="91.5" height="19"/></g><g class="traces" style="opacity: 1;" transform="translate(94,14.5)"><text class="legendtext" text-anchor="start" style="font-family: TOBESTRIPPEDOpen SansTOBESTRIPPED, verdana, arial, sans-serif; font-size: 12px; fill: rgb(68, 68, 68); fill-opacity: 1; white-space: pre;" x="40" y="4.680000000000001">gene1996</text><g class="layers" style="opacity: 1;"><g class="legendfill"/><g class="legendlines"/><g class="legendsymbols"><g class="legendpoints"><path class="legendundefined" d="M6,6H-6V-6H6Z" transform="translate(20,0)" style="stroke-width: 0px; fill: rgb(87, 191, 103); fill-opacity: 1;"/></g></g></g><rect class="legendtoggle" style="fill: rgb(0, 0, 0); fill-opacity: 0;" x="0" y="-9.5" width="98.19999694824219" height="19"/></g></g></g><rect class="scrollbar" rx="20" ry="3" width="0" height="0" style="fill: rgb(128, 139, 164); fill-opacity: 1;" x="0" y="0"/></g><g class="g-gtitle"><text class="gtitle" style="font-family: TOBESTRIPPEDOpen SansTOBESTRIPPED, verdana, arial, sans-serif; font-size: 20px; fill: rgb(68, 68, 68); opacity: 1; font-weight: normal; white-space: pre;" x="897" y="48.27170000000001" text-anchor="middle" dy="0.7em">Gene expression multiple barplots of selected genes</text></g><g class="g-xtitle"/><g class="g-ytitle"><text class="ytitle" transform="rotate(-90,42,231.5)" style="font-family: TOBESTRIPPEDOpen SansTOBESTRIPPED, verdana, arial, sans-serif; font-size: 14px; fill: rgb(68, 68, 68); opacity: 1; font-weight: normal; white-space: pre;" x="42" y="231.5" text-anchor="middle">count [Raw]</text></g></g></svg>